{
.appVersion = "3133";
.formatVersion = 3;
axes = (
{
name = wght;
tag = wght;
}
);
customParameters = (
{
name = "Write lastChange";
value = 0;
},
{
name = "Use Typo Metrics";
value = 1;
},
{
name = fsType;
value = (
);
}
);
date = "2022-02-27 10:52:09 +0000";
familyName = "Edu NSW ACT Foundation Outline";
featurePrefixes = (
{
automatic = 1;
code = "languagesystem DFLT dflt;
";
name = Languagesystems;
}
);
features = (
{
automatic = 1;
code = "feature ss01;
";
tag = aalt;
},
{
automatic = 1;
code = "sub A by A.ss01;
sub B by B.ss01;
sub C by C.ss01;
sub D by D.ss01;
sub E by E.ss01;
sub F by F.ss01;
sub G by G.ss01;
sub H by H.ss01;
sub I by I.ss01;
sub J by J.ss01;
sub K by K.ss01;
sub L by L.ss01;
sub M by M.ss01;
sub N by N.ss01;
sub O by O.ss01;
sub P by P.ss01;
sub Q by Q.ss01;
sub R by R.ss01;
sub S by S.ss01;
sub T by T.ss01;
sub U by U.ss01;
sub V by V.ss01;
sub W by W.ss01;
sub X by X.ss01;
sub Y by Y.ss01;
sub Z by Z.ss01;
sub a by a.ss01;
sub b by b.ss01;
sub c by c.ss01;
sub d by d.ss01;
sub e by e.ss01;
sub f by f.ss01;
sub g by g.ss01;
sub h by h.ss01;
sub i by i.ss01;
sub j by j.ss01;
sub k by k.ss01;
sub l by l.ss01;
sub m by m.ss01;
sub n by n.ss01;
sub o by o.ss01;
sub p by p.ss01;
sub q by q.ss01;
sub r by r.ss01;
sub s by s.ss01;
sub t by t.ss01;
sub u by u.ss01;
sub v by v.ss01;
sub w by w.ss01;
sub x by x.ss01;
sub y by y.ss01;
sub z by z.ss01;
sub zero by zero.ss01;
sub one by one.ss01;
sub two by two.ss01;
sub three by three.ss01;
sub four by four.ss01;
sub five by five.ss01;
sub six by six.ss01;
sub seven by seven.ss01;
sub eight by eight.ss01;
sub nine by nine.ss01;
";
labels = (
{
language = dflt;
value = "No Arrow";
}
);
tag = ss01;
}
);
fontMaster = (
{
axesValues = (
400
);
customParameters = (
{
name = hheaAscender;
value = 1016;
},
{
name = hheaDescender;
value = -244;
},
{
name = hheaLineGap;
value = 0;
},
{
name = typoAscender;
value = 1016;
},
{
name = typoDescender;
value = -244;
},
{
name = typoLineGap;
value = 0;
},
{

glyphs = (
{
glyphname = A;
layers = (
{
layerId = m01;
shapes = (
{
closed = 1;
nodes = (
(491,-5,o),
(499,17,o),
(495,41,cs),
(387,744,ls),
(384,763,o),
(376,780,o),
(349,780,cs),
(325,780,o),
(315,766,o),
(306,747,cs),
(-6,51,ls),
(-20,20,o),
(-12,-1,o),
(11,-7,cs),
(35,-14,o),
(52,5,o),
(61,26,cs),
(217,384,l),
(371,384,l),
(421,32,ls),
(424,11,o),
(433,-10,o),
(464,-7,cs)
);
},
{
closed = 1;
nodes = (
(443,6,o),
(438,16,o),
(435,34,cs),
(385,391,ls),
(384,396,o),
(382,398,o),
(377,398,cs),
(213,398,ls),
(209,398,o),
(207,397,o),
(205,393,cs),
(47,32,ls),
(39,14,o),
(30,3,o),
(15,7,cs),
(1,11,o),
(-3,21,o),
(8,45,cs),
(320,741,ls),
(328,758,o),
(333,765,o),
(349,765,cs),
(366,765,o),
(371,758,o),
(373,742,cs),
(481,39,ls),
(484,20,o),
(480,9,o),
(462,7,cs)
);
},
{
closed = 1;
nodes = (
(334,651,l),
(362,450,l),
(246,450,l)
);
},
{
closed = 1;
nodes = (
(372,434,ls),
(377,434,o),
(379,437,o),
(378,442,cs),
(347,673,ls),
(346,677,o),
(343,679,o),
(338,680,cs),
(333,681,o),
(331,679,o),
(329,675,cs),
(226,443,ls),
(224,438,o),
(226,434,o),
(232,434,cs)
);
},
{
closed = 1;
nodes = (
(195,575,l),
(228,614,l),
(220,618,l),
(272,735,l),
(264,739,l),
(211,622,l),
(202,626,l)
);
},
{
closed = 1;
nodes = (
(353,731,o),
(358,736,o),
(358,742,cs),
(358,748,o),
(353,753,o),
(347,753,cs),
(341,753,o),
(336,748,o),
(336,742,cs),
(336,736,o),
(341,731,o),
(347,731,cs)
);
}
);
vertWidth = 0;
width = 561;
},
{
layerId = m002;
shapes = (
{
closed = 1;
nodes = (
(503.6,-1.6,o),
(521,28,o),
(514.4,73.2,cs),
(411.2,736.4,ls),
(407,765,o),
(383.2,779.6,o),
(347.2,779.6,cs),
(306,779.6,o),
(293,763,o),
(280,735.2,cs),
(-14,81.2,ls),
(-31,43,o),
(-12.4,7.6,o),
(18.4,-5.2,cs),
(49.6,-16,o),
(92,-3,o),
(108,36,cs),
(212.8,285.6,l),
(360.4,285.6,l),
(389.6,57.2,ls),
(396,9,o),
(422.8,-14,o),
(466,-7.6,cs)
);
},
{
closed = 1;
nodes = (
(428.4,2,o),
(410,18,o),
(404.4,58.8,cs),
(374.4,293.6,ls),
(374,298,o),
(371,300,o),
(366.4,300.4,cs),
(209.6,300.4,ls),
(205,300,o),
(202,298,o),
(200.8,294.8,cs),
(94,42,ls),
(80,10,o),
(49.2,0,o),
(23.6,9.2,cs),
(-0.8,18.8,o),
(-14,44,o),
(0,74.8,cs),
(294,728.8,ls),
(306,755,o),
(313.6,764.4,o),
(347.2,764.4,cs),
(377.6,764.4,o),
(393,755,o),
(396.8,733.6,cs),
(499.6,70.8,ls),
(506,32,o),
(493.2,12,o),
(464,7.6,cs)
);
},
{
closed = 1;
nodes = (
(326,556,l),
(346.4,395.6,l),
(259.2,395.6,l)
);
},
{
closed = 1;
nodes = (
(355.6,380.4,ls),
(361,380,o),
(363,383,o),
(362.4,388.4,cs),
(338.4,579.6,ls),
(338,584,o),
(335.6,586.4,o),
(329.6,587.2,cs),
(325.2,587.6,o),
(322,586,o),
(320.8,582,cs),
(240.4,389.2,ls),
(238,384,o),
(240,380,o),
(246.4,380.4,cs)
);
},
{
closed = 1;
nodes = (
(159,551,l),
(192,589,l),
(184,593,l),
(237,711,l),
(225,716,l),
(172,599,l),
(165,602,l)
);
},
{
closed = 1;
nodes = (
(349,713,o),
(354,718,o),
(354,724,cs),
(354,730,o),
(349,735,o),
(343,735,cs),
(337,735,o),
(332,730,o),
(332,724,cs),
(332,718,o),
(337,713,o),
(343,713,cs)
);
}
);
vertWidth = 0;
width = 573;
},
{
associatedMasterId = m01;
layerId = "CC05ECD8-6904-4D4D-92AC-3DF3C05EEB87";
name = background;
shapes = (
{
closed = 1;
nodes = (
(349,743,ls),
(354,756,o),
(343,772,o),
(321,772,cs),
(295,772,o),
(293,759,o),
(286,743,cs),
(-31,38,ls),
(-42,14,o),
(-26,0,o),
(-8,0,cs),
(15,0,o),
(21,8,o),
(30,30,cs),
(348,735,l)
);
},
{
closed = 1;
nodes = (
(366,388,l),
(356,442,l),
(200,442,l),
(177,388,l)
);
},
{
closed = 1;
nodes = (
(305,669,l),
(405,23,ls),
(406,11,o),
(411,0,o),
(437,0,c),
(459,0,o),
(465,13,o),
(462,31,cs),
(350,754,l)
);
},
{
closed = 1;
nodes = (
(349,743,ls),
(354,756,o),
(343,772,o),
(321,772,cs),
(295,772,o),
(293,759,o),
(286,743,cs),
(-31,38,ls),
(-42,14,o),
(-26,0,o),
(-8,0,cs),
(15,0,o),
(21,8,o),
(30,30,cs),
(348,735,l)
);
},
{
closed = 1;
nodes = (
(366,388,l),
(356,442,l),
(200,442,l),
(177,388,l)
);
},
{
closed = 1;
nodes = (
(305,669,l),
(405,23,ls),
(406,11,o),
(411,0,o),
(437,0,c),
(459,0,o),
(465,13,o),
(462,31,cs),
(350,754,l)
);
}
);
vertWidth = 0;
width = 594;
},
{
associatedMasterId = m002;
layerId = "11FF2575-6263-44BF-95EA-B853E43D43A6";
name = background;
shapes = (
{
closed = 1;
nodes = (
(426,718,l),
(430,748,o),
(404,772,o),
(367,772,cs),
(327,772,o),
(318,756,o),
(309,732,c),
(14,78,ls),
(-1,44,o),
(15,13,o),
(43,2,cs),
(70,-8,o),
(108,4,o),
(122,39,cs),
(350,584,l)
);
},
{
closed = 1;
nodes = (
(390,347,l),
(373,442,l),
(274,442,l),
(234,347,l)
);
},
{
closed = 1;
nodes = (
(343,601,l),
(418,58,ls),
(424,14,o),
(448,-6,o),
(486,0,cs),
(519,5,o),
(535,31,o),
(529,72,cs),
(425,735,l)
);
}
);
vertWidth = 0;
width = 594;
}
);
unicode = 65;
},
{
glyphname = B;
kernLeft = H_left;
layers = (
{
layerId = m01;
shapes = (
{
closed = 1;
nodes = (
(366,-7,o),
(542,76,o),
(557,215,cs),
(567,309,o),
(513,376,o),
(407,409,c),
(526,446,o),
(549,508,o),
(557,574,cs),
(574,711,o),
(432,792,o),
(171,779,cs),
(147,778,o),
(133,767,o),
(130,741,cs),
(57,38,ls),
(55,14,o),
(70,-7,o),
(92,-7,cs)
);
},
{
closed = 1;
nodes = (
(360,52,o),
(487,122,o),
(497,224,cs),
(509,331,o),
(379,395,o),
(159,380,cs),
(155,380,o),
(152,378,o),
(151,373,cs),
(117,55,ls),
(116,50,o),
(120,47,o),
(125,47,cs)
);
},
{
closed = 1;
nodes = (
(166,366,l),
(378,378,o),
(493,320,o),
(483,226,cs),
(473,134,o),
(358,69,o),
(133,63,c)
);
},
{
closed = 1;
nodes = (
(79,8,o),
(69,19,o),
(71,36,cs),
(144,739,ls),
(146,758,o),
(154,764,o),
(171,765,cs),
(427,776,o),
(558,702,o),
(543,576,cs),
(534,509,o),
(512,452,o),
(384,418,cs),
(379,417,o),
(377,414,o),
(377,408,cs),
(377,404,o),
(380,401,o),
(384,400,cs),
(497,371,o),
(552,309,o),
(543,217,cs),
(528,87,o),
(361,8,o),
(92,8,cs)
);
},
{
closed = 1;
nodes = (
(269,418,o),
(479,430,o),
(497,579,cs),
(508,662,o),
(411,732,o),
(196,727,cs),
(191,726,o),
(188,724,o),
(187,719,cs),
(157,425,ls),
(156,420,o),
(158,418,o),
(163,418,cs)
);
},
{
closed = 1;
nodes = (
(202,712,l),
(406,716,o),
(492,653,o),
(483,581,cs),
(474,510,o),
(393,432,o),
(172,433,c)
);
},
{
closed = 1;
nodes = (
(78,565,l),
(96,613,l),
(87,614,l),
(98,742,l),
(89,743,l),
(77,615,l),
(68,616,l)
);
},
{
closed = 1;
nodes = (
(174,729,o),
(179,734,o),
(179,740,cs),
(179,746,o),
(174,751,o),
(168,751,cs),
(162,751,o),
(157,746,o),
(157,740,cs),
(157,734,o),
(162,729,o),
(168,729,cs)
);
}
);
vertWidth = 0;
width = 605;
},
{
layerId = m002;
shapes = (
{
closed = 1;
nodes = (
(398.8,-7.6,o),
(582.8,76,o),
(599.6,215.2,cs),
(608.4,298.4,o),
(564.4,362,o),
(477.2,399.2,c),
(569.6,439.6,o),
(590,501.6,o),
(600.4,574,cs),
(620.4,712.4,o),
(467.6,791.6,o),
(192,779.6,cs),
(149.6,779.6,o),
(125,769,o),
(119.6,715.6,cs),
(49.6,64,ls),
(45,24,o),
(72.8,-7.6,o),
(113.2,-7.6,cs)
);
},
{
closed = 1;
nodes = (
(367.6,115.2,o),
(467.6,162.8,o),
(476.4,231.2,cs),
(486.4,304.8,o),
(380.8,348.4,o),
(201.6,344.4,cs),
(196.8,344.4,o),
(194,342,o),
(193.6,337.6,cs),
(170.4,116.4,ls),
(170,111,o),
(172.8,108.4,o),
(178,108.8,cs)
);
},
{
closed = 1;
nodes = (
(207.6,329.6,l),
(380,332.4,o),
(469.6,292.8,o),
(461.6,232.8,cs),
(454,174.8,o),
(366,132,o),
(186.4,124,c)
);
},
{
closed = 1;
nodes = (
(80.4,7.6,o),
(61,30,o),
(64.4,62,cs),
(134.4,714.4,ls),
(139,758,o),
(153.6,764.4,o),
(192,764.4,cs),
(463.2,776.4,o),
(604,702.8,o),
(585.6,576,cs),
(574.4,499.2,o),
(554,441.2,o),
(446.8,403.2,cs),
(444,402,o),
(442,401,o),
(442,399,cs),
(442,397,o),
(443,396,o),
(446.8,394.4,cs),
(546,360.8,o),
(593.6,301.2,o),
(584.4,216.8,cs),
(569.2,87.2,o),
(394.4,7.6,o),
(113.2,7.6,cs)
);
},
{
closed = 1;
nodes = (
(433.2,434.8,o),
(472,486.8,o),
(480.4,550,cs),
(488.4,616.8,o),
(406.8,672.4,o),
(236,673.6,cs),
(230.8,673.6,o),
(228,671,o),
(227.6,666.4,cs),
(204,437.2,ls),
(203,428,o),
(209,424,o),
(214,423.6,cs)
);
},
{
closed = 1;
nodes = (
(241.6,658.4,l),
(403.6,656,o),
(472,606.8,o),
(465.6,552,cs),
(458,495,o),
(425,451,o),
(219.2,438.8,c)
);
},
{
closed = 1;
nodes = (
(65,548,l),
(85,595,l),
(76,596,l),
(90,725,l),
(77,726,l),
(63,598,l),
(55,599,l)
);
},
{
closed = 1;
nodes = (
(182,718,o),
(187,723,o),
(187,729,cs),
(187,735,o),
(182,740,o),
(176,740,cs),
(170,740,o),
(165,735,o),
(165,729,c),
(165,723,o),
(170,718,o),
(176,718,cs)
);
}
);
vertWidth = 0;
width = 642;
},
{
associatedMasterId = m01;
layerId = "B07E2D77-9B76-46A5-9AD8-52245F6FEE2E";
name = background;
shapes = (
{
closed = 1;
nodes = (
(470,356,o),
(498,436,o),
(512,564,cs),
(527,704,o),
(400,772,o),
(133,772,c),
(126,718,l),
(347,718,o),
(463,671,o),
(453,567,cs),
(443,481,o),
(434,416,o),
(116,416,c),
(110,356,l)
);
},
{
closed = 1;
nodes = (
(397,0,o),
(486,37,o),
(500,171,cs),
(516,321,o),
(361,416,o),
(112,416,c),
(107,356,l),
(333,356,o),
(451,284,o),
(441,179,cs),
(430,78,o),
(305,55,o),
(56,55,c),
(51,0,l)
);
},
{
closed = 1;
nodes = (
(162,762,o),
(156,772,o),
(133,772,cs),
(113,772,o),
(102,764,o),
(100,740,cs),
(26,37,ls),
(24,17,o),
(37,0,o),
(57,0,cs),
(74,0,o),
(83,11,o),
(86,34,cs),
(159,735,ls)
);
}
);
vertWidth = 0;
width = 594;
},
{
associatedMasterId = m002;
layerId = "41C18EEF-24E8-472E-9093-D1506CBD8D1D";
name = background;
shapes = (
{
closed = 1;
nodes = (
(498,335,o),
(526,456,o),
(537,549,cs),
(548,651,o),
(495,772,o),
(135,772,c),
(122,664,l),
(451,664,o),
(429,587,o),
(424,555,cs),
(418,517,o),
(388,425,o),
(151,425,c),
(141,335,l)
);
},
{
closed = 1;
nodes = (
(413,0,o),
(524,25,o),
(541,179,cs),
(557,339,o),
(367,425,o),
(145,425,c),
(134,335,l),
(345,335,o),
(437,286,o),
(429,200,cs),
(421,118,o),
(334,114,o),
(75,114,c),
(65,0,l)
);
},
{
closed = 1;
nodes = (
(204,764,o),
(166,772,o),
(138,772,cs),
(109,772,o),
(84,763,o),
(80,723,cs),
(10,63,ls),
(6,27,o),
(34,0,o),
(70,0,cs),
(97,0,o),
(124,13,o),
(128,52,cs),
(198,712,ls)
);
}
);
vertWidth = 0;
width = 594;
}
);
unicode = 66;
},
{
glyphname = C;
kernLeft = O_left;
layers = (
{
layerId = m01;
shapes = (
{
closed = 1;
nodes = (
(362,-12,o),
(457,70,o),
(495,146,cs),
(512,177,o),
(515,200,o),
(489,214,cs),
(464,226,o),
(445,209,o),
(431,180,cs),
(401,122,o),
(340,58,o),
(247,58,cs),
(138,58,o),
(89,165,o),
(130,396,cs),
(164,577,o),
(234,706,o),
(366,706,cs),
(421,706,o),
(465,674,o),
(489,656,cs),
(503,645,o),
(529,635,o),
(549,657,cs),
(567,680,o),
(555,701,o),
(543,713,cs),
(510,743,o),
(457,779,o),
(362,779,cs),
(192,779,o),
(96,614,o),
(57,405,cs),
(6,143,o),
(78,-12,o),
(252,-12,cs)
);
},
{
closed = 1;
nodes = (
(89,3,o),
(22,146,o),
(71,403,cs),
(110,608,o),
(201,764,o),
(362,764,cs),
(453,764,o),
(500,731,o),
(533,701,cs),
(543,692,o),
(549,681,o),
(537,667,cs),
(525,653,o),
(510,659,o),
(499,668,cs),
(473,686,o),
(425,721,o),
(366,721,cs),
(225,721,o),
(150,583,o),
(116,398,cs),
(73,161,o),
(127,43,o),
(247,43,cs),
(347,43,o),
(413,113,o),
(445,174,cs),
(457,199,o),
(467,208,o),
(483,200,cs),
(498,192,o),
(497,181,o),
(481,152,cs),
(445,80,o),
(356,3,o),
(252,3,cs)
);
},
{
closed = 1;
nodes = (
(385,821,l),
(427,793,l),
(429,802,l),
(450,797,o),
(468,790,o),
(485,782,cs),
(507,773,o),
(527,762,o),
(546,748,c),
(551,757,l),
(532,771,o),
(510,783,o),
(490,791,cs),
(471,800,o),
(454,805,o),
(434,811,c),
(436,820,l)
);
},
{
closed = 1;
nodes = (
(521,674,o),
(526,679,o),
(526,685,cs),
(526,691,o),
(521,696,o),
(515,696,cs),
(509,696,o),
(504,691,o),
(504,685,cs),
(504,679,o),
(509,674,o),
(515,674,cs)
);
}
);
vertWidth = 0;
width = 567;
},
{
layerId = m002;
shapes = (
{
closed = 1;
nodes = (
(400.8,-12.4,o),
(502.4,59.6,o),
(543.6,134.4,cs),
(572.8,188.8,o),
(552.8,232,o),
(520.4,248.8,cs),
(486.4,266.8,o),
(454.8,252.8,o),
(439.2,218,cs),
(411.6,161.6,o),
(358,107.6,o),
(270,107.6,cs),
(186,107.6,o),
(152.8,194.8,o),
(177.6,392,cs),
(198.4,564,o),
(267.6,657.6,o),
(392,657.6,cs),
(436,657.6,o),
(482.8,630.8,o),
(507.6,612.8,cs),
(536.8,592.8,o),
(572,597.2,o),
(593.6,634.4,cs),
(615.6,674.4,o),
(598.8,713.2,o),
(574.4,731.2,cs),
(544.4,754,o),
(457.2,779.6,o),
(384,779.6,cs),
(194,779.6,o),
(79.2,653.2,o),
(42.4,408,cs),
(5.2,154.8,o),
(81.2,-12.4,o),
(268,-12.4,cs)
);
},
{
closed = 1;
nodes = (
(92,2.4,o),
(20.8,158,o),
(57.6,406,cs),
(93.2,645.6,o),
(201.2,764.4,o),
(384,764.4,cs),
(454.8,764.4,o),
(537.6,740,o),
(565.6,718.8,cs),
(586,704,o),
(598.8,674.4,o),
(580.4,641.6,cs),
(563.2,612,o),
(540,608.8,o),
(516.4,625.2,cs),
(491.2,643.2,o),
(440,672.4,o),
(392,672.4,cs),
(259.6,672.4,o),
(184,570.8,o),
(162.4,394,cs),
(137.2,192,o),
(174.8,92.4,o),
(270,92.4,cs),
(364.4,92.4,o),
(424,152.4,o),
(452.8,212,cs),
(465.6,240.4,o),
(486.8,249.6,o),
(513.6,235.2,cs),
(540.4,221.6,o),
(555.6,188.4,o),
(530.4,141.6,cs),
(491.2,70,o),
(395.6,2.4,o),
(268,2.4,cs)
);
},
{
closed = 1;
nodes = (
(406,816,l),
(451,792,l),
(453,801,l),
(474,798,o),
(493,793,o),
(513,788,cs),
(534,781,o),
(553,773,o),
(571,758,c),
(577,770,l),
(559,784,o),
(538,794,o),
(516,800,cs),
(497,806,o),
(476,811,o),
(455,814,c),
(457,823,l)
);
},
{
closed = 1;
nodes = (
(559,672,o),
(564,677,o),
(564,683,cs),
(564,689,o),
(559,694,o),
(553,694,cs),
(547,694,o),
(542,689,o),
(542,683,cs),
(542,677,o),
(547,672,o),
(553,672,cs)
);
}
);
vertWidth = 0;
width = 605;
},
{
associatedMasterId = m01;
layerId = "52EFED00-95E8-43A2-983B-57F1EBD9EA9F";
name = background;
shapes = (
{
closed = 1;
nodes = (
(557,695,o),
(577,690,o),
(587,710,cs),
(596,729,o),
(584,743,o),
(573,747,cs),
(536,763,o),
(498,771,o),
(394,771,cs),
(210,771,o),
(116,606,o),
(96,402,cs),
(95,378,o),
(82,259,o),
(86,204,cs),
(93,101,o),
(134,-5,o),
(284,-5,cs),
(391,-5,o),
(486,71,o),
(520,141,cs),
(538,181,o),
(542,195,o),
(522,206,cs),
(497,217,o),
(482,203,o),
(469,176,cs),
(438,116,o),
(365,50,o),
(279,50,cs),
(171,50,o),
(150,135,o),
(145,203,cs),
(140,267,o),
(153,368,o),
(159,415,cs),
(175,575,o),
(257,716,o),
(398,716,cs),
(491,716,o),
(519,709,o),
(545,700,cs)
);
}
);
vertWidth = 0;
width = 594;
},
{
associatedMasterId = m002;
layerId = "66F140A1-F38A-450F-A5C8-1AF38644720C";
name = background;
shapes = (
{
closed = 1;
nodes = (
(444,-5,o),
(549,69,o),
(580,151,cs),
(605,223,o),
(608,261,o),
(550,276,cs),
(499,287,o),
(489,254,o),
(473,209,cs),
(453,156,o),
(390,114,o),
(308,114,cs),
(235,114,o),
(208,143,o),
(203,198,cs),
(200,261,o),
(211,368,o),
(219,412,cs),
(232,536,o),
(279,653,o),
(438,653,cs),
(473,653,o),
(531,649,o),
(576,638,cs),
(596,633,o),
(631,638,o),
(643,677,cs),
(653,714,o),
(639,737,o),
(618,746,cs),
(571,766,o),
(491,772,o),
(430,772,cs),
(192,772,o),
(115,590,o),
(97,413,cs),
(93,388,o),
(81,260,o),
(84,200,cs),
(90,124,o),
(139,-5,o),
(315,-5,cs)
);
}
);
vertWidth = 0;
width = 594;
}
);
unicode = 67;
},
{
glyphname = D;
kernLeft = H_left;
kernRight = O_right;
layers = (
{
layerId = m01;
shapes = (
{
closed = 1;
nodes = (
(172,-7,ls),
(412,-7,o),
(543,148,o),
(572,403,cs),
(598,628,o),
(469,780,o),
(242,780,cs),
(175,780,ls),
(144,780,o),
(136,762,o),
(134,741,cs),
(59,33,ls),
(57,11,o),
(69,-7,o),
(96,-7,cs)
);
},
{
closed = 1;
nodes = (
(78,8,o),
(71,16,o),
(73,31,cs),
(148,739,ls),
(150,757,o),
(154,765,o),
(175,765,cs),
(242,765,ls),
(462,765,o),
(582,623,o),
(558,405,cs),
(529,155,o),
(405,8,o),
(172,8,cs),
(96,8,ls)
);
},
{
closed = 1;
nodes = (
(168,48,ls),
(379,48,o),
(487,177,o),
(514,408,cs),
(535,592,o),
(432,726,o),
(250,726,cs),
(199,726,ls),
(194,726,o),
(191,723,o),
(191,719,cs),
(121,55,ls),
(120,50,o),
(123,48,o),
(128,48,cs)
);
},
{
closed = 1;
nodes = (
(205,711,l),
(250,711,ls),
(423,711,o),
(519,587,o),
(500,410,cs),
(473,184,o),
(371,63,o),
(168,63,cs),
(136,63,l)
);
},
{
closed = 1;
nodes = (
(79,565,l),
(97,613,l),
(88,614,l),
(99,742,l),
(90,743,l),
(78,615,l),
(69,616,l)
);
},
{
closed = 1;
nodes = (
(179,729,o),
(184,734,o),
(184,740,cs),
(184,746,o),
(179,751,o),
(173,751,cs),
(167,751,o),
(162,746,o),
(162,740,cs),
(162,734,o),
(167,729,o),
(173,729,cs)
);
}
);
vertWidth = 0;
width = 620;
},
{
layerId = m002;
shapes = (
{
closed = 1;
nodes = (
(207.2,-7.6,ls),
(440,-7.6,o),
(593.2,148.8,o),
(619.6,398.4,cs),
(642,624.4,o),
(503.2,779.6,o),
(271.2,779.6,cs),
(186.8,779.6,ls),
(146,778.4,o),
(126,759.6,o),
(121.6,724,cs),
(51.6,58.8,ls),
(48,22,o),
(76.8,-6.4,o),
(116,-7.6,cs)
);
},
{
closed = 1;
nodes = (
(84,8.4,o),
(63.6,28.8,o),
(66.4,57.2,cs),
(136.4,722,ls),
(140,751.2,o),
(153.2,763.6,o),
(187.2,764.4,cs),
(271.2,764.4,ls),
(495.6,764.4,o),
(626.4,618.4,o),
(604.4,399.6,cs),
(578.8,156.4,o),
(432.8,7.6,o),
(207.2,7.6,cs),
(116,7.6,ls)
);
},
{
closed = 1;
nodes = (
(200,98.4,ls),
(372.8,98.4,o),
(486,201.6,o),
(504.4,402.4,cs),
(520.8,585.2,o),
(420.8,675.6,o),
(258,675.6,cs),
(243.6,675.6,ls),
(238.8,675.6,o),
(236,673.2,o),
(235.6,668.4,cs),
(176.4,106.4,ls),
(176,101.2,o),
(178.4,98.4,o),
(183.6,98.4,cs)
);
},
{
closed = 1;
nodes = (
(249.6,660.4,l),
(258,660.4,ls),
(414,660.4,o),
(505.2,578,o),
(489.6,403.6,cs),
(471.6,209.6,o),
(366,113.6,o),
(200,113.6,cs),
(192.4,113.6,l)
);
},
{
closed = 1;
nodes = (
(65,548,l),
(85,595,l),
(76,596,l),
(90,725,l),
(77,726,l),
(63,598,l),
(55,599,l)
);
},
{
closed = 1;
nodes = (
(182,718,o),
(187,723,o),
(187,729,cs),
(187,735,o),
(182,740,o),
(176,740,cs),
(170,740,o),
(165,735,o),
(165,729,c),
(165,723,o),
(170,718,o),
(176,718,cs)
);
}
);
vertWidth = 0;
width = 659;
},
{
associatedMasterId = m01;
layerId = "65D45964-139F-42EA-844B-768674C9B4E8";
name = background;
shapes = (
{
closed = 1;
nodes = (
(143,0,ls),
(371,0,o),
(510,152,o),
(537,417,cs),
(560,619,o),
(412,772,o),
(188,772,cs),
(146,772,l),
(139,718,l),
(196,718,ls),
(385,718,o),
(495,581,o),
(479,416,cs),
(454,184,o),
(331,55,o),
(139,55,cs),
(74,55,l),
(67,0,l)
);
},
{
closed = 1;
nodes = (
(173,757,o),
(171,772,o),
(146,772,cs),
(120,772,o),
(114,759,o),
(112,740,cs),
(37,32,ls),
(34,14,o),
(45,0,o),
(67,0,cs),
(93,0,o),
(95,18,o),
(96,30,cs),
(171,735,ls)
);
}
);
vertWidth = 0;
width = 594;
}
);
unicode = 68;
},
{
glyphname = E;
kernLeft = H_left;
layers = (
{
layerId = m01;
shapes = (
{
closed = 1;
nodes = (
(470,-7,ls),
(498,-7,o),
(510,11,o),
(510,29,cs),
(510,47,o),
(498,63,o),
(470,63,cs),
(137,63,l),
(171,381,l),
(480,381,ls),
(508,381,o),
(524,398,o),
(524,416,cs),
(524,434,o),
(511,451,o),
(483,451,cs),
(178,451,l),
(206,711,l),
(546,711,ls),
(574,711,o),
(586,728,o),
(586,745,cs),
(586,762,o),
(574,780,o),
(546,780,cs),
(176,780,ls),
(145,780,o),
(137,762,o),
(135,741,cs),
(60,33,ls),
(56,11,o),
(70,-7,o),
(97,-7,cs)
);
},
{
closed = 1;
nodes = (
(79,8,o),
(72,16,o),
(74,31,cs),
(149,739,ls),
(151,757,o),
(155,765,o),
(176,765,cs),
(546,765,ls),
(565,765,o),
(571,757,o),
(571,745,cs),
(571,733,o),
(565,726,o),
(546,726,cs),
(200,726,ls),
(195,726,o),
(192,723,o),
(192,719,cs),
(162,443,ls),
(162,438,o),
(164,436,o),
(170,436,cs),
(483,436,ls),
(502,436,o),
(509,427,o),
(509,416,cs),
(509,405,o),
(501,396,o),
(480,396,cs),
(164,396,ls),
(160,396,o),
(157,393,o),
(156,389,cs),
(122,55,ls),
(121,50,o),
(124,48,o),
(129,48,cs),
(470,48,ls),
(489,48,o),
(495,41,o),
(495,29,cs),
(495,16,o),
(489,8,o),
(470,8,cs),
(97,8,ls)
);
},
{
closed = 1;
nodes = (
(80,565,l),
(98,613,l),
(89,614,l),
(100,742,l),
(91,743,l),
(79,615,l),
(70,616,l)
);
},
{
closed = 1;
nodes = (
(180,729,o),
(185,734,o),
(185,740,cs),
(185,746,o),
(180,751,o),
(174,751,cs),
(168,751,o),
(163,746,o),
(163,740,cs),
(163,734,o),
(168,729,o),
(174,729,cs)
);
}
);
vertWidth = 0;
width = 589;
},
{
layerId = m002;
shapes = (
{
closed = 1;
nodes = (
(501.2,-7.6,ls),
(542,-7.6,o),
(564.4,28,o),
(564.4,62,cs),
(564.4,94,o),
(539.2,120.4,o),
(497.2,120.4,cs),
(192.4,120.4,l),
(214.8,334.4,l),
(505.2,334.4,ls),
(547.2,334.4,o),
(572.4,360.8,o),
(572.4,393.2,cs),
(572.4,428.8,o),
(542.4,450.4,o),
(504,450.4,cs),
(227.2,450.4,l),
(248.8,651.6,l),
(571.2,651.6,ls),
(611.6,651.6,o),
(635.6,686,o),
(635.6,720,cs),
(635.6,754.4,o),
(608,779.6,o),
(567.2,779.6,cs),
(190,779.6,ls),
(150,779.6,o),
(126,764,o),
(121.6,726.8,cs),
(51.6,59.6,ls),
(48.4,23.2,o),
(65.6,-7.6,o),
(113.2,-7.6,cs)
);
},
{
closed = 1;
nodes = (
(75.2,7.6,o),
(63.6,27.6,o),
(66.4,58.4,cs),
(136.4,725.2,ls),
(140,754.8,o),
(155.2,764.4,o),
(190,764.4,cs),
(567.2,764.4,ls),
(601.2,764.4,o),
(620.4,746.8,o),
(620.4,720,cs),
(620.4,691.2,o),
(603.2,666.4,o),
(571.2,666.4,cs),
(242.4,666.4,ls),
(237.6,666.4,o),
(234.8,664,o),
(234.4,659.2,cs),
(211.6,443.6,ls),
(211.2,438.4,o),
(213.6,435.6,o),
(218.8,435.6,cs),
(504,435.6,ls),
(536.4,435.6,o),
(557.6,420,o),
(557.6,393.2,cs),
(557.6,368,o),
(539.6,349.6,o),
(505.2,349.6,cs),
(208.4,349.6,ls),
(203.6,349.6,o),
(200.8,347.2,o),
(200.4,342.4,cs),
(176.4,113.6,ls),
(176,108.4,o),
(178.4,105.6,o),
(183.6,105.6,cs),
(497.2,105.6,ls),
(531.6,105.6,o),
(549.6,86.8,o),
(549.6,62,cs),
(549.6,33.2,o),
(532.8,7.6,o),
(501.2,7.6,cs),
(113.2,7.6,ls)
);
},
{
closed = 1;
nodes = (
(65,548,l),
(85,595,l),
(76,596,l),
(90,725,l),
(77,726,l),
(63,598,l),
(55,599,l)
);
},
{
closed = 1;
nodes = (
(182,718,o),
(187,723,o),
(187,729,cs),
(187,735,o),
(182,740,o),
(176,740,cs),
(170,740,o),
(165,735,o),
(165,729,c),
(165,723,o),
(170,718,o),
(176,718,cs)
);
}
);
vertWidth = 0;
width = 631;
}
);
unicode = 69;
},
{
glyphname = F;
kernLeft = H_left;
layers = (
{
layerId = m01;
shapes = (
{
closed = 1;
nodes = (
(130,-7,o),
(132,17,o),
(133,29,cs),
(171,381,l),
(472,381,ls),
(501,381,o),
(513,399,o),
(513,416,cs),
(513,433,o),
(501,451,o),
(472,451,cs),
(178,451,l),
(206,711,l),
(546,711,ls),
(574,711,o),
(586,728,o),
(586,745,cs),
(586,762,o),
(574,780,o),
(546,780,cs),
(176,780,ls),
(145,780,o),
(137,762,o),
(135,741,cs),
(60,33,ls),
(56,11,o),
(70,-7,o),
(97,-7,cs)
);
},
{
closed = 1;
nodes = (
(79,8,o),
(72,16,o),
(74,31,cs),
(149,739,ls),
(151,757,o),
(155,765,o),
(176,765,cs),
(546,765,ls),
(565,765,o),
(571,757,o),
(571,745,cs),
(571,733,o),
(565,726,o),
(546,726,cs),
(200,726,ls),
(195,726,o),
(192,723,o),
(192,719,cs),
(162,443,ls),
(162,438,o),
(164,436,o),
(170,436,cs),
(472,436,ls),
(492,436,o),
(498,428,o),
(498,416,cs),
(498,404,o),
(492,396,o),
(472,396,cs),
(164,396,ls),
(160,396,o),
(157,393,o),
(156,389,cs),
(119,31,ls),
(118,19,o),
(116,8,o),
(97,8,cs)
);
},
{
closed = 1;
nodes = (
(80,565,l),
(98,613,l),
(89,614,l),
(100,742,l),
(91,743,l),
(79,615,l),
(70,616,l)
);
},
{
closed = 1;
nodes = (
(180,729,o),
(185,734,o),
(185,740,cs),
(185,746,o),
(180,751,o),
(174,751,cs),
(168,751,o),
(163,746,o),
(163,740,cs),
(163,734,o),
(168,729,o),
(174,729,cs)
);
}
);
vertWidth = 0;
width = 588;
},
{
layerId = m002;
shapes = (
{
closed = 1;
nodes = (
(158.4,-7.6,o),
(182.4,21.2,o),
(185.6,60.4,cs),
(214.8,337.6,l),
(520,337.6,ls),
(562.4,337.6,o),
(582.4,363.6,o),
(582.4,396,cs),
(582.4,430.8,o),
(553.6,453.6,o),
(514,453.6,cs),
(227.2,453.6,l),
(248.8,651.6,l),
(584,651.6,ls),
(624,651.6,o),
(652.4,678.8,o),
(652.4,718,cs),
(652.4,755.6,o),
(623.6,779.6,o),
(583.2,779.6,cs),
(188,779.6,ls),
(147.6,779.6,o),
(126,762.8,o),
(121.6,726,cs),
(51.6,64.8,ls),
(48.4,29.6,o),
(66.4,-7.6,o),
(106,-7.6,cs)
);
},
{
closed = 1;
nodes = (
(76.8,7.6,o),
(63.6,33.6,o),
(66.4,63.2,cs),
(136.4,724,ls),
(140,754,o),
(153.6,764.4,o),
(188,764.4,cs),
(583.2,764.4,ls),
(617.2,764.4,o),
(637.6,747.6,o),
(637.6,718,cs),
(637.6,686,o),
(616.8,666.4,o),
(584,666.4,cs),
(242.4,666.4,ls),
(237.6,666.4,o),
(234.8,664,o),
(234.4,659.2,cs),
(211.6,446.4,ls),
(211.2,441.2,o),
(213.6,438.4,o),
(218.8,438.4,cs),
(514,438.4,ls),
(547.2,438.4,o),
(567.6,422.4,o),
(567.6,396,cs),
(567.6,369.6,o),
(554.4,352.4,o),
(520,352.4,cs),
(208.4,352.4,ls),
(203.6,352.4,o),
(200.8,350,o),
(200.4,345.2,cs),
(170.4,61.6,ls),
(167.6,28,o),
(150.4,7.6,o),
(106,7.6,cs)
);
},
{
closed = 1;
nodes = (
(65,548,l),
(85,595,l),
(76,596,l),
(90,725,l),
(77,726,l),
(63,598,l),
(55,599,l)
);
},
{
closed = 1;
nodes = (
(182,718,o),
(187,723,o),
(187,729,cs),
(187,735,o),
(182,740,o),
(176,740,cs),
(170,740,o),
(165,735,o),
(165,729,c),
(165,723,o),
(170,718,o),
(176,718,cs)
);
}
);
vertWidth = 0;
width = 647;
}
);
unicode = 70;
},
{
glyphname = G;
kernLeft = O_left;
layers = (
{
layerId = m01;
shapes = (
{
closed = 1;
nodes = (
(311,-12,o),
(391,47,o),
(460,186,c),
(445,44,ls),
(442,17,o),
(447,-6,o),
(477,-7,cs),
(511,-9,o),
(517,18,o),
(519,42,cs),
(554,383,ls),
(557,408,o),
(538,424,o),
(514,424,cs),
(489,424,o),
(483,407,o),
(476,391,cs),
(392,194,o),
(329,58,o),
(228,58,cs),
(130,58,o),
(89,197,o),
(121,396,cs),
(148,557,o),
(243,708,o),
(370,708,cs),
(435,708,o),
(483,666,o),
(509,639,cs),
(524,623,o),
(546,619,o),
(562,634,cs),
(579,650,o),
(580,674,o),
(566,693,cs),
(535,734,o),
(463,780,o),
(379,780,cs),
(197,780,o),
(83,595,o),
(49,406,cs),
(4,166,o),
(71,-12,o),
(217,-12,cs)
);
},
{
closed = 1;
nodes = (
(82,3,o),
(20,169,o),
(63,404,cs),
(97,589,o),
(206,765,o),
(379,765,cs),
(458,765,o),
(525,722,o),
(554,684,cs),
(564,670,o),
(564,656,o),
(552,646,cs),
(542,636,o),
(531,638,o),
(519,649,cs),
(493,676,o),
(441,723,o),
(370,723,cs),
(234,723,o),
(134,564,o),
(107,398,cs),
(73,195,o),
(117,43,o),
(228,43,cs),
(339,43,o),
(406,188,o),
(490,385,cs),
(497,401,o),
(499,409,o),
(514,409,cs),
(532,409,o),
(542,401,o),
(540,385,cs),
(505,44,ls),
(503,20,o),
(499,7,o),
(477,7,cs),
(460,8,o),
(456,19,o),
(459,42,cs),
(479,223,ls),
(480,228,o),
(477,232,o),
(473,232,cs),
(472,232,ls),
(467,232,o),
(464,232,o),
(462,227,cs),
(392,67,o),
(313,2,o),
(217,3,cs)
);
},
{
closed = 1;
nodes = (
(430,820,l),
(467,786,l),
(470,795,l),
(490,786,o),
(508,776,o),
(522,765,cs),
(543,752,o),
(560,738,o),
(577,721,c),
(584,729,l),
(567,746,o),
(547,762,o),
(529,774,cs),
(513,785,o),
(495,793,o),
(477,802,c),
(481,811,l)
);
},
{
closed = 1;
nodes = (
(538,659,o),
(543,664,o),
(543,670,cs),
(543,676,o),
(538,681,o),
(532,681,cs),
(526,681,o),
(521,676,o),
(521,670,cs),
(521,664,o),
(526,659,o),
(532,659,cs)
);
}
);
vertWidth = 0;
width = 638;
},
{
layerId = m002;
shapes = (
{
closed = 1;
nodes = (
(299.6,-12.4,o),
(364,58,o),
(417.2,144.8,c),
(408.4,58.8,ls),
(404,17,o),
(433.2,-7.6,o),
(478,-7.6,cs),
(524,-7.6,o),
(539,18,o),
(542.4,49.2,cs),
(577.6,379.2,ls),
(582,421,o),
(552.8,447.6,o),
(512,447.6,cs),
(462,447.6,o),
(455.2,432.4,o),
(393.6,325.6,cs),
(357.6,261.6,o),
(266.8,108.4,o),
(225.2,108.4,cs),
(171.2,108.4,o),
(152.4,203.2,o),
(175.6,390,cs),
(194.4,547.2,o),
(231.2,656.4,o),
(361.2,656.4,cs),
(417.2,656.4,o),
(448,639.6,o),
(459.2,612,cs),
(475.6,572.8,o),
(505.2,556.8,o),
(548,568.8,cs),
(586,578,o),
(594.8,617.2,o),
(586.4,648.8,cs),
(563.2,738,o),
(471.2,779.6,o),
(361.2,779.6,cs),
(166,779.6,o),
(74,634.4,o),
(40.4,407.2,cs),
(4.4,164,o),
(39.2,-12.4,o),
(217.2,-12.4,cs)
);
},
{
closed = 1;
nodes = (
(52,2.4,o),
(19.6,165.2,o),
(55.6,404.8,cs),
(88,628.4,o),
(175.2,764.4,o),
(361.2,764.4,cs),
(467.2,764.4,o),
(550.8,726.8,o),
(571.6,645.2,cs),
(579.2,618,o),
(572.8,590.4,o),
(544,583.2,cs),
(508,573.2,o),
(486.8,584.4,o),
(472.8,618,cs),
(459.6,650.8,o),
(421.6,671.6,o),
(361.2,671.6,cs),
(220.4,671.6,o),
(179.6,551.2,o),
(160.4,392,cs),
(137.2,202.4,o),
(156.8,93.6,o),
(225.2,93.6,cs),
(277.2,93.6,o),
(370.8,254.8,o),
(406.4,318.4,cs),
(468.8,425.6,o),
(472,432.4,o),
(512,432.4,cs),
(546,432.4,o),
(566,414,o),
(562.4,380.8,cs),
(527.6,50.8,ls),
(525,23,o),
(514.8,7.6,o),
(478,7.6,cs),
(439.6,7.6,o),
(420,24,o),
(423.6,57.2,cs),
(434.8,170.4,ls),
(435,175,o),
(434,178,o),
(429.2,179.2,cs),
(428,179.6,ls),
(424,181,o),
(420.4,179.6,o),
(418,175.6,cs),
(362.8,80,o),
(299.6,2.4,o),
(217.2,2.4,cs)
);
},
{
closed = 1;
nodes = (
(511,800,l),
(533,755,l),
(540,760,l),
(555,747,o),
(568,731,o),
(583,715,cs),
(595,700,o),
(608,681,o),
(613,660,c),
(625,665,l),
(619,687,o),
(607,707,o),
(592,726,cs),
(580,739,o),
(564,756,o),
(549,770,c),
(556,778,l)
);
},
{
closed = 1;
nodes = (
(556,612,o),
(561,617,o),
(561,623,cs),
(561,629,o),
(556,634,o),
(550,634,cs),
(544,634,o),
(539,629,o),
(539,623,cs),
(539,617,o),
(544,612,o),
(550,612,cs)
);
}
);
vertWidth = 0;
width = 636;
},
{
associatedMasterId = m002;
layerId = "38D35BBD-0824-4139-A76A-CF2BFBC65422";
name = background;
shapes = (
{
closed = 1;
nodes = (
(491,440,o),
(485,429,o),
(423,322,cs),
(386,258,o),
(293,101,o),
(247,101,cs),
(214,101,o),
(207,135,o),
(203,184,cs),
(198,254,o),
(210,361,o),
(216,421,cs),
(228,529,o),
(247,665,o),
(443,665,cs),
(470,665,o),
(497,637,o),
(501,617,cs),
(511,579,o),
(554,570,o),
(582,577,cs),
(614,587,o),
(623,619,o),
(614,649,cs),
(593,733,o),
(516,772,o),
(435,772,cs),
(156,772,o),
(114,579,o),
(95,405,cs),
(93,381,o),
(80,252,o),
(84,179,cs),
(90,94,o),
(126,-5,o),
(240,-5,cs),
(353,-5,o),
(457,182,o),
(532,315,c),
(536,440,l)
);
},
{
closed = 1;
nodes = (
(596,417,o),
(571,440,o),
(535,440,cs),
(488,440,o),
(475,407,o),
(473,388,cs),
(438,58,ls),
(435,21,o),
(460,0,o),
(500,0,cs),
(542,0,o),
(554,21,o),
(557,50,cs),
(593,380,ls)
);
}
);
vertWidth = 0;
width = 594;
}
);
unicode = 71;
},
{
glyphname = H;
kernLeft = H_left;
kernRight = H_right;
layers = (
{
layerId = m01;
shapes = (
{
closed = 1;
nodes = (
(130,-7,o),
(132,17,o),
(133,29,cs),
(171,381,l),
(496,381,l),
(459,33,ls),
(457,17,o),
(461,-7,o),
(496,-7,cs),
(524,-7,o),
(531,13,o),
(532,25,cs),
(608,737,ls),
(612,761,o),
(600,780,o),
(572,780,cs),
(545,780,o),
(536,761,o),
(535,747,cs),
(503,451,l),
(178,451,l),
(208,734,ls),
(211,759,o),
(202,780,o),
(176,780,cs),
(150,780,o),
(137,763,o),
(135,741,cs),
(60,33,ls),
(56,11,o),
(70,-7,o),
(97,-7,cs)
);
},
{
closed = 1;
nodes = (
(79,8,o),
(72,16,o),
(74,31,cs),
(149,739,ls),
(151,756,o),
(158,765,o),
(176,765,cs),
(191,765,o),
(195,756,o),
(194,736,cs),
(162,443,ls),
(162,438,o),
(164,436,o),
(170,436,cs),
(510,436,ls),
(514,436,o),
(517,438,o),
(518,443,cs),
(549,745,ls),
(550,756,o),
(555,765,o),
(572,765,cs),
(591,765,o),
(596,756,o),
(594,739,cs),
(518,27,ls),
(517,17,o),
(513,8,o),
(496,8,cs),
(474,8,o),
(473,18,o),
(473,31,cs),
(512,388,ls),
(512,393,o),
(510,396,o),
(504,396,cs),
(164,396,ls),
(160,396,o),
(157,393,o),
(156,389,cs),
(119,31,ls),
(118,19,o),
(116,8,o),
(97,8,cs)
);
},
{
closed = 1;
nodes = (
(80,565,l),
(98,613,l),
(89,614,l),
(100,742,l),
(91,743,l),
(79,615,l),
(70,616,l)
);
},
{
closed = 1;
nodes = (
(180,729,o),
(185,734,o),
(185,740,cs),
(185,746,o),
(180,751,o),
(174,751,cs),
(168,751,o),
(163,746,o),
(163,740,cs),
(163,734,o),
(168,729,o),
(174,729,cs)
);
}
);
vertWidth = 0;
width = 671;
},
{
layerId = m002;
shapes = (
{
closed = 1;
nodes = (
(163.6,-7.6,o),
(183.2,20.4,o),
(185.6,47.2,cs),
(215.6,339.6,l),
(478.8,339.6,l),
(449.6,58.8,ls),
(446,20.4,o),
(470.4,-7.6,o),
(514,-7.6,cs),
(552.4,-7.6,o),
(580,15.6,o),
(582.4,43.2,cs),
(652.4,711.2,ls),
(656.8,754,o),
(628,779.6,o),
(587.2,779.6,cs),
(550.8,779.6,o),
(523.2,758.8,o),
(519.6,728.8,cs),
(490.4,449.6,l),
(227.2,449.6,l),
(253.6,708,ls),
(259.2,754.8,o),
(233.2,779.6,o),
(195.2,779.6,cs),
(160.4,779.6,o),
(125.2,762.8,o),
(120.4,724,cs),
(51.6,58.8,ls),
(48,21.2,o),
(76.8,-7.6,o),
(119.2,-7.6,cs)
);
},
{
closed = 1;
nodes = (
(84,7.6,o),
(63.6,28,o),
(66.4,57.2,cs),
(135.6,722,ls),
(138.8,752,o),
(164.8,764.4,o),
(195.2,764.4,cs),
(226,764.4,o),
(243.2,748,o),
(238.4,710,cs),
(211.6,442.4,ls),
(211.2,437.2,o),
(213.6,434.4,o),
(218.8,434.4,cs),
(496.4,434.4,ls),
(501.2,434.4,o),
(504,436.8,o),
(504.4,441.6,cs),
(534.4,727.2,ls),
(537.2,750,o),
(556.4,764.4,o),
(587.2,764.4,cs),
(621.2,764.4,o),
(641.2,746.8,o),
(637.6,712.8,cs),
(567.6,44.8,ls),
(565.6,23.6,o),
(546.4,7.6,o),
(514,7.6,cs),
(478.4,7.6,o),
(461.6,26.4,o),
(464.4,57.2,cs),
(494.4,346.4,ls),
(494.8,351.6,o),
(492.4,354.4,o),
(487.2,354.4,cs),
(209.6,354.4,ls),
(204.8,354.4,o),
(202,352,o),
(201.6,347.2,cs),
(170.4,48.8,ls),
(168.8,26.8,o),
(155.2,7.6,o),
(119.2,7.6,cs)
);
},
{
closed = 1;
nodes = (
(65,548,l),
(85,595,l),
(76,596,l),
(90,725,l),
(77,726,l),
(63,598,l),
(55,599,l)
);
},
{
closed = 1;
nodes = (
(182,718,o),
(187,723,o),
(187,729,cs),
(187,735,o),
(182,740,o),
(176,740,cs),
(170,740,o),
(165,735,o),
(165,729,c),
(165,723,o),
(170,718,o),
(176,718,cs)
);
}
);
vertWidth = 0;
width = 707;
}
);
unicode = 72;
},
{
glyphname = I;
layers = (
{
layerId = m01;
shapes = (
{
closed = 1;
nodes = (
(149,-7,o),
(153,17,o),
(154,29,cs),
(229,734,ls),
(232,758,o),
(228,780,o),
(197,780,cs),
(168,780,o),
(157,762,o),
(155,741,cs),
(81,33,l),
(77,11,o),
(91,-7,o),
(117,-7,cs)
);
},
{
closed = 1;
nodes = (
(100,8,o),
(93,16,o),
(95,31,cs),
(169,739,ls),
(171,756,o),
(177,765,o),
(197,765,cs),
(215,765,o),
(217,757,o),
(215,736,cs),
(140,31,ls),
(139,19,o),
(137,8,o),
(117,8,cs)
);
},
{
closed = 1;
nodes = (
(100,565,l),
(118,613,l),
(109,614,l),
(120,742,l),
(111,743,l),
(99,615,l),
(90,616,l)
);
},
{
closed = 1;
nodes = (
(200,729,o),
(205,734,o),
(205,740,cs),
(205,746,o),
(200,751,o),
(194,751,cs),
(188,751,o),
(183,746,o),
(183,740,cs),
(183,734,o),
(188,729,o),
(194,729,cs)
);
}
);
vertWidth = 0;
width = 316;
},
{
layerId = m002;
shapes = (
{
closed = 1;
nodes = (
(175.6,-7.6,o),
(203,16,o),
(205.6,45.2,cs),
(275.6,708.4,ls),
(281,764,o),
(246.4,779.6,o),
(214,779.6,cs),
(176,779.6,o),
(148,762,o),
(143.6,723.6,cs),
(73.6,58.8,ls),
(70,22,o),
(91.2,-7.6,o),
(132,-7.6,cs)
);
},
{
closed = 1;
nodes = (
(99.6,7.6,o),
(85,27,o),
(88.4,57.2,cs),
(158.4,722.4,ls),
(162,752,o),
(181.2,764.4,o),
(214,764.4,cs),
(242.4,764.4,o),
(265,754,o),
(260.4,709.6,cs),
(190.4,46.8,ls),
(188,25,o),
(169.2,7.6,o),
(132,7.6,cs)
);
},
{
closed = 1;
nodes = (
(90,548,l),
(110,595,l),
(101,596,l),
(115,725,l),
(102,726,l),
(88,598,l),
(80,599,l)
);
},
{
closed = 1;
nodes = (
(207,718,o),
(212,723,o),
(212,729,cs),
(212,735,o),
(207,740,o),
(201,740,cs),
(195,740,o),
(190,735,o),
(190,729,c),
(190,723,o),
(195,718,o),
(201,718,cs)
);
}
);
vertWidth = 0;
width = 355;
}
);
unicode = 73;
},
{
glyphname = J;
kernRight = H_right;
layers = (
{
layerId = m01;
shapes = (
{
closed = 1;
nodes = (
(272,-7,o),
(333,64,o),
(351,243,cs),
(402,739,ls),
(405,764,o),
(399,785,o),
(369,785,cs),
(341,785,o),
(331,767,o),
(329,746,cs),
(278,245,ls),
(264,108,o),
(223,63,o),
(148,63,cs),
(101,63,o),
(75,89,o),
(51,119,cs),
(36,139,o),
(12,144,o),
(-4,127,cs),
(-22,110,o),
(-18,88,o),
(-5,72,cs),
(31,27,o),
(81,-7,o),
(148,-7,cs)
);
},
{
closed = 1;
nodes = (
(86,8,o),
(41,39,o),
(7,82,cs),
(-3,94,o),
(-5,105,o),
(6,117,cs),
(16,127,o),
(28,124,o),
(39,109,cs),
(63,79,o),
(95,48,o),
(148,48,cs),
(230,48,o),
(278,101,o),
(292,243,cs),
(343,744,ls),
(345,762,o),
(350,770,o),
(369,770,cs),
(388,770,o),
(390,761,o),
(388,741,cs),
(337,245,ls),
(319,71,o),
(265,8,o),
(148,8,cs)
);
},
{
closed = 1;
nodes = (
(271,565,l),
(289,613,l),
(280,614,l),
(291,742,l),
(282,743,l),
(270,615,l),
(261,616,l)
);
},
{
closed = 1;
nodes = (
(371,729,o),
(376,734,o),
(376,740,cs),
(376,746,o),
(371,751,o),
(365,751,cs),
(359,751,o),
(354,746,o),
(354,740,cs),
(354,734,o),
(359,729,o),
(365,729,cs)
);
}
);
vertWidth = 0;
width = 452;
},
{
layerId = m002;
shapes = (
{
closed = 1;
nodes = (
(292.4,-12.4,o),
(383,59,o),
(401.6,228.4,cs),
(453.6,708.4,ls),
(460,764,o),
(424.4,779.6,o),
(392,779.6,cs),
(355.2,779.6,o),
(326,762,o),
(321.6,724,cs),
(272.4,258.8,ls),
(259,131,o),
(229.6,108.4,o),
(169.2,108.4,cs),
(135.6,108.4,o),
(105.6,145.2,o),
(87.2,163.2,cs),
(61.2,189.6,o),
(9.6,184.8,o),
(-11.2,156.4,cs),
(-31.2,128.4,o),
(-25.6,90,o),
(-6.4,70,cs),
(14.4,47.2,o),
(63.6,-12.4,o),
(173.2,-12.4,cs)
);
},
{
closed = 1;
nodes = (
(70.4,2.4,o),
(25.6,56.8,o),
(4.4,80,cs),
(-10.8,96.4,o),
(-15.2,125.2,o),
(1.2,147.6,cs),
(17.2,170,o),
(56,173.2,o),
(76.8,152.8,cs),
(94.4,134.8,o),
(128.4,93.6,o),
(169.2,93.6,cs),
(235.6,93.6,o),
(273,122,o),
(287.6,257.2,cs),
(336.4,722,ls),
(340,752,o),
(360,764.4,o),
(392,764.4,cs),
(420.4,764.4,o),
(443,754,o),
(438.4,709.6,cs),
(386.4,229.6,ls),
(369,68,o),
(286.4,2.4,o),
(173.2,2.4,cs)
);
},
{
closed = 1;
nodes = (
(274,548,l),
(294,595,l),
(285,596,l),
(299,725,l),
(286,726,l),
(272,598,l),
(264,599,l)
);
},
{
closed = 1;
nodes = (
(391,718,o),
(396,723,o),
(396,729,cs),
(396,735,o),
(391,740,o),
(385,740,cs),
(379,740,o),
(374,735,o),
(374,729,c),
(374,723,o),
(379,718,o),
(385,718,cs)
);
}
);
vertWidth = 0;
width = 495;
},
{
associatedMasterId = m01;
layerId = "9959F246-042E-4193-B1B9-CF1C12FB95A6";
name = background;
shapes = (
{
closed = 1;
nodes = (
(340,244,ls),
(334,187,o),
(323,125,o),
(287,90,cs),
(266,68,o),
(232,55,o),
(191,55,cs),
(160,55,o),
(132,76,o),
(109,105,cs),
(94,125,o),
(69,134,o),
(56,122,cs),
(38,107,o),
(44,91,o),
(67,65,cs),
(96,31,o),
(139,0,o),
(195,0,cs),
(255,0,o),
(298,15,o),
(328,44,cs),
(372,86,o),
(390,156,o),
(399,244,cs),
(450,740,ls),
(453,762,o),
(448,777,o),
(424,777,cs),
(400,777,o),
(393,764,o),
(391,745,cs)
);
}
);
vertWidth = 0;
width = 594;
},
{
associatedMasterId = m002;
layerId = "134A83CF-652C-4B20-B6C4-B0C20135E8F6";
name = background;
shapes = (
{
closed = 1;
nodes = (
(333,328,ls),
(324,253,o),
(326,181,o),
(291,145,cs),
(271,122,o),
(233,112,o),
(208,112,cs),
(165,112,o),
(135,140,o),
(124,151,cs),
(100,173,o),
(56,175,o),
(34,141,cs),
(23,125,o),
(27,93,o),
(44,75,cs),
(65,52,o),
(112,-5,o),
(219,-5,cs),
(284,-5,o),
(343,24,o),
(386,70,cs),
(440,127,o),
(438,219,o),
(449,318,cs),
(491,709,ls),
(495,759,o),
(467,772,o),
(437,772,cs),
(403,772,o),
(378,757,o),
(374,723,cs)
);
}
);
vertWidth = 0;
width = 594;
}
);
unicode = 74;
},
{
glyphname = K;
kernLeft = H_left;
layers = (
{
layerId = m01;
shapes = (
{
closed = 1;
nodes = (
(127,-8,o),
(129,20,o),
(131,36,cs),
(169,378,l),
(453,18,ls),
(463,6,o),
(478,-8,o),
(496,-8,cs),
(511,-8,o),
(527,2,o),
(529,19,c),
(532,29,o),
(529,41,o),
(519,54,cs),
(245,412,l),
(583,708,ls),
(597,720,o),
(605,732,o),
(607,745,cs),
(608,763,o),
(595,780,o),
(575,780,cs),
(563,781,o),
(548,776,o),
(533,763,cs),
(178,461,l),
(207,734,ls),
(210,758,o),
(203,780,o),
(174,780,cs),
(146,780,o),
(135,762,o),
(133,741,cs),
(57,39,ls),
(55,18,o),
(67,-8,o),
(95,-8,cs)
);
},
{
closed = 1;
nodes = (
(78,8,o),
(71,21,o),
(73,37,cs),
(147,739,ls),
(149,756,o),
(155,764,o),
(174,764,cs),
(191,764,o),
(193,756,o),
(191,736,cs),
(158,424,l),
(159,425,o),
(160,425,o),
(161,426,cs),
(543,751,ls),
(556,762,o),
(565,765,o),
(575,764,cs),
(586,764,o),
(593,758,o),
(593,747,cs),
(593,738,o),
(585,729,o),
(573,718,cs),
(230,419,ls),
(227,416,o),
(226,412,o),
(229,408,cs),
(507,46,ls),
(515,35,o),
(516,29,o),
(515,21,cs),
(513,12,o),
(506,8,o),
(496,8,cs),
(484,8,o),
(474,16,o),
(465,28,cs),
(160,418,ls),
(159,419,o),
(159,419,o),
(158,420,c),
(117,38,ls),
(115,22,o),
(113,8,o),
(95,8,cs)
);
},
{
closed = 1;
nodes = (
(77,565,l),
(95,613,l),
(86,614,l),
(97,742,l),
(88,743,l),
(76,615,l),
(67,616,l)
);
},
{
closed = 1;
nodes = (
(177,729,o),
(182,734,o),
(182,740,cs),
(182,746,o),
(177,751,o),
(171,751,cs),
(165,751,o),
(160,746,o),
(160,740,cs),
(160,734,o),
(165,729,o),
(171,729,cs)
);
}
);
vertWidth = 0;
width = 589;
},
{
layerId = m002;
shapes = (
{
closed = 1;
nodes = (
(160.8,-7.6,o),
(179.2,19.6,o),
(183.6,52,cs),
(213.6,334.4,l),
(450,25.6,ls),
(465.2,4.8,o),
(490.8,-7.6,o),
(516,-7.6,cs),
(541.2,-7.6,o),
(571.6,6.4,o),
(576.4,36,cs),
(578.4,52,o),
(576.4,73.6,o),
(562,92.4,cs),
(322.4,402.8,l),
(620,662.4,ls),
(636.4,676.8,o),
(651.2,694,o),
(652.4,714.8,cs),
(653.6,746.4,o),
(628.8,779.6,o),
(589.2,779.6,cs),
(568.4,779.6,o),
(550,771.6,o),
(531.2,755.6,cs),
(230.4,489.6,l),
(253.6,708.4,ls),
(259.2,761.2,o),
(222.8,779.6,o),
(191.2,779.6,cs),
(157.2,779.6,o),
(125.2,762.4,o),
(120.4,724,cs),
(49.6,64.8,ls),
(45.2,25.2,o),
(76.8,-7.6,o),
(119.2,-7.6,cs)
);
},
{
closed = 1;
nodes = (
(84,7.6,o),
(60.8,31.6,o),
(64.4,63.2,cs),
(135.6,722,ls),
(138.8,752.4,o),
(162,764.4,o),
(191.2,764.4,cs),
(218,764.4,o),
(242.8,751.6,o),
(238.4,709.6,cs),
(213.2,466,ls),
(212.4,459.2,o),
(216.8,456.8,o),
(222,461.6,cs),
(540.8,744.4,ls),
(558,758.4,o),
(571.6,764.4,o),
(589.2,764.4,cs),
(620.4,764.4,o),
(638.4,740.4,o),
(637.6,715.2,cs),
(636.8,700,o),
(625.6,687.2,o),
(610,673.6,cs),
(307.2,410,ls),
(303.6,406.8,o),
(303.2,403.2,o),
(306,399.6,cs),
(550,83.6,ls),
(561.6,68,o),
(563.6,52,o),
(561.6,38,cs),
(558.4,17.2,o),
(537.2,7.6,o),
(516,7.6,cs),
(494.8,7.6,o),
(474.8,16.8,o),
(462,34.4,cs),
(210.4,362.8,ls),
(206.4,368.4,o),
(201.6,367.2,o),
(200.8,360.4,cs),
(168.4,54,ls),
(164.8,25.6,o),
(152,7.6,o),
(119.2,7.6,cs)
);
},
{
closed = 1;
nodes = (
(65,548,l),
(85,595,l),
(76,596,l),
(90,725,l),
(77,726,l),
(63,598,l),
(55,599,l)
);
},
{
closed = 1;
nodes = (
(182,718,o),
(187,723,o),
(187,729,cs),
(187,735,o),
(182,740,o),
(176,740,cs),
(170,740,o),
(165,735,o),
(165,729,c),
(165,723,o),
(170,718,o),
(176,718,cs)
);
}
);
vertWidth = 0;
width = 627;
}
);
unicode = 75;
},
{
glyphname = L;
kernLeft = H_left;
layers = (
{
layerId = m01;
shapes = (
{
closed = 1;
nodes = (
(451,-7,ls),
(478,-7,o),
(490,12,o),
(490,31,cs),
(490,52,o),
(475,67,o),
(450,67,cs),
(134,67,l),
(205,734,ls),
(208,758,o),
(204,780,o),
(173,780,cs),
(144,780,o),
(134,762,o),
(132,741,cs),
(57,33,ls),
(53,11,o),
(67,-7,o),
(94,-7,cs)
);
},
{
closed = 1;
nodes = (
(76,8,o),
(69,16,o),
(71,31,cs),
(146,739,ls),
(148,757,o),
(153,765,o),
(173,765,cs),
(191,765,o),
(192,757,o),
(191,736,cs),
(119,59,ls),
(118,54,o),
(121,52,o),
(126,52,cs),
(450,52,ls),
(468,52,o),
(475,45,o),
(475,31,cs),
(475,17,o),
(469,8,o),
(451,8,cs),
(94,8,ls)
);
},
{
closed = 1;
nodes = (
(77,565,l),
(95,613,l),
(86,614,l),
(97,742,l),
(88,743,l),
(76,615,l),
(67,616,l)
);
},
{
closed = 1;
nodes = (
(177,729,o),
(182,734,o),
(182,740,cs),
(182,746,o),
(177,751,o),
(171,751,cs),
(165,751,o),
(160,746,o),
(160,740,cs),
(160,734,o),
(165,729,o),
(171,729,cs)
);
}
);
vertWidth = 0;
width = 521;
},
{
layerId = m002;
shapes = (
{
closed = 1;
nodes = (
(484,-7.6,ls),
(523.6,-7.6,o),
(546.4,22.8,o),
(546.4,55.2,cs),
(546.4,87.2,o),
(516,115.6,o),
(476,115.6,cs),
(190.4,115.6,l),
(252.4,708.4,ls),
(256.8,764.4,o),
(222.4,779.6,o),
(190,779.6,cs),
(153.2,779.6,o),
(124,762.4,o),
(119.6,724,cs),
(49.6,58.8,ls),
(45.2,22,o),
(67.2,-7.6,o),
(108,-7.6,cs)
);
},
{
closed = 1;
nodes = (
(75.6,7.6,o),
(60.8,27.2,o),
(64.4,57.2,cs),
(134.4,722,ls),
(138,752.4,o),
(158,764.4,o),
(190,764.4,cs),
(218.4,764.4,o),
(241.2,754.4,o),
(237.6,709.6,cs),
(174.4,108.4,ls),
(174,103.2,o),
(176.4,100.4,o),
(181.6,100.4,cs),
(476,100.4,ls),
(509.2,100.4,o),
(531.6,79.6,o),
(531.6,55.2,cs),
(531.6,28.4,o),
(515.2,7.6,o),
(484,7.6,cs),
(108,7.6,ls)
);
},
{
closed = 1;
nodes = (
(65,548,l),
(85,595,l),
(76,596,l),
(90,725,l),
(77,726,l),
(63,598,l),
(55,599,l)
);
},
{
closed = 1;
nodes = (
(182,718,o),
(187,723,o),
(187,729,cs),
(187,735,o),
(182,740,o),
(176,740,cs),
(170,740,o),
(165,735,o),
(165,729,c),
(165,723,o),
(170,718,o),
(176,718,cs)
);
}
);
vertWidth = 0;
width = 570;
}
);
unicode = 76;
},
{
glyphname = M;
kernLeft = H_left;
kernRight = H_right;
layers = (
{
layerId = m01;
shapes = (
{
closed = 1;
nodes = (
(130,-7,o),
(132,18,o),
(133,32,cs),
(193,591,l),
(407,20,ls),
(412,6,o),
(425,-7,o),
(446,-7,cs),
(467,-7,o),
(473,7,o),
(479,17,cs),
(817,581,l),
(760,33,ls),
(757,16,o),
(767,-7,o),
(795,-7,cs),
(827,-7,o),
(832,17,o),
(833,29,cs),
(908,734,ls),
(911,759,o),
(904,780,o),
(877,780,cs),
(854,780,o),
(847,771,o),
(839,757,cs),
(451,112,l),
(215,743,ls),
(208,766,o),
(198,780,o),
(176,780,cs),
(154,780,o),
(137,767,o),
(135,741,cs),
(60,33,ls),
(56,11,o),
(70,-7,o),
(97,-7,cs)
);
},
{
closed = 1;
nodes = (
(79,8,o),
(72,16,o),
(74,31,cs),
(149,739,ls),
(151,758,o),
(160,765,o),
(176,765,cs),
(190,765,o),
(194,759,o),
(201,739,cs),
(443,89,ls),
(446,83,o),
(450,83,o),
(454,88,cs),
(851,749,ls),
(859,762,o),
(862,765,o),
(877,765,cs),
(893,765,o),
(895,756,o),
(894,736,cs),
(819,31,ls),
(818,19,o),
(815,8,o),
(795,8,cs),
(778,8,o),
(773,19,o),
(774,31,cs),
(835,607,ls),
(835,611,o),
(834,614,o),
(829,615,cs),
(828,616,ls),
(824,617,o),
(820,616,o),
(818,612,cs),
(467,25,ls),
(459,13,o),
(457,8,o),
(446,8,cs),
(432,8,o),
(425,15,o),
(421,26,cs),
(198,619,ls),
(197,624,o),
(194,625,o),
(189,625,cs),
(184,625,o),
(181,621,o),
(181,617,cs),
(119,34,ls),
(118,20,o),
(116,8,o),
(97,8,cs)
);
},
{
closed = 1;
nodes = (
(80,565,l),
(98,613,l),
(89,614,l),
(100,742,l),
(91,743,l),
(79,615,l),
(70,616,l)
);
},
{
closed = 1;
nodes = (
(180,729,o),
(185,734,o),
(185,740,cs),
(185,746,o),
(180,751,o),
(174,751,cs),
(168,751,o),
(163,746,o),
(163,740,cs),
(163,734,o),
(168,729,o),
(174,729,cs)
);
}
);
vertWidth = 0;
width = 970;
},
{
layerId = m002;
shapes = (
{
closed = 1;
nodes = (
(156.8,-7.6,o),
(183.2,18.8,o),
(185.6,49.2,cs),
(229.2,469.6,l),
(384.8,52.4,ls),
(400,9.2,o),
(428.4,-7.6,o),
(474,-7.6,cs),
(521.2,-7.6,o),
(539.2,21.2,o),
(555.6,47.2,cs),
(796,460,l),
(752.4,53.6,ls),
(749.2,19.2,o),
(778,-7.6,o),
(820,-7.6,cs),
(864.4,-7.6,o),
(884.4,19.6,o),
(886.4,47.2,cs),
(955.6,708.4,ls),
(960,750,o),
(937.6,779.6,o),
(893.2,779.6,cs),
(850.4,779.6,o),
(830.8,768,o),
(810.4,732.8,cs),
(476.4,162.4,l),
(267.2,731.6,ls),
(254.8,766,o),
(227.2,779.6,o),
(189.2,779.6,cs),
(147.6,779.6,o),
(125.2,760.8,o),
(120.4,724,cs),
(51.6,58.8,ls),
(48,21.2,o),
(76,-7.6,o),
(114,-7.6,cs)
);
},
{
closed = 1;
nodes = (
(83.2,7.6,o),
(63.6,27.6,o),
(66.4,57.2,cs),
(135.6,722,ls),
(139.2,752,o),
(153.6,764.4,o),
(189.2,764.4,cs),
(223.2,764.4,o),
(242.8,754.8,o),
(252.8,726.4,cs),
(469.6,138.8,ls),
(471.6,132.8,o),
(476.4,132.4,o),
(479.6,138,cs),
(823.6,725.2,ls),
(841.6,756.4,o),
(855.2,764.4,o),
(893.2,764.4,cs),
(929.2,764.4,o),
(944.4,744.8,o),
(940.4,709.6,cs),
(871.6,48.8,ls),
(869.6,25.6,o),
(856.4,7.6,o),
(820,7.6,cs),
(784.8,7.6,o),
(764.8,26,o),
(767.6,52.4,cs),
(813.6,486.4,ls),
(814,490.8,o),
(812.4,494,o),
(808,495.2,cs),
(806.8,495.6,ls),
(802.4,496.8,o),
(799.2,495.6,o),
(797.2,491.6,cs),
(542.4,54.8,ls),
(526.8,28.8,o),
(512.8,7.6,o),
(474,7.6,cs),
(433.2,7.6,o),
(412,20,o),
(399.2,57.6,cs),
(234.4,498.4,ls),
(232.8,502.8,o),
(229.6,504.4,o),
(224.4,503.6,c),
(219.6,503.2,o),
(217.2,500.8,o),
(216.8,496,cs),
(170.4,50.8,ls),
(168.8,26.4,o),
(150,7.6,o),
(114,7.6,cs)
);
},
{
closed = 1;
nodes = (
(65,548,l),
(85,595,l),
(76,596,l),
(90,725,l),
(77,726,l),
(63,598,l),
(55,599,l)
);
},
{
closed = 1;
nodes = (
(182,718,o),
(187,723,o),
(187,729,cs),
(187,735,o),
(182,740,o),
(176,740,cs),
(170,740,o),
(165,735,o),
(165,729,c),
(165,723,o),
(170,718,o),
(176,718,cs)
);
}
);
vertWidth = 0;
width = 1010;
}
);
unicode = 77;
},
{
glyphname = N;
kernLeft = H_left;
kernRight = H_right;
layers = (
{
layerId = m01;
shapes = (
{
closed = 1;
nodes = (
(129,-7,o),
(131,18,o),
(132,32,cs),
(197,640,l),
(538,17,ls),
(546,3,o),
(559,-7,o),
(578,-7,cs),
(605,-7,o),
(610,9,o),
(612,29,cs),
(687,734,ls),
(690,758,o),
(684,780,o),
(655,780,cs),
(626,780,o),
(616,762,o),
(614,741,cs),
(550,149,l),
(219,751,ls),
(211,767,o),
(199,780,o),
(174,780,cs),
(144,780,o),
(136,762,o),
(134,741,cs),
(59,33,ls),
(55,11,o),
(69,-7,o),
(96,-7,cs)
);
},
{
closed = 1;
nodes = (
(78,8,o),
(71,16,o),
(73,31,cs),
(148,739,ls),
(150,757,o),
(154,765,o),
(174,765,cs),
(192,765,o),
(199,758,o),
(205,745,cs),
(545,127,ls),
(548,123,o),
(551,122,o),
(555,122,cs),
(556,123,ls),
(561,124,o),
(563,126,o),
(563,130,cs),
(628,739,ls),
(630,757,o),
(635,765,o),
(655,765,cs),
(672,765,o),
(674,756,o),
(673,736,cs),
(598,31,ls),
(596,13,o),
(594,8,o),
(578,8,cs),
(565,8,o),
(558,13,o),
(552,25,cs),
(202,663,ls),
(200,667,o),
(197,668,o),
(192,667,cs),
(191,667,ls),
(187,666,o),
(184,664,o),
(184,659,cs),
(118,34,ls),
(117,20,o),
(115,8,o),
(96,8,cs)
);
},
{
closed = 1;
nodes = (
(79,565,l),
(97,613,l),
(88,614,l),
(99,742,l),
(90,743,l),
(78,615,l),
(69,616,l)
);
},
{
closed = 1;
nodes = (
(179,729,o),
(184,734,o),
(184,740,cs),
(184,746,o),
(179,751,o),
(173,751,cs),
(167,751,o),
(162,746,o),
(162,740,cs),
(162,734,o),
(167,729,o),
(173,729,cs)
);
}
);
vertWidth = 0;
width = 751;
},
{
layerId = m002;
shapes = (
{
closed = 1;
nodes = (
(156,-7.6,o),
(182.4,18.8,o),
(184.4,49.2,cs),
(234,520.4,l),
(505.6,29.2,ls),
(518.4,6.4,o),
(539.2,-7.6,o),
(571.2,-7.6,cs),
(617.2,-7.6,o),
(630.4,20.4,o),
(632.4,47.2,cs),
(701.6,708.4,ls),
(704.8,750,o),
(682,783.6,o),
(638,783.6,cs),
(601.6,783.6,o),
(573.2,762,o),
(568.4,724,cs),
(521.2,268.4,l),
(258.4,741.6,ls),
(243.2,769.2,o),
(218,779.6,o),
(189.2,779.6,cs),
(147.6,779.6,o),
(124,760.8,o),
(119.6,724,cs),
(50.4,58.8,ls),
(47.2,21.2,o),
(73.6,-7.6,o),
(113.2,-7.6,cs)
);
},
{
closed = 1;
nodes = (
(81.2,7.6,o),
(62.8,27.6,o),
(65.6,57.2,cs),
(134.4,722,ls),
(138,752,o),
(153.6,764.4,o),
(189.2,764.4,cs),
(214.4,764.4,o),
(232.8,757.2,o),
(245.6,734.4,cs),
(516.4,246,ls),
(518.4,242.4,o),
(521.6,240.8,o),
(526,241.6,cs),
(527.2,242,ls),
(531.6,242.8,o),
(534,245.2,o),
(534.4,249.6,cs),
(583.6,722,ls),
(587.2,752.8,o),
(607.6,768.4,o),
(638,768.4,cs),
(673.2,768.4,o),
(689.2,744.8,o),
(686.4,709.6,cs),
(617.6,48.8,ls),
(615.6,24.8,o),
(607.2,7.6,o),
(571.2,7.6,cs),
(544.4,7.6,o),
(529.6,17.2,o),
(518.4,36.8,cs),
(238.8,543.2,ls),
(236.8,546.8,o),
(233.6,548.4,o),
(229.2,547.2,cs),
(228,547.2,ls),
(223.6,546,o),
(221.2,543.6,o),
(220.8,539.2,cs),
(169.6,50.8,ls),
(167.6,26.4,o),
(148.8,7.6,o),
(113.2,7.6,cs)
);
},
{
closed = 1;
nodes = (
(65,548,l),
(85,595,l),
(76,596,l),
(90,725,l),
(77,726,l),
(63,598,l),
(55,599,l)
);
},
{
closed = 1;
nodes = (
(182,718,o),
(187,723,o),
(187,729,cs),
(187,735,o),
(182,740,o),
(176,740,cs),
(170,740,o),
(165,735,o),
(165,729,c),
(165,723,o),
(170,718,o),
(176,718,cs)
);
}
);
vertWidth = 0;
width = 757;
}
);
unicode = 78;
},
{
glyphname = O;
kernLeft = O_left;
kernRight = O_right;
layers = (
{
layerId = m01;
shapes = (
{
closed = 1;
nodes = (
(406,-12,o),
(530,290,o),
(553,516,cs),
(569,654,o),
(492,780,o),
(343,780,cs),
(148,780,o),
(64,540,o),
(64,327,cs),
(64,151,o),
(102,-12,o),
(209,-12,cs)
);
},
{
closed = 1;
nodes = (
(115,3,o),
(79,154,o),
(79,327,cs),
(79,537,o),
(159,765,o),
(343,765,cs),
(483,765,o),
(553,649,o),
(539,518,cs),
(516,295,o),
(395,3,o),
(209,3,cs)
);
},
{
closed = 1;
nodes = (
(368,43,o),
(475,332,o),
(493,504,cs),
(507,633,o),
(457,726,o),
(337,726,cs),
(187,726,o),
(128,513,o),
(123,328,cs),
(118,181,o),
(147,43,o),
(204,43,cs)
);
},
{
closed = 1;
nodes = (
(161,58,o),
(134,183,o),
(137,328,cs),
(142,510,o),
(199,711,o),
(337,711,cs),
(448,711,o),
(491,628,o),
(479,506,cs),
(461,337,o),
(357,58,o),
(204,58,cs)
);
},
{
closed = 1;
nodes = (
(385,820,l),
(422,786,l),
(425,795,l),
(445,786,o),
(463,776,o),
(477,765,cs),
(498,752,o),
(515,738,o),
(532,721,c),
(539,729,l),
(522,746,o),
(502,762,o),
(484,774,cs),
(468,785,o),
(450,793,o),
(432,802,c),
(436,811,l)
);
},
{
closed = 1;
nodes = (
(493,659,o),
(498,664,o),
(498,670,cs),
(498,676,o),
(493,681,o),
(487,681,cs),
(481,681,o),
(476,676,o),
(476,670,cs),
(476,664,o),
(481,659,o),
(487,659,cs)
);
}
);
vertWidth = 0;
width = 606;
},
{
layerId = m002;
shapes = (
{
closed = 1;
nodes = (
(411.2,-12.4,o),
(580,248.4,o),
(606.4,509.2,cs),
(620.8,654,o),
(526.8,782.4,o),
(355.2,782.4,cs),
(179.2,782.4,o),
(56.4,622.4,o),
(56.4,326,cs),
(56.4,141.6,o),
(90.4,-12.4,o),
(239.2,-12.4,cs)
);
},
{
closed = 1;
nodes = (
(103.2,2.4,o),
(71.6,144,o),
(71.6,326,cs),
(71.6,616.4,o),
(187.6,767.6,o),
(355.2,767.6,cs),
(518.4,767.6,o),
(605.2,648.8,o),
(591.6,510.8,cs),
(565.6,254.4,o),
(402,2.4,o),
(239.2,2.4,cs)
);
},
{
closed = 1;
nodes = (
(337.2,94.4,o),
(469.2,331.6,o),
(486.4,506.4,cs),
(495.6,604.4,o),
(460.8,675.6,o),
(358,675.6,cs),
(241.2,675.6,o),
(175.6,522.4,o),
(175.6,328,cs),
(175.6,220.8,o),
(182,94.4,o),
(251.2,94.4,cs)
);
},
{
closed = 1;
nodes = (
(197.2,109.6,o),
(190.4,222.4,o),
(190.4,328,cs),
(190.4,518.4,o),
(252,660.4,o),
(358,660.4,cs),
(450.4,660.4,o),
(480.4,600.4,o),
(471.6,507.6,cs),
(454.8,336.4,o),
(326.8,109.6,o),
(251.2,109.6,cs)
);
},
{
closed = 1;
nodes = (
(501,805,l),
(523,760,l),
(530,765,l),
(545,752,o),
(558,736,o),
(573,720,cs),
(585,705,o),
(598,686,o),
(603,665,c),
(615,670,l),
(609,692,o),
(597,712,o),
(582,731,cs),
(570,744,o),
(554,761,o),
(539,775,c),
(546,783,l)
);
},
{
closed = 1;
nodes = (
(546,617,o),
(551,622,o),
(551,628,cs),
(551,634,o),
(546,639,o),
(540,639,cs),
(534,639,o),
(529,634,o),
(529,628,cs),
(529,622,o),
(534,617,o),
(540,617,cs)
);
}
);
vertWidth = 0;
width = 651;
},
{
associatedMasterId = m01;
layerId = "20C156BE-152D-4B18-BA16-9023BA2DA609";
name = background;
shapes = (
{
closed = 1;
nodes = (
(399,-5,o),
(522,293,o),
(545,517,cs),
(560,651,o),
(486,772,o),
(334,772,cs),
(188,772,o),
(125,662,o),
(87,486,cs),
(77,438,o),
(70,383,o),
(70,330,cs),
(67,170,o),
(105,-5,o),
(208,-5,cs)
);
},
{
closed = 1;
nodes = (
(147,50,o),
(129,211,o),
(129,318,cs),
(131,368,o),
(134,422,o),
(143,461,cs),
(176,625,o),
(226,718,o),
(329,718,cs),
(473,718,o),
(495,607,o),
(485,505,cs),
(465,312,o),
(347,50,o),
(203,50,cs)
);
}
);
vertWidth = 0;
width = 594;
},
{
associatedMasterId = m002;
layerId = "FECD28BB-41F6-409F-998E-C3EA8BC308B1";
name = background;
shapes = (
{
closed = 1;
nodes = (
(434,-5,o),
(582,287,o),
(605,510,cs),
(619,651,o),
(513,775,o),
(361,775,cs),
(209,775,o),
(125,659,o),
(87,487,cs),
(77,440,o),
(70,386,o),
(70,336,cs),
(68,178,o),
(89,-5,o),
(232,-5,cs)
);
},
{
closed = 1;
nodes = (
(194,102,o),
(188,222,o),
(189,320,cs),
(189,366,o),
(194,413,o),
(201,449,cs),
(232,600,o),
(272,668,o),
(364,668,cs),
(487,668,o),
(492,575,o),
(485,507,cs),
(466,334,o),
(335,102,o),
(244,102,cs)
);
}
);
vertWidth = 0;
width = 594;
}
);
unicode = 79;
},
{
glyphname = P;
kernLeft = H_left;
layers = (
{
layerId = m01;
shapes = (
{
closed = 1;
nodes = (
(128,-12,o),
(130,17,o),
(131,29,cs),
(165,342,l),
(380,346,o),
(553,400,o),
(568,560,cs),
(584,709,o),
(423,793,o),
(174,779,c),
(145,780,o),
(135,763,o),
(133,741,cs),
(58,33,l),
(54,12,o),
(68,-12,o),
(95,-12,cs)
);
},
{
closed = 1;
nodes = (
(77,3,o),
(70,15,o),
(72,31,cs),
(147,739,ls),
(149,757,o),
(154,765,o),
(174,765,cs),
(418,777,o),
(568,700,o),
(554,562,cs),
(539,411,o),
(374,360,o),
(158,356,cs),
(154,356,o),
(151,354,o),
(150,349,cs),
(117,31,ls),
(116,19,o),
(114,3,o),
(95,3,cs)
);
},
{
closed = 1;
nodes = (
(358,398,o),
(497,441,o),
(509,566,cs),
(520,664,o),
(404,734,o),
(198,727,cs),
(193,727,o),
(190,724,o),
(190,719,cs),
(156,403,ls),
(156,398,o),
(159,395,o),
(164,395,cs)
);
},
{
closed = 1;
nodes = (
(204,712,l),
(401,717,o),
(504,653,o),
(495,568,cs),
(483,454,o),
(359,415,o),
(172,411,c)
);
},
{
closed = 1;
nodes = (
(78,565,l),
(96,613,l),
(87,614,l),
(98,742,l),
(89,743,l),
(77,615,l),
(68,616,l)
);
},
{
closed = 1;
nodes = (
(178,729,o),
(183,734,o),
(183,740,cs),
(183,746,o),
(178,751,o),
(172,751,cs),
(166,751,o),
(161,746,o),
(161,740,cs),
(161,734,o),
(166,729,o),
(172,729,cs)
);
}
);
vertWidth = 0;
width = 569;
},
{
layerId = m002;
shapes = (
{
closed = 1;
nodes = (
(162,-14.4,o),
(180,16.8,o),
(183.6,45.2,cs),
(210.8,310.8,l),
(379.2,318.4,o),
(569.2,356.8,o),
(589.6,554,cs),
(608,720.8,o),
(434.4,786.4,o),
(182,782.4,cs),
(147.2,782.4,o),
(124,761.6,o),
(119.6,724,cs),
(49.6,58,ls),
(45.2,22,o),
(72.4,-14.4,o),
(116,-14.4,cs)
);
},
{
closed = 1;
nodes = (
(80.8,0.4,o),
(60.8,27.2,o),
(64.4,56,cs),
(134.4,722,ls),
(138,753.2,o),
(154,767.6,o),
(182,767.6,cs),
(430.8,771.6,o),
(592,710,o),
(574.4,556,cs),
(555.2,367.6,o),
(372.8,332.4,o),
(204.4,325.6,cs),
(199.6,325.2,o),
(196.8,322.8,o),
(196.4,318.4,cs),
(168.4,46.8,ls),
(165.6,22.4,o),
(152.8,0.4,o),
(116,0.4,cs)
);
},
{
closed = 1;
nodes = (
(334.4,426.4,o),
(458.8,460.4,o),
(470.4,560,cs),
(479.2,634.4,o),
(420.8,671.2,o),
(242,673.6,cs),
(236.8,673.6,o),
(234,671.2,o),
(233.6,666.4,cs),
(208.4,426,ls),
(208,421.2,o),
(210.8,418,o),
(216,418.4,cs)
);
},
{
closed = 1;
nodes = (
(247.6,658.4,l),
(415.2,655.6,o),
(462.8,625.2,o),
(455.6,562,cs),
(445.6,475.2,o),
(337.6,443.2,o),
(224.4,434,c)
);
},
{
closed = 1;
nodes = (
(65,548,l),
(85,595,l),
(76,596,l),
(90,725,l),
(77,726,l),
(63,598,l),
(55,599,l)
);
},
{
closed = 1;
nodes = (
(182,718,o),
(187,723,o),
(187,729,cs),
(187,735,o),
(182,740,o),
(176,740,cs),
(170,740,o),
(165,735,o),
(165,729,c),
(165,723,o),
(170,718,o),
(176,718,cs)
);
}
);
vertWidth = 0;
width = 583;
},
{
associatedMasterId = m01;
layerId = "02DD8EBC-8F3A-4034-A466-F24C24D63358";
name = background;
shapes = (
{
closed = 1;
nodes = (
(329,361,o),
(512,381,o),
(531,565,cs),
(545,709,o),
(383,772,o),
(150,772,c),
(153,718,l),
(368,718,o),
(482,666,o),
(472,571,cs),
(457,436,o),
(301,416,o),
(129,416,c),
(125,361,l)
);
},
{
closed = 1;
nodes = (
(172,757,o),
(170,772,o),
(145,772,cs),
(119,772,o),
(113,759,o),
(110,740,cs),
(36,32,ls),
(33,14,o),
(44,-5,o),
(65,-5,cs),
(91,-5,o),
(94,18,o),
(95,30,cs),
(170,735,ls)
);
}
);
vertWidth = 0;
width = 594;
}
);
unicode = 80;
},
{
glyphname = Q;
kernLeft = O_left;
kernRight = O_right;
layers = (
{
layerId = m01;
shapes = (
{
closed = 1;
nodes = (
(248,-12,o),
(286,1,o),
(319,24,c),
(393,-45,ls),
(411,-63,o),
(439,-70,o),
(454,-55,cs),
(471,-40,o),
(465,-11,o),
(446,6,cs),
(376,73,l),
(473,179,o),
(538,365,o),
(553,516,cs),
(569,654,o),
(492,780,o),
(343,780,cs),
(148,780,o),
(64,540,o),
(64,327,cs),
(64,151,o),
(102,-12,o),
(209,-12,cs)
);
},
{
closed = 1;
nodes = (
(115,3,o),
(79,154,o),
(79,327,cs),
(79,537,o),
(159,765,o),
(343,765,cs),
(483,765,o),
(553,649,o),
(539,518,cs),
(522,365,o),
(457,181,o),
(359,78,cs),
(356,75,o),
(356,71,o),
(360,68,cs),
(436,-4,ls),
(451,-18,o),
(454,-35,o),
(444,-43,cs),
(435,-53,o),
(418,-49,o),
(403,-35,cs),
(326,39,ls),
(322,43,o),
(319,43,o),
(315,40,cs),
(282,16,o),
(247,2,o),
(209,3,cs)
);
},
{
closed = 1;
nodes = (
(234,42,o),
(261,51,o),
(286,65,cs),
(291,68,o),
(291,71,o),
(287,76,cs),
(242,118,ls),
(224,136,o),
(220,149,o),
(230,159,cs),
(239,170,o),
(257,165,o),
(275,149,cs),
(323,103,ls),
(327,99,o),
(330,99,o),
(333,103,cs),
(427,197,o),
(480,381,o),
(493,504,cs),
(507,633,o),
(457,726,o),
(337,726,cs),
(187,726,o),
(128,513,o),
(123,328,cs),
(118,181,o),
(147,43,o),
(204,43,cs)
);
},
{
closed = 1;
nodes = (
(161,58,o),
(134,183,o),
(137,328,cs),
(142,510,o),
(199,711,o),
(337,711,cs),
(448,711,o),
(491,628,o),
(479,506,cs),
(466,387,o),
(415,212,o),
(328,119,c),
(285,159,ls),
(264,180,o),
(234,188,o),
(218,169,cs),
(203,152,o),
(210,129,o),
(232,108,cs),
(268,73,l),
(248,63,o),
(227,58,o),
(204,58,cs)
);
},
{
closed = 1;
nodes = (
(385,820,l),
(422,786,l),
(425,795,l),
(445,786,o),
(463,776,o),
(477,765,cs),
(498,752,o),
(515,738,o),
(532,721,c),
(539,729,l),
(522,746,o),
(502,762,o),
(484,774,cs),
(468,785,o),
(450,793,o),
(432,802,c),
(436,811,l)
);
},
{
closed = 1;
nodes = (
(493,659,o),
(498,664,o),
(498,670,cs),
(498,676,o),
(493,681,o),
(487,681,cs),
(481,681,o),
(476,676,o),
(476,670,cs),
(476,664,o),
(481,659,o),
(487,659,cs)
);
}
);
vertWidth = 0;
width = 606;
},
{
layerId = m002;
shapes = (
{
closed = 1;
nodes = (
(274.4,-12.4,o),
(310.8,-0.8,o),
(344.8,18.8,c),
(408,-41.6,ls),
(438,-71,o),
(483.2,-80,o),
(508.8,-50,cs),
(532,-22,o),
(531,14,o),
(502.4,41.2,cs),
(439.2,101.6,l),
(526,201.6,o),
(590.8,356,o),
(606.4,509.2,cs),
(620.8,654.4,o),
(511.6,782.4,o),
(355.2,782.4,cs),
(179.2,782.4,o),
(56.4,622.4,o),
(56.4,326,cs),
(56.4,141.6,o),
(90.4,-12.4,o),
(239.2,-12.4,cs)
);
},
{
closed = 1;
nodes = (
(103.2,2.4,o),
(71.6,144,o),
(71.6,326,cs),
(71.6,616.4,o),
(187.6,767.6,o),
(355.2,767.6,cs),
(503.6,767.6,o),
(605.2,648.4,o),
(591.6,510.8,cs),
(575.6,356.8,o),
(510.4,204,o),
(423.2,106.4,cs),
(420,102.8,o),
(420,99,o),
(423.6,95.6,cs),
(491.6,30.8,ls),
(515,8,o),
(516.4,-17.6,o),
(497.2,-40,cs),
(478.4,-62.8,o),
(445,-56,o),
(418,-30.4,cs),
(352,32.8,ls),
(349,36,o),
(345.2,36.4,o),
(341.6,34,cs),
(307.6,13.6,o),
(273.6,2.4,o),
(239.2,2.4,cs)
);
},
{
closed = 1;
nodes = (
(238,96,o),
(244,94,o),
(251.2,94.4,cs),
(270,94,o),
(278,105,o),
(264,117.6,cs),
(257,124,ls),
(235,145,o),
(238,168,o),
(253.6,186.4,cs),
(271.6,208.4,o),
(301,207,o),
(332,182,cs),
(344.4,172,ls),
(349,169,o),
(351.6,168.8,o),
(354.8,172.8,cs),
(416.4,256.8,o),
(475.6,393.6,o),
(486.4,506.4,cs),
(495.6,604,o),
(468.8,675.6,o),
(358,675.6,cs),
(241.2,675.6,o),
(175.6,522.4,o),
(175.6,328,cs),
(176,232,o),
(181,120,o),
(232,98,cs)
);
},
{
closed = 1;
nodes = (
(196,135,o),
(190,234,o),
(190.4,328,cs),
(190.4,518.4,o),
(252,660.4,o),
(358,660.4,cs),
(458,660.4,o),
(480.4,600.8,o),
(471.6,507.6,cs),
(460.8,400.8,o),
(406.8,272.4,o),
(348,189.6,c),
(342,194,ls),
(304,222,o),
(265.2,224.4,o),
(242.4,195.6,cs),
(223,174,o),
(220,143,o),
(244,117,cs),
(250.8,109.6,l),
(247,110,o),
(243,111,o),
(239,113,cs)
);
},
{
closed = 1;
nodes = (
(501,805,l),
(523,760,l),
(530,765,l),
(545,752,o),
(558,736,o),
(573,720,cs),
(585,705,o),
(598,686,o),
(603,665,c),
(615,670,l),
(609,692,o),
(597,712,o),
(582,731,cs),
(570,744,o),
(554,761,o),
(539,775,c),
(546,783,l)
);
},
{
closed = 1;
nodes = (
(546,617,o),
(551,622,o),
(551,628,cs),
(551,634,o),
(546,639,o),
(540,639,cs),
(534,639,o),
(529,634,o),
(529,628,cs),
(529,622,o),
(534,617,o),
(540,617,cs)
);
}
);
vertWidth = 0;
width = 651;
},
{
associatedMasterId = m002;
layerId = "0DB79B60-F0F0-4AE5-8CEA-03AE86B091EC";
name = background;
shapes = (
{
closed = 1;
nodes = (
(525,-20,o),
(523,11,o),
(498,36,cs),
(340,188,l),
(307,214,o),
(270,216,o),
(249,191,cs),
(230,169,o),
(230,139,o),
(260,112,cs),
(415,-36,ls),
(443,-62,o),
(482,-71,o),
(504,-45,cs)
);
},
{
closed = 1;
nodes = (
(429,-5,o),
(577,287,o),
(600,510,cs),
(614,651,o),
(508,775,o),
(356,775,cs),
(204,775,o),
(120,659,o),
(82,487,cs),
(72,440,o),
(65,386,o),
(65,336,cs),
(63,178,o),
(84,-5,o),
(227,-5,cs)
);
},
{
closed = 1;
nodes = (
(189,102,o),
(183,222,o),
(184,320,cs),
(184,366,o),
(189,413,o),
(196,449,cs),
(227,600,o),
(267,668,o),
(359,668,cs),
(482,668,o),
(487,573,o),
(480,505,cs),
(461,331,o),
(330,102,o),
(239,102,cs)
);
}
);
vertWidth = 0;
width = 594;
}
);
unicode = 81;
},
{
glyphname = R;
kernLeft = H_left;
layers = (
{
layerId = m01;
shapes = (
{
closed = 1;
nodes = (
(127,-7,o),
(129,18,o),
(131,36,cs),
(164,346,l),
(418,18,ls),
(431,1,o),
(449,-7,o),
(461,-7,cs),
(476,-7,o),
(490,3,o),
(494,16,cs),
(497,27,o),
(494,43,o),
(479,64,cs),
(246,363,l),
(422,389,o),
(548,467,o),
(557,576,cs),
(570,726,o),
(430,792,o),
(173,779,cs),
(142,780,o),
(134,762,o),
(132,741,cs),
(58,40,ls),
(55,17,o),
(66,-7,o),
(94,-7,cs)
);
},
{
closed = 1;
nodes = (
(77,8,o),
(71,20,o),
(72,38,cs),
(146,739,ls),
(148,757,o),
(152,765,o),
(173,765,cs),
(425,776,o),
(554,715,o),
(543,578,cs),
(534,474,o),
(408,399,o),
(228,376,cs),
(222,375,o),
(221,371,o),
(224,366,cs),
(467,54,ls),
(480,37,o),
(481,27,o),
(480,20,cs),
(478,13,o),
(471,8,o),
(461,8,cs),
(453,8,o),
(441,13,o),
(430,28,cs),
(168,365,ls),
(166,368,o),
(163,370,o),
(159,370,cs),
(154,370,o),
(151,367,o),
(151,363,cs),
(117,38,ls),
(115,20,o),
(113,8,o),
(94,8,cs)
);
},
{
closed = 1;
nodes = (
(347,415,o),
(487,489,o),
(497,582,cs),
(509,680,o),
(403,736,o),
(197,726,cs),
(192,726,o),
(189,724,o),
(189,719,cs),
(157,414,ls),
(156,409,o),
(159,406,o),
(164,406,cs)
);
},
{
closed = 1;
nodes = (
(203,712,l),
(400,720,o),
(493,669,o),
(483,584,cs),
(473,501,o),
(346,432,o),
(172,422,c)
);
},
{
closed = 1;
nodes = (
(77,565,l),
(95,613,l),
(86,614,l),
(97,742,l),
(88,743,l),
(76,615,l),
(67,616,l)
);
},
{
closed = 1;
nodes = (
(177,729,o),
(182,734,o),
(182,740,cs),
(182,746,o),
(177,751,o),
(171,751,cs),
(165,751,o),
(160,746,o),
(160,740,cs),
(160,734,o),
(165,729,o),
(171,729,cs)
);
}
);
vertWidth = 0;
width = 580;
},
{
layerId = m002;
shapes = (
{
closed = 1;
nodes = (
(154,-7.6,o),
(178,16.8,o),
(183.6,62,cs),
(208.4,300,l),
(422,22.4,ls),
(443.2,-5.2,o),
(467.6,-7.6,o),
(484,-7.6,cs),
(508.4,-7.6,o),
(534.4,4.8,o),
(544.8,28,cs),
(552.4,44.4,o),
(556,70.8,o),
(542,88.4,cs),
(354.8,340.4,l),
(498,373.6,o),
(603.2,440,o),
(612.4,559.6,cs),
(626,745.2,o),
(463.6,793.6,o),
(190,779.6,c),
(150,779.6,o),
(124,762,o),
(119.6,724,cs),
(50.4,71.6,ls),
(47.2,30,o),
(63.2,-7.6,o),
(108,-7.6,cs)
);
},
{
closed = 1;
nodes = (
(74,7.6,o),
(62.8,33.2,o),
(65.6,70.4,cs),
(134.4,722,ls),
(138,752.8,o),
(155.2,764.4,o),
(190,764.4,c),
(461.2,778.4,o),
(610,733.6,o),
(597.6,560.4,cs),
(588.4,446,o),
(485.2,383.6,o),
(338.4,352,cs),
(332.8,350.8,o),
(331.2,346.8,o),
(334.4,342.4,cs),
(530,79.6,ls),
(540,66.8,o),
(537.6,48,o),
(531.2,34,cs),
(523.2,16.4,o),
(504.4,7.6,o),
(484,7.6,cs),
(468.4,7.6,o),
(450.8,9.2,o),
(434,31.6,cs),
(205.6,326.8,ls),
(203,329,o),
(201,330,o),
(199,329,cs),
(197,328,o),
(196,327,o),
(196,323.6,cs),
(168.4,64,ls),
(164,24.4,o),
(146.8,7.6,o),
(108,7.6,cs)
);
},
{
closed = 1;
nodes = (
(379.2,425.6,o),
(483.6,491.2,o),
(493.6,568,cs),
(502,654.8,o),
(443.6,686.4,o),
(241.6,679.6,cs),
(236.8,679.2,o),
(234,676.8,o),
(233.6,672.4,cs),
(206.4,419.2,ls),
(206,414,o),
(208.8,411.2,o),
(214,411.6,cs)
);
},
{
closed = 1;
nodes = (
(247.6,664.8,l),
(438.4,670.8,o),
(486,644.8,o),
(478.4,570,cs),
(470,502.8,o),
(377.2,442.8,o),
(222.4,427.2,c)
);
},
{
closed = 1;
nodes = (
(65,548,l),
(85,595,l),
(76,596,l),
(90,725,l),
(77,726,l),
(63,598,l),
(55,599,l)
);
},
{
closed = 1;
nodes = (
(182,718,o),
(187,723,o),
(187,729,cs),
(187,735,o),
(182,740,o),
(176,740,cs),
(170,740,o),
(165,735,o),
(165,729,c),
(165,723,o),
(170,718,o),
(176,718,cs)
);
}
);
vertWidth = 0;
width = 628;
},
{
associatedMasterId = m01;
layerId = "10B39192-80BD-4D86-8859-A41096DFFBAE";
name = background;
shapes = (
{
closed = 1;
nodes = (
(342,361,o),
(535,381,o),
(554,565,cs),
(568,709,o),
(400,784,o),
(151,772,c),
(154,718,l),
(375,729,o),
(505,665,o),
(494,571,cs),
(480,437,o),
(312,416,o),
(121,416,c),
(116,361,l)
);
},
{
closed = 1;
nodes = (
(115,379,l),
(436,23,ls),
(449,7,o),
(459,0,o),
(468,0,cs),
(480,0,o),
(492,8,o),
(494,18,cs),
(497,27,o),
(499,40,o),
(491,50,cs),
(195,379,l)
);
},
{
closed = 1;
nodes = (
(173,757,o),
(171,772,o),
(146,772,cs),
(120,772,o),
(114,759,o),
(112,740,cs),
(38,39,ls),
(36,19,o),
(45,0,o),
(67,0,cs),
(93,0,o),
(95,19,o),
(97,37,cs),
(171,735,ls)
);
}
);
vertWidth = 0;
width = 594;
}
);
unicode = 82;
},
{
glyphname = S;
layers = (
{
layerId = m01;
shapes = (
{
closed = 1;
nodes = (
(318,-12,o),
(423,53,o),
(437,191,cs),
(450,310,o),
(374,390,o),
(278,445,cs),
(181,500,o),
(124,544,o),
(130,607,cs),
(137,672,o),
(198,715,o),
(309,715,cs),
(366,715,o),
(400,688,o),
(414,647,cs),
(421,628,o),
(443,619,o),
(462,625,cs),
(484,632,o),
(487,656,o),
(478,680,cs),
(458,738,o),
(402,785,o),
(306,785,cs),
(150,785,o),
(69,705,o),
(59,614,cs),
(49,515,o),
(130,443,o),
(225,389,cs),
(329,330,o),
(371,278,o),
(365,202,cs),
(355,102,o),
(277,58,o),
(196,58,cs),
(123,58,o),
(84,86,o),
(74,120,cs),
(69,144,o),
(46,153,o),
(26,147,cs),
(2,141,o),
(0,116,o),
(6,95,cs),
(22,30,o),
(92,-12,o),
(177,-12,cs)
);
},
{
closed = 1;
nodes = (
(97,3,o),
(35,41,o),
(20,99,cs),
(16,117,o),
(17,129,o),
(30,133,cs),
(45,137,o),
(56,132,o),
(60,116,cs),
(71,76,o),
(118,43,o),
(196,43,cs),
(282,43,o),
(369,92,o),
(379,200,cs),
(387,283,o),
(339,342,o),
(233,403,cs),
(139,455,o),
(65,521,o),
(73,612,cs),
(83,697,o),
(157,770,o),
(306,770,cs),
(396,770,o),
(446,729,o),
(464,674,cs),
(471,655,o),
(469,643,o),
(458,639,cs),
(444,635,o),
(433,640,o),
(428,653,cs),
(412,698,o),
(372,730,o),
(309,730,cs),
(193,730,o),
(123,681,o),
(116,609,cs),
(108,537,o),
(172,488,o),
(270,431,cs),
(364,378,o),
(434,304,o),
(423,193,cs),
(409,62,o),
(313,3,o),
(177,3,cs)
);
},
{
closed = 1;
nodes = (
(346,833,l),
(382,797,l),
(385,806,l),
(405,797,o),
(422,786,o),
(436,774,cs),
(456,761,o),
(473,746,o),
(489,729,c),
(496,736,l),
(480,754,o),
(461,771,o),
(443,783,cs),
(427,795,o),
(410,803,o),
(392,813,c),
(396,822,l)
);
},
{
closed = 1;
nodes = (
(451,659,o),
(456,664,o),
(456,670,cs),
(456,676,o),
(451,681,o),
(445,681,cs),
(439,681,o),
(434,676,o),
(434,670,cs),
(434,664,o),
(439,659,o),
(445,659,cs)
);
}
);
vertWidth = 0;
width = 514;
},
{
layerId = m002;
shapes = (
{
closed = 1;
nodes = (
(352.4,-9.6,o),
(488.8,55.6,o),
(504.4,199.2,cs),
(520,342.4,o),
(426.4,419.2,o),
(344.8,467.6,cs),
(272,510.4,o),
(192,558.8,o),
(197.6,603.2,cs),
(202.8,644,o),
(246.8,664.4,o),
(317.2,664.4,cs),
(384.4,664.4,o),
(409.2,652.4,o),
(418,628.4,cs),
(432.4,589.6,o),
(468,574.8,o),
(506.4,586.8,cs),
(539.2,598.4,o),
(552,626.4,o),
(543.2,659.2,cs),
(518,748.8,o),
(456,785.6,o),
(335.2,785.6,cs),
(168,785.6,o),
(73.2,723.2,o),
(60.4,607.6,cs),
(48,488.8,o),
(183.2,406.8,o),
(260.4,362.4,cs),
(343.2,316,o),
(382.4,267.6,o),
(376.4,204.8,cs),
(370.8,149.6,o),
(314,119.6,o),
(232,119.6,cs),
(159.6,119.6,o),
(143.6,127.6,o),
(134,150,cs),
(117.2,190,o),
(72.4,202,o),
(40.8,191.2,cs),
(12,182.4,o),
(-12.4,152.4,o),
(-2.4,118.8,cs),
(18.8,34.4,o),
(97.2,-9.6,o),
(233.2,-9.6,cs)
);
},
{
closed = 1;
nodes = (
(102,5.6,o),
(31.6,44.8,o),
(12.4,123.2,c),
(4.4,148.4,o),
(21.2,169.6,o),
(45.2,176.8,cs),
(72.4,186,o),
(106.4,176.8,o),
(120,144,cs),
(132.4,115.6,o),
(155.6,104.4,o),
(232,104.4,cs),
(318.8,104.4,o),
(384.8,139.6,o),
(391.6,203.2,cs),
(397.6,272.8,o),
(353.6,327.6,o),
(267.6,375.6,cs),
(190.8,419.6,o),
(64,496.8,o),
(75.6,606.4,cs),
(87.2,713.6,o),
(173.2,770.4,o),
(335.2,770.4,cs),
(450.8,770.4,o),
(505.6,738,o),
(528.8,654.8,cs),
(536,628.8,o),
(527.6,610,o),
(501.6,601.2,cs),
(469.2,590.8,o),
(444,601.6,o),
(432,633.6,cs),
(420.8,664,o),
(388.4,679.6,o),
(317.2,679.6,cs),
(242.4,679.6,o),
(189.2,654.8,o),
(182.4,604.8,cs),
(176,550.4,o),
(263.6,498,o),
(337.2,454.4,cs),
(417.6,406.8,o),
(504,335.6,o),
(489.6,200.8,cs),
(474.8,66,o),
(348.4,5.6,o),
(233.2,5.6,cs)
);
},
{
closed = 1;
nodes = (
(473,816,l),
(492,770,l),
(500,774,l),
(514,761,o),
(526,744,o),
(540,727,cs),
(551,712,o),
(563,692,o),
(567,671,c),
(580,675,l),
(575,697,o),
(564,718,o),
(550,738,cs),
(538,751,o),
(523,769,o),
(509,784,c),
(517,792,l)
);
},
{
closed = 1;
nodes = (
(514,625,o),
(519,630,o),
(519,636,cs),
(519,642,o),
(514,647,o),
(508,647,cs),
(502,647,o),
(497,642,o),
(497,636,cs),
(497,630,o),
(502,625,o),
(508,625,cs)
);
}
);
vertWidth = 0;
width = 557;
},
{
associatedMasterId = m002;
layerId = "978B32C5-E304-42DF-BBEA-C5F78DFF1767";
name = background;
shapes = (
{
closed = 1;
nodes = (
(204,112,o),
(184,122,o),
(177,147,cs),
(168,182,o),
(127,190,o),
(102,183,cs),
(72,176,o),
(62,150,o),
(70,121,cs),
(90,40,o),
(146,0,o),
(234,0,cs),
(397,0,o),
(524,61,o),
(541,207,cs),
(554,339,o),
(453,405,o),
(375,457,cs),
(312,500,o),
(221,548,o),
(219,581,cs),
(215,626,o),
(290,666,o),
(383,666,cs),
(435,666,o),
(455,658,o),
(461,631,cs),
(469,595,o),
(514,587,o),
(539,594,cs),
(569,604,o),
(577,628,o),
(571,657,cs),
(549,744,o),
(488,778,o),
(371,778,cs),
(207,778,o),
(96,687,o),
(103,576,cs),
(112,472,o),
(234,418,o),
(302,372,cs),
(381,316,o),
(431,270,o),
(426,219,cs),
(419,145,o),
(362,112,o),
(278,112,cs)
);
}
);
vertWidth = 0;
width = 594;
}
);
unicode = 83;
},
{
glyphname = T;
layers = (
{
layerId = m01;
shapes = (
{
closed = 1;
nodes = (
(222,-7,o),
(231,19,o),
(233,39,cs),
(303,706,l),
(470,706,ls),
(500,706,o),
(507,726,o),
(507,743,cs),
(507,760,o),
(496,780,o),
(467,780,cs),
(70,780,ls),
(40,780,o),
(33,759,o),
(33,743,cs),
(33,725,o),
(45,706,o),
(74,706,cs),
(229,706,l),
(159,45,ls),
(156,18,o),
(164,-7,o),
(192,-7,cs)
);
},
{
closed = 1;
nodes = (
(176,8,o),
(171,21,o),
(173,43,cs),
(245,713,ls),
(246,718,o),
(243,720,o),
(237,720,cs),
(74,721,ls),
(54,721,o),
(48,730,o),
(48,743,cs),
(48,756,o),
(51,765,o),
(70,765,cs),
(467,765,ls),
(487,765,o),
(492,755,o),
(492,743,cs),
(492,729,o),
(489,721,o),
(470,721,cs),
(297,720,ls),
(292,720,o),
(290,718,o),
(289,713,cs),
(219,41,ls),
(217,23,o),
(211,8,o),
(192,8,cs)
);
},
{
closed = 1;
nodes = (
(201,820,l),
(72,820,l),
(72,810,l),
(201,810,l),
(201,801,l),
(250,815,l),
(201,829,l)
);
},
{
closed = 1;
nodes = (
(79,733,o),
(84,738,o),
(84,744,cs),
(84,750,o),
(79,755,o),
(73,755,cs),
(67,755,o),
(62,750,o),
(62,744,cs),
(62,738,o),
(67,733,o),
(73,733,cs)
);
}
);
vertWidth = 0;
width = 486;
},
{
layerId = m002;
shapes = (
{
closed = 1;
nodes = (
(263.6,-9.6,o),
(285,23,o),
(287.6,50.4,cs),
(351.6,661.6,l),
(494,661.6,ls),
(536,662,o),
(557.6,689.6,o),
(557.6,721.2,cs),
(557.6,756.4,o),
(526,784,o),
(486,783.6,cs),
(88,783.6,ls),
(48,784,o),
(26.8,755.6,o),
(25.6,721.2,cs),
(24.4,688.8,o),
(54,662,o),
(96,661.6,cs),
(216.8,661.6,l),
(154.4,58.8,ls),
(151,22,o),
(178.8,-9.6,o),
(220,-9.6,cs)
);
},
{
closed = 1;
nodes = (
(186.4,5.6,o),
(167,28,o),
(169.6,57.2,cs),
(232.4,668.4,ls),
(233,674,o),
(230,676,o),
(225.2,676.4,cs),
(96,676.4,ls),
(61,676,o),
(39.6,696,o),
(40.4,720.8,cs),
(41.6,749.2,o),
(56,768,o),
(88,768.4,cs),
(486,768.4,ls),
(519,768,o),
(542.4,748.4,o),
(542.4,721.2,cs),
(542.4,695.6,o),
(528,676,o),
(494,676.4,cs),
(345.6,676.4,ls),
(341,676,o),
(338,674,o),
(337.6,669.2,cs),
(272.4,51.6,ls),
(270,28,o),
(255.2,5.6,o),
(220,5.6,cs)
);
},
{
closed = 1;
nodes = (
(215,830,l),
(86,830,l),
(86,817,l),
(215,817,l),
(215,808,l),
(264,823,l),
(215,839,l)
);
},
{
closed = 1;
nodes = (
(85,725,o),
(90,730,o),
(90,736,cs),
(90,742,o),
(85,747,o),
(79,747,cs),
(73,747,o),
(68,742,o),
(68,736,cs),
(68,730,o),
(73,725,o),
(79,725,cs)
);
}
);
vertWidth = 0;
width = 529;
}
);
unicode = 84;
},
{
glyphname = U;
kernLeft = H_left;
kernRight = H_right;
layers = (
{
layerId = m01;
shapes = (
{
closed = 1;
nodes = (
(262,-12,o),
(390,113,o),
(489,325,c),
(458,33,ls),
(455,5,o),
(476,-8,o),
(495,-8,cs),
(512,-8,o),
(530,3,o),
(532,25,cs),
(608,740,ls),
(610,762,o),
(598,780,o),
(571,780,cs),
(545,780,o),
(537,761,o),
(535,745,cs),
(521,621,l),
(466,277,o),
(240,58,o),
(184,58,cs),
(136,58,o),
(143,137,o),
(152,213,cs),
(211,734,ls),
(213,756,o),
(200,780,o),
(177,780,cs),
(153,780,o),
(139,760,o),
(137,738,cs),
(78,218,ls),
(60,59,o),
(103,-12,o),
(180,-12,cs)
);
},
{
closed = 1;
nodes = (
(113,3,o),
(75,64,o),
(92,216,cs),
(151,736,ls),
(153,753,o),
(162,765,o),
(177,765,cs),
(191,765,o),
(199,751,o),
(197,736,cs),
(138,215,ls),
(129,138,o),
(119,43,o),
(184,43,cs),
(249,43,o),
(480,270,o),
(535,619,c),
(549,743,ls),
(550,756,o),
(555,765,o),
(571,765,cs),
(589,765,o),
(596,757,o),
(594,742,cs),
(518,27,ls),
(516,12,o),
(507,7,o),
(495,7,cs),
(481,7,o),
(470,14,o),
(472,31,cs),
(509,364,ls),
(510,369,o),
(507,373,o),
(503,373,cs),
(502,373,ls),
(497,373,o),
(494,373,o),
(492,368,cs),
(392,137,o),
(260,2,o),
(180,3,cs)
);
},
{
closed = 1;
nodes = (
(82,565,l),
(100,613,l),
(91,614,l),
(102,742,l),
(93,743,l),
(81,615,l),
(72,616,l)
);
},
{
closed = 1;
nodes = (
(182,729,o),
(187,734,o),
(187,740,cs),
(187,746,o),
(182,751,o),
(176,751,cs),
(170,751,o),
(165,746,o),
(165,740,cs),
(165,734,o),
(170,729,o),
(176,729,cs)
);
}
);
vertWidth = 0;
width = 670;
},
{
layerId = m002;
shapes = (
{
closed = 1;
nodes = (
(290,-12.4,o),
(380.4,85.6,o),
(468,236.8,c),
(449.6,58.8,ls),
(445,14,o),
(478.8,-7.6,o),
(516,-7.6,cs),
(547.6,-7.6,o),
(578,8,o),
(582.4,51.2,cs),
(653.6,714,ls),
(658,752,o),
(631.2,779.6,o),
(587.2,779.6,cs),
(550.8,779.6,o),
(523,759,o),
(519.6,727.6,cs),
(508.4,618.8,l),
(470,383.2,o),
(261.2,109.6,o),
(216,109.6,cs),
(196,109.6,o),
(195,149,o),
(203.6,231.2,cs),
(256.4,712,ls),
(261,751,o),
(231.2,779.6,o),
(192,779.6,cs),
(148,780.8,o),
(126,744,o),
(123.6,720.8,cs),
(68.4,232.8,ls),
(49,65,o),
(93.6,-12.4,o),
(200,-12.4,cs)
);
},
{
closed = 1;
nodes = (
(103.2,2.4,o),
(65,70,o),
(83.6,231.2,cs),
(138.4,719.2,ls),
(141,738,o),
(157.2,765.2,o),
(192,764.4,cs),
(224,764.4,o),
(245,744,o),
(241.6,714,cs),
(188.4,232.8,ls),
(179,148,o),
(180.8,94.4,o),
(216,94.4,cs),
(272,94.4,o),
(484.4,378,o),
(523.6,617.2,c),
(534.4,726.4,ls),
(537,750,o),
(556.4,764.4,o),
(587.2,764.4,cs),
(623.6,764.4,o),
(642,745,o),
(638.4,716,cs),
(567.6,52.8,ls),
(564,19,o),
(543.2,7.6,o),
(516,7.6,cs),
(484.4,7.6,o),
(461,23,o),
(464.4,57.2,cs),
(485.6,264.4,ls),
(486,269,o),
(484,272,o),
(480,273.2,cs),
(478.8,273.6,ls),
(474,275,o),
(471.2,273.6,o),
(469.2,269.6,cs),
(378.4,106,o),
(287.2,2.4,o),
(200,2.4,cs)
);
},
{
closed = 1;
nodes = (
(66,548,l),
(86,595,l),
(77,596,l),
(91,725,l),
(78,726,l),
(64,598,l),
(56,599,l)
);
},
{
closed = 1;
nodes = (
(183,718,o),
(188,723,o),
(188,729,cs),
(188,735,o),
(183,740,o),
(177,740,cs),
(171,740,o),
(166,735,o),
(166,729,c),
(166,723,o),
(171,718,o),
(177,718,cs)
);
}
);
vertWidth = 0;
width = 708;
},
{
associatedMasterId = m01;
layerId = "85A0CC84-4628-44F1-A8D5-F145C07A2F77";
name = background;
shapes = (
{
closed = 1;
nodes = (
(244,-5,o),
(373,140,o),
(465,336,c),
(492,388,l),
(525,618,l),
(513,618,l),
(510,605,l),
(495,555,o),
(437,417,o),
(422,380,cs),
(352,228,o),
(215,50,o),
(156,50,cs),
(100,50,o),
(108,138,o),
(116,214,cs),
(176,735,ls),
(178,753,o),
(166,772,o),
(149,772,cs),
(129,772,o),
(118,756,o),
(115,737,cs),
(57,217,ls),
(39,62,o),
(82,-5,o),
(152,-5,cs)
);
},
{
closed = 1;
nodes = (
(481,-1,o),
(494,8,o),
(497,26,cs),
(573,741,ls),
(575,759,o),
(564,772,o),
(543,772,cs),
(522,772,o),
(514,758,o),
(513,744,cs),
(437,32,ls),
(435,10,o),
(450,-1,o),
(467,-1,cs)
);
}
);
vertWidth = 0;
width = 594;
},
{
associatedMasterId = m002;
layerId = "C456C70A-B9F0-4BB4-8B22-984771EF7C04";
name = background;
shapes = (
{
closed = 1;
nodes = (
(299,-5,o),
(400,116,o),
(504,307,c),
(544,645,l),
(522,645,l),
(514,606,ls),
(495,503,o),
(461,432,o),
(441,400,cs),
(390,315,o),
(266,102,o),
(210,102,cs),
(188,102,o),
(185,149,o),
(194,220,cs),
(248,713,ls),
(252,747,o),
(226,772,o),
(191,772,cs),
(152,773,o),
(132,741,o),
(129,720,cs),
(75,232,ls),
(57,68,o),
(112,-5,o),
(198,-5,cs)
);
},
{
closed = 1;
nodes = (
(544,0,o),
(570,14,o),
(574,52,cs),
(645,715,ls),
(649,748,o),
(626,772,o),
(586,772,cs),
(552,772,o),
(529,754,o),
(526,727,cs),
(456,58,ls),
(453,19,o),
(481,0,o),
(514,0,cs)
);
}
);
vertWidth = 0;
width = 594;
}
);
unicode = 85;
},
{
glyphname = V;
kernLeft = V_left;
kernRight = V_right;
layers = (
{
layerId = m01;
shapes = (
{
closed = 1;
nodes = (
(272,-7,o),
(277,11,o),
(283,27,cs),
(565,731,ls),
(577,761,o),
(561,780,o),
(538,780,cs),
(511,780,o),
(499,768,o),
(490,746,cs),
(275,206,l),
(257,154,l),
(250,202,l),
(167,745,ls),
(165,758,o),
(159,780,o),
(127,780,cs),
(100,780,o),
(91,761,o),
(94,740,cs),
(202,32,ls),
(205,15,o),
(217,-7,o),
(243,-7,cs)
);
},
{
closed = 1;
nodes = (
(226,8,o),
(218,21,o),
(216,34,cs),
(108,742,ls),
(106,758,o),
(109,765,o),
(127,765,cs),
(147,765,o),
(151,754,o),
(153,743,cs),
(236,200,l),
(245,128,ls),
(246,123,o),
(248,120,o),
(252,120,cs),
(254,120,ls),
(258,120,o),
(261,122,o),
(262,126,cs),
(289,200,l),
(504,740,ls),
(512,759,o),
(518,765,o),
(538,765,cs),
(553,765,o),
(559,757,o),
(551,737,cs),
(269,33,ls),
(262,15,o),
(260,8,o),
(243,8,cs)
);
},
{
closed = 1;
nodes = (
(89,602,l),
(69,729,l),
(60,727,l),
(80,600,l),
(71,599,l),
(93,552,l),
(99,603,l)
);
},
{
closed = 1;
nodes = (
(136,731,o),
(141,736,o),
(141,742,cs),
(141,748,o),
(136,753,o),
(130,753,cs),
(124,753,o),
(119,748,o),
(119,742,cs),
(119,736,o),
(124,731,o),
(130,731,cs)
);
}
);
vertWidth = 0;
width = 554;
},
{
layerId = m002;
shapes = (
{
closed = 1;
nodes = (
(262.8,-9.6,o),
(284,14,o),
(294,37.2,cs),
(566.8,699.2,ls),
(586,746,o),
(554.8,779.6,o),
(512,779.6,cs),
(475.2,779.6,o),
(449,764,o),
(437.2,736.8,cs),
(280,363.6,l),
(254.4,290.4,l),
(245.6,362,l),
(186.4,726,ls),
(181,757,o),
(153.6,779.6,o),
(112,779.6,cs),
(73.2,779.6,o),
(47,757,o),
(53.6,716.8,cs),
(158.8,50.8,ls),
(164,19,o),
(184.4,-8.4,o),
(224.8,-9.6,cs)
);
},
{
closed = 1;
nodes = (
(192.8,6.4,o),
(177,26,o),
(173.2,53.2,cs),
(68.4,719.2,ls),
(64,750,o),
(79.6,764.4,o),
(112,764.4,cs),
(147.2,764.4,o),
(168,748,o),
(171.6,724,cs),
(230.4,360,l),
(242.8,264,ls),
(243,259,o),
(245.6,256.8,o),
(250.4,256.4,cs),
(251.2,256.4,ls),
(256,256,o),
(259,258,o),
(260.4,262,cs),
(294,358.4,l),
(450.8,731.2,ls),
(460,753,o),
(480,764.4,o),
(512,764.4,cs),
(546.8,764.4,o),
(568,741,o),
(553.2,704.8,cs),
(280,42.8,ls),
(271,22,o),
(255.6,5.6,o),
(225.2,5.6,cs)
);
},
{
closed = 1;
nodes = (
(47,594,l),
(26,721,l),
(13,719,l),
(33,591,l),
(25,589,l),
(47,544,l),
(54,595,l)
);
},
{
closed = 1;
nodes = (
(106,719,o),
(111,724,o),
(111,730,cs),
(111,736,o),
(106,741,o),
(100,741,cs),
(94,741,o),
(89,736,o),
(89,730,cs),
(89,724,o),
(94,719,o),
(100,719,cs)
);
}
);
vertWidth = 0;
width = 550;
}
);
unicode = 86;
},
{
glyphname = W;
kernLeft = V_left;
kernRight = V_right;
layers = (
{
layerId = m01;
shapes = (
{
closed = 1;
nodes = (
(271,-7,o),
(279,16,o),
(283,29,c),
(502,586,l),
(517,635,l),
(523,583,l),
(606,29,ls),
(608,12,o),
(620,-7,o),
(645,-7,cs),
(672,-7,o),
(679,10,o),
(686,27,cs),
(969,731,ls),
(982,762,o),
(961,780,o),
(939,780,cs),
(913,780,o),
(905,769,o),
(894,746,cs),
(688,226,l),
(657,133,l),
(648,229,l),
(571,745,ls),
(569,759,o),
(563,780,o),
(528,780,cs),
(505,780,o),
(492,761,o),
(487,747,cs),
(285,228,l),
(255,137,l),
(244,226,l),
(167,745,ls),
(165,758,o),
(159,780,o),
(127,780,cs),
(100,780,o),
(90,761,o),
(94,740,cs),
(202,32,ls),
(204,10,o),
(221,-7,o),
(242,-7,cs)
);
},
{
closed = 1;
nodes = (
(228,8,o),
(218,17,o),
(216,34,cs),
(108,742,ls),
(106,758,o),
(109,765,o),
(127,765,cs),
(147,765,o),
(151,754,o),
(153,743,cs),
(230,224,l),
(243,109,ls),
(243,104,o),
(246,102,o),
(250,101,cs),
(252,101,ls),
(256,101,o),
(259,103,o),
(260,107,cs),
(299,222,l),
(501,741,ls),
(506,754,o),
(513,765,o),
(528,765,cs),
(552,765,o),
(555,755,o),
(557,743,cs),
(634,227,l),
(645,103,ls),
(645,99,o),
(648,96,o),
(652,96,cs),
(653,96,ls),
(658,95,o),
(661,97,o),
(662,101,cs),
(702,220,l),
(908,740,l),
(917,761,o),
(920,765,o),
(939,765,cs),
(953,765,o),
(964,757,o),
(955,737,cs),
(672,33,ls),
(665,16,o),
(662,8,o),
(645,8,cs),
(629,8,o),
(622,18,o),
(620,31,cs),
(537,585,l),
(528,667,ls),
(528,672,o),
(525,674,o),
(521,675,c),
(520,675,l),
(515,675,o),
(512,673,o),
(511,669,cs),
(488,590,l),
(269,33,l),
(265,20,o),
(261,8,o),
(242,8,cs)
);
},
{
closed = 1;
nodes = (
(89,602,l),
(69,729,l),
(60,727,l),
(80,600,l),
(71,599,l),
(93,552,l),
(99,603,l)
);
},
{
closed = 1;
nodes = (
(136,731,o),
(141,736,o),
(141,742,cs),
(141,748,o),
(136,753,o),
(130,753,cs),
(124,753,o),
(119,748,o),
(119,742,cs),
(119,736,o),
(124,731,o),
(130,731,cs)
);
}
);
vertWidth = 0;
width = 959;
},
{
layerId = m002;
shapes = (
{
closed = 1;
nodes = (
(268.8,-7.6,o),
(298.8,11.2,o),
(314,48.4,cs),
(480,486.4,l),
(489.2,514,l),
(491.6,488,l),
(559.6,36.8,ls),
(563.2,13.2,o),
(588.4,-7.6,o),
(627.2,-7.6,cs),
(667.6,-7.6,o),
(686,8.8,o),
(696.8,36,cs),
(968.8,699.2,ls),
(982.8,733.2,o),
(961.2,779.6,o),
(911.2,779.6,cs),
(869.2,779.6,o),
(846.8,752.4,o),
(839.2,734.8,cs),
(678,330.8,l),
(652,261.2,l),
(644.4,328.8,l),
(587.6,726,ls),
(581.6,758.8,o),
(554.4,779.6,o),
(510,779.6,cs),
(468,779.6,o),
(447.6,757.6,o),
(436.8,729.6,cs),
(284,331.6,l),
(252.4,245.6,l),
(241.6,334,l),
(186.4,726,ls),
(183.2,756.8,o),
(154.4,779.6,o),
(113.2,779.6,cs),
(74.4,779.6,o),
(46.8,757.2,o),
(53.6,716.8,cs),
(154.4,50.8,ls),
(159.2,13.2,o),
(186.8,-7.6,o),
(229.2,-7.6,cs)
);
},
{
closed = 1;
nodes = (
(192.4,7.6,o),
(173.2,22,o),
(169.6,53.2,cs),
(68.4,719.2,ls),
(63.2,750,o),
(80.8,764.4,o),
(113.2,764.4,cs),
(148.4,764.4,o),
(168.8,748,o),
(171.6,724,cs),
(226.4,332,l),
(240.8,220,ls),
(241.2,215.2,o),
(243.6,212.8,o),
(248.4,212.4,cs),
(249.2,212.4,ls),
(254,212,o),
(256.8,213.6,o),
(258.4,218,cs),
(298,326.4,l),
(451.2,724.4,ls),
(460.4,748.8,o),
(475.2,764.4,o),
(510,764.4,cs),
(548.4,764.4,o),
(568,749.6,o),
(572.4,724,cs),
(629.6,327.2,l),
(639.6,234.8,ls),
(640,230.4,o),
(642.8,227.6,o),
(647.2,227.2,cs),
(648.4,227.2,ls),
(653.2,226.8,o),
(656,228.4,o),
(657.6,232.8,cs),
(692,325.2,l),
(852.8,729.2,ls),
(859.6,744,o),
(876.4,764.4,o),
(911.2,764.4,cs),
(951.2,764.4,o),
(966,730.8,o),
(955.2,704.8,cs),
(683.2,42,ls),
(673.6,18.4,o),
(661.2,7.6,o),
(627.2,7.6,cs),
(594.8,7.6,o),
(576.8,22,o),
(574.4,39.2,cs),
(506.4,490,l),
(501.2,544,ls),
(500.8,548.4,o),
(498,551.2,o),
(493.6,551.6,cs),
(492.8,551.6,ls),
(488.4,552,o),
(485.2,550.4,o),
(484,546,cs),
(466,491.6,l),
(300,53.6,ls),
(286.8,22,o),
(264,7.6,o),
(229.2,7.6,cs)
);
},
{
closed = 1;
nodes = (
(47,594,l),
(26,721,l),
(13,719,l),
(33,591,l),
(25,589,l),
(47,544,l),
(54,595,l)
);
},
{
closed = 1;
nodes = (
(106,719,o),
(111,724,o),
(111,730,cs),
(111,736,o),
(106,741,o),
(100,741,cs),
(94,741,o),
(89,736,o),
(89,730,cs),
(89,724,o),
(94,719,o),
(100,719,cs)
);
}
);
vertWidth = 0;
width = 952;
}
);
unicode = 87;
},
{
glyphname = X;
layers = (
{
layerId = m01;
shapes = (
{
closed = 1;
nodes = (
(470,5,o),
(481,23,o),
(471,45,cs),
(321,380,l),
(542,719,ls),
(555,740,o),
(552,762,o),
(537,772,cs),
(522,784,o),
(494,783,o),
(480,761,cs),
(284,461,l),
(154,753,ls),
(143,779,o),
(113,785,o),
(97,778,c),
(78,771,o),
(73,751,o),
(84,726,cs),
(233,394,l),
(7,49,ls),
(-5,31,o),
(0,11,o),
(14,1,c),
(30,-12,o),
(56,-10,o),
(70,11,cs),
(270,313,l),
(400,21,ls),
(412,-6,o),
(438,-12,o),
(458,-3,cs)
);
},
{
closed = 1;
nodes = (
(437,4,o),
(423,7,o),
(414,27,cs),
(277,335,ls),
(275,340,o),
(270,341,o),
(266,335,cs),
(58,19,ls),
(49,5,o),
(34,4,o),
(24,13,cs),
(14,20,o),
(11,29,o),
(19,41,cs),
(247,388,ls),
(249,391,o),
(250,394,o),
(248,398,cs),
(98,732,ls),
(89,752,o),
(92,760,o),
(103,764,cs),
(114,769,o),
(132,765,o),
(140,747,cs),
(277,439,ls),
(280,433,o),
(284,433,o),
(287,438,cs),
(492,753,ls),
(502,768,o),
(518,768,o),
(529,760,cs),
(537,754,o),
(540,742,o),
(530,727,cs),
(307,386,ls),
(305,383,o),
(304,380,o),
(306,376,cs),
(457,39,ls),
(464,24,o),
(459,16,o),
(450,11,cs)
);
},
{
closed = 1;
nodes = (
(97,598,l),
(49,717,l),
(41,713,l),
(89,594,l),
(81,591,l),
(113,550,l),
(107,601,l)
);
},
{
closed = 1;
nodes = (
(123,731,o),
(128,736,o),
(128,742,cs),
(128,748,o),
(123,753,o),
(117,753,cs),
(111,753,o),
(106,748,o),
(106,742,cs),
(106,736,o),
(111,731,o),
(117,731,cs)
);
}
);
vertWidth = 0;
width = 525;
},
{
layerId = m002;
shapes = (
{
closed = 1;
nodes = (
(500.4,15.2,o),
(513,43,o),
(498,75.2,cs),
(359.6,383.2,l),
(562.4,682.8,ls),
(584,714,o),
(574,744,o),
(548.8,764.8,cs),
(524,786,o),
(470,788,o),
(448.8,754,cs),
(299.2,518,l),
(198.8,743.2,ls),
(182,781,o),
(134.8,784.8,o),
(106.4,776,cs),
(71.6,762.8,o),
(57,734,o),
(75.2,692.8,cs),
(210.4,390.8,l),
(3.6,86.4,ls),
(-16,58,o),
(-9.6,30.4,o),
(15.2,9.2,cs),
(41.6,-12,o),
(95,-18,o),
(116.4,15.2,cs),
(270,256.4,l),
(371.2,30,ls),
(389,-9,o),
(443.6,-15.2,o),
(473.6,0.4,cs)
);
},
{
closed = 1;
nodes = (
(441.6,0.8,o),
(398,6,o),
(384.8,36,cs),
(276.4,277.6,ls),
(274,283,o),
(269,284,o),
(266,278.4,cs),
(103.6,22.8,ls),
(88,-1,o),
(47.2,3.2,o),
(24.8,20.8,cs),
(4.8,38,o),
(1,55,o),
(16.4,77.6,cs),
(224.4,384.4,ls),
(227,388,o),
(227,391,o),
(225.2,394.4,cs),
(88.8,699.2,ls),
(74,733,o),
(83.2,751.2,o),
(111.6,762,cs),
(135.6,769.2,o),
(172,766,o),
(185.2,736.8,cs),
(292.4,496,ls),
(295,490,o),
(299,490,o),
(302.8,495.2,cs),
(461.2,746,ls),
(478,772,o),
(519.2,770.4,o),
(539.2,753.2,cs),
(560.4,735.6,o),
(567,716,o),
(549.6,691.2,cs),
(345.6,389.6,ls),
(343,386,o),
(343,383,o),
(344.8,379.6,cs),
(484,68.8,ls),
(496,43,o),
(488,25.2,o),
(466.4,13.6,cs)
);
},
{
closed = 1;
nodes = (
(89,563,l),
(40,682,l),
(28,677,l),
(76,556,l),
(69,553,l),
(101,514,l),
(96,565,l)
);
},
{
closed = 1;
nodes = (
(118,715,o),
(123,720,o),
(123,726,cs),
(123,732,o),
(118,737,o),
(112,737,cs),
(106,737,o),
(101,732,o),
(101,726,cs),
(101,720,o),
(106,715,o),
(112,715,cs)
);
}
);
vertWidth = 0;
width = 542;
}
);
unicode = 88;
},
{
glyphname = Y;
layers = (
{
layerId = m01;
shapes = (
{
closed = 1;
nodes = (
(148,-12,o),
(175,-12,o),
(188,10,cs),
(605,719,ls),
(618,741,o),
(612,764,o),
(590,776,cs),
(573,784,o),
(554,779,o),
(542,758,cs),
(331,398,l),
(169,751,ls),
(162,767,o),
(146,790,o),
(117,779,cs),
(92,770,o),
(89,747,o),
(99,725,cs),
(285,319,l),
(126,49,ls),
(116,32,o),
(117,11,o),
(132,1,c)
);
},
{
closed = 1;
nodes = (
(132,19,o),
(131,29,o),
(138,41,cs),
(299,313,ls),
(301,317,o),
(301,320,o),
(299,324,cs),
(113,731,ls),
(105,748,o),
(107,759,o),
(123,765,cs),
(140,772,o),
(149,759,o),
(155,745,cs),
(325,376,ls),
(328,370,o),
(332,370,o),
(335,375,cs),
(554,750,ls),
(564,766,o),
(572,768,o),
(584,762,cs),
(599,754,o),
(602,742,o),
(593,727,cs),
(176,18,ls),
(168,4,o),
(153,4,o),
(142,13,cs)
);
},
{
closed = 1;
nodes = (
(118,595,l),
(68,713,l),
(59,709,l),
(109,590,l),
(101,588,l),
(134,547,l),
(127,598,l)
);
},
{
closed = 1;
nodes = (
(139,731,o),
(144,736,o),
(144,742,cs),
(144,748,o),
(139,753,o),
(133,753,cs),
(127,753,o),
(122,748,o),
(122,742,cs),
(122,736,o),
(127,731,o),
(133,731,cs)
);
}
);
vertWidth = 0;
width = 599;
},
{
layerId = m002;
shapes = (
{
closed = 1;
nodes = (
(124.4,-16.4,o),
(179,-10,o),
(198.4,22.4,cs),
(593.6,683.2,ls),
(613,715,o),
(602.4,752.4,o),
(567.6,772.4,cs),
(539.6,787.2,o),
(495,780,o),
(474.4,744.8,cs),
(306,465.2,l),
(182.8,740,ls),
(169,770,o),
(132.4,789.6,o),
(91.6,774,c),
(49.2,761.6,o),
(44,721,o),
(58.4,690,cs),
(227.6,333.6,l),
(82.4,92.8,ls),
(66,65,o),
(72.4,26.4,o),
(97.2,5.2,cs)
);
},
{
closed = 1;
nodes = (
(86.8,34,o),
(82,62,o),
(95.6,85.2,cs),
(241.2,327.6,ls),
(243,331,o),
(244,334,o),
(242,337.6,cs),
(71.6,696,ls),
(59,722,o),
(63.6,750,o),
(96.4,760,cs),
(130.4,772.8,o),
(158,758,o),
(169.2,734,cs),
(299.6,442.8,ls),
(302,437,o),
(306,437,o),
(309.6,442.4,cs),
(487.6,737.2,ls),
(505,765,o),
(538,771.2,o),
(560.4,759.6,cs),
(588.4,743.2,o),
(596,716,o),
(580.4,690.8,cs),
(185.6,29.6,ls),
(171,5,o),
(128.4,0,o),
(106.8,16.8,cs)
);
},
{
closed = 1;
nodes = (
(82,568,l),
(31,686,l),
(19,681,l),
(69,562,l),
(62,558,l),
(94,519,l),
(89,571,l)
);
},
{
closed = 1;
nodes = (
(106,719,o),
(111,724,o),
(111,730,cs),
(111,736,o),
(106,741,o),
(100,741,cs),
(94,741,o),
(89,736,o),
(89,730,cs),
(89,724,o),
(94,719,o),
(100,719,cs)
);
}
);
vertWidth = 0;
width = 582;
},
{
associatedMasterId = m01;
layerId = "97930EFF-4ECB-41E8-9E11-FCC2E8932513";
name = background;
shapes = (
{
closed = 1;
nodes = (
(304,403,l),
(151,748,ls),
(145,763,o),
(127,778,o),
(105,770,cs),
(84,763,o),
(87,747,o),
(95,728,cs),
(270,334,l)
);
},
{
closed = 1;
nodes = (
(489,741,o),
(488,758,o),
(478,766,cs),
(465,776,o),
(438,772,o),
(430,754,cs),
(109,45,ls),
(103,31,o),
(102,15,o),
(114,7,cs),
(127,-4,o),
(152,-5,o),
(160,13,cs),
(481,723,ls)
);
}
);
vertWidth = 0;
width = 539;
}
);
unicode = 89;
},
{
glyphname = Z;
layers = (
{
layerId = m01;
shapes = (
{
closed = 1;
nodes = (
(428,-7,ls),
(458,-7,o),
(466,13,o),
(464,31,cs),
(463,47,o),
(453,67,o),
(425,67,cs),
(96,67,l),
(532,719,l),
(552,752,o),
(528,780,o),
(502,780,cs),
(104,780,ls),
(74,780,o),
(65,759,o),
(67,742,cs),
(68,725,o),
(79,706,o),
(107,706,cs),
(438,706,l),
(-1,50,ls),
(-19,24,o),
(-2,-7,o),
(31,-7,cs)
);
},
{
closed = 1;
nodes = (
(9,8,o),
(0,25,o),
(11,42,cs),
(460,711,ls),
(464,716,o),
(461,720,o),
(455,720,cs),
(107,721,ls),
(88,721,o),
(82,730,o),
(81,744,cs),
(81,756,o),
(85,765,o),
(104,765,cs),
(502,765,ls),
(520,765,o),
(533,749,o),
(520,727,c),
(74,61,ls),
(70,56,o),
(73,52,o),
(79,52,cs),
(425,52,ls),
(444,52,o),
(449,42,o),
(450,29,cs),
(450,16,o),
(447,8,o),
(428,8,cs),
(31,8,ls)
);
},
{
closed = 1;
nodes = (
(236,820,l),
(107,820,l),
(107,810,l),
(236,810,l),
(236,801,l),
(285,815,l),
(236,829,l)
);
},
{
closed = 1;
nodes = (
(114,733,o),
(119,738,o),
(119,744,cs),
(119,750,o),
(114,755,o),
(108,755,cs),
(102,755,o),
(97,750,o),
(97,744,cs),
(97,738,o),
(102,733,o),
(108,733,cs)
);
}
);
vertWidth = 0;
width = 525;
},
{
layerId = m002;
shapes = (
{
closed = 1;
nodes = (
(432,-7.6,ls),
(474,-8,o),
(495.6,19.6,o),
(495.6,51.2,cs),
(495.6,87.2,o),
(469,114,o),
(429.2,114.4,cs),
(167.2,114.4,l),
(555.2,680.8,ls),
(583,722,o),
(563,784,o),
(505.2,783.6,cs),
(119.2,783.6,ls),
(78,784,o),
(54.4,755.6,o),
(56.4,720.8,cs),
(57.6,688.8,o),
(85,662,o),
(127.2,661.6,cs),
(386,661.6,l),
(-5.2,87.2,ls),
(-31,50,o),
(-8,-8,o),
(51.2,-7.6,cs)
);
},
{
closed = 1;
nodes = (
(4,8,o),
(-13,49,o),
(7.2,78.8,cs),
(408,667.2,ls),
(411,672,o),
(409,676,o),
(402.8,676.4,cs),
(127.2,676.4,ls),
(92,676,o),
(72.4,696.4,o),
(71.6,721.2,cs),
(69.6,749.2,o),
(86,768,o),
(119.2,768.4,cs),
(505.2,768.4,ls),
(550,768,o),
(566,723,o),
(542.8,689.2,cs),
(145.2,108.8,ls),
(142,104,o),
(144,100,o),
(150,99.6,cs),
(429.2,99.6,ls),
(462,100,o),
(480.4,80,o),
(480.4,51.2,cs),
(480.4,25.6,o),
(466,8,o),
(432,7.6,cs),
(51.2,7.6,ls)
);
},
{
closed = 1;
nodes = (
(244,830,l),
(115,830,l),
(115,817,l),
(244,817,l),
(244,808,l),
(293,823,l),
(244,839,l)
);
},
{
closed = 1;
nodes = (
(114,725,o),
(119,730,o),
(119,736,cs),
(119,742,o),
(114,747,o),
(108,747,cs),
(102,747,o),
(97,742,o),
(97,736,cs),
(97,730,o),
(102,725,o),
(108,725,cs)
);
}
);
vertWidth = 0;
width = 546;
}
);
unicode = 90;
},
{
glyphname = A.ss01;
layers = (
{
layerId = m01;
shapes = (
{
closed = 1;
nodes = (
(471,-5,o),
(479,17,o),
(475,41,cs),
(367,744,ls),
(364,763,o),
(356,780,o),
(329,780,cs),
(305,780,o),
(295,766,o),
(286,747,cs),
(-26,51,ls),
(-40,20,o),
(-32,-1,o),
(-9,-7,cs),
(15,-14,o),
(32,5,o),
(41,26,cs),
(197,384,l),
(351,384,l),
(401,32,ls),
(404,11,o),
(413,-10,o),
(444,-7,cs)
);
},
{
closed = 1;
nodes = (
(423,6,o),
(418,16,o),
(415,34,cs),
(365,391,ls),
(365,396,o),
(362,398,o),
(357,398,cs),
(193,398,ls),
(189,398,o),
(186,397,o),
(185,393,cs),
(27,32,ls),
(20,14,o),
(10,3,o),
(-5,7,cs),
(-19,11,o),
(-23,21,o),
(-12,45,cs),
(300,741,ls),
(307,758,o),
(313,765,o),
(329,765,cs),
(346,765,o),
(350,758,o),
(353,742,cs),
(461,39,ls),
(463,20,o),
(460,9,o),
(442,7,cs)
);
},
{
closed = 1;
nodes = (
(314,651,l),
(342,450,l),
(226,450,l)
);
},
{
closed = 1;
nodes = (
(352,434,ls),
(357,434,o),
(359,437,o),
(358,442,cs),
(327,673,ls),
(326,677,o),
(323,679,o),
(318,680,cs),
(313,681,o),
(310,679,o),
(309,675,cs),
(206,443,ls),
(204,438,o),
(206,434,o),
(212,434,cs)
);
}
);
vertWidth = 0;
width = 519;
},
{
layerId = m002;
shapes = (
{
closed = 1;
nodes = (
(503.6,-1.6,o),
(520.8,28.4,o),
(514.4,73.2,cs),
(411.2,736.4,ls),
(405.6,764.4,o),
(383.2,779.6,o),
(347.2,779.6,cs),
(306,779.6,o),
(292.8,763.2,o),
(280,735.2,cs),
(-14,81.2,ls),
(-32,42.8,o),
(-12.4,7.6,o),
(18.4,-5.2,cs),
(49.6,-16,o),
(91.2,-2.8,o),
(108,36,cs),
(212.8,285.6,l),
(360.4,285.6,l),
(389.6,57.2,ls),
(396,9.2,o),
(422.8,-14,o),
(466,-7.6,cs)
);
},
{
closed = 1;
nodes = (
(428.4,2,o),
(410,18,o),
(404.4,58.8,cs),
(374.4,293.6,ls),
(374,298,o),
(371.2,300.4,o),
(366.4,300.4,cs),
(209.6,300.4,ls),
(205.2,300.4,o),
(202.4,298.4,o),
(200.8,294.8,cs),
(94,42,ls),
(80.4,10,o),
(49.2,0,o),
(23.6,9.2,cs),
(-0.8,18.8,o),
(-14.4,44.4,o),
(0,74.8,cs),
(294,728.8,ls),
(305.6,754.8,o),
(313.6,764.4,o),
(347.2,764.4,cs),
(377.6,764.4,o),
(392.4,754.4,o),
(396.8,733.6,cs),
(499.6,70.8,ls),
(505.2,32.4,o),
(493.2,12,o),
(464,7.6,cs)
);
},
{
closed = 1;
nodes = (
(326,556,l),
(346.4,395.6,l),
(259.2,395.6,l)
);
},
{
closed = 1;
nodes = (
(355.6,380.4,ls),
(360.8,380.4,o),
(363.2,383.2,o),
(362.4,388.4,cs),
(338.4,579.6,ls),
(338,584,o),
(335.6,586.4,o),
(329.6,587.2,cs),
(325.2,587.6,o),
(322.4,586,o),
(320.8,582,cs),
(240.4,389.2,ls),
(238.4,384,o),
(240.4,380.4,o),
(246.4,380.4,cs)
);
}
);
vertWidth = 0;
width = 573;
},
{
associatedMasterId = m01;
layerId = "CC05ECD8-6904-4D4D-92AC-3DF3C05EEB87";
name = background;
shapes = (
{
closed = 1;
nodes = (
(349,743,ls),
(354,756,o),
(343,772,o),
(321,772,cs),
(295,772,o),
(293,759,o),
(286,743,cs),
(-31,38,ls),
(-42,14,o),
(-26,0,o),
(-8,0,cs),
(15,0,o),
(21,8,o),
(30,30,cs),
(348,735,l)
);
},
{
closed = 1;
nodes = (
(366,388,l),
(356,442,l),
(200,442,l),
(177,388,l)
);
},
{
closed = 1;
nodes = (
(305,669,l),
(405,23,ls),
(406,11,o),
(411,0,o),
(437,0,c),
(459,0,o),
(465,13,o),
(462,31,cs),
(350,754,l)
);
},
{
closed = 1;
nodes = (
(349,743,ls),
(354,756,o),
(343,772,o),
(321,772,cs),
(295,772,o),
(293,759,o),
(286,743,cs),
(-31,38,ls),
(-42,14,o),
(-26,0,o),
(-8,0,cs),
(15,0,o),
(21,8,o),
(30,30,cs),
(348,735,l)
);
},
{
closed = 1;
nodes = (
(366,388,l),
(356,442,l),
(200,442,l),
(177,388,l)
);
},
{
closed = 1;
nodes = (
(305,669,l),
(405,23,ls),
(406,11,o),
(411,0,o),
(437,0,c),
(459,0,o),
(465,13,o),
(462,31,cs),
(350,754,l)
);
}
);
vertWidth = 0;
width = 594;
},
{
associatedMasterId = m002;
layerId = "11FF2575-6263-44BF-95EA-B853E43D43A6";
name = background;
shapes = (
{
closed = 1;
nodes = (
(426,718,l),
(430,748,o),
(404,772,o),
(367,772,cs),
(327,772,o),
(318,756,o),
(309,732,c),
(14,78,ls),
(-1,44,o),
(15,13,o),
(43,2,cs),
(70,-8,o),
(108,4,o),
(122,39,cs),
(350,584,l)
);
},
{
closed = 1;
nodes = (
(390,347,l),
(373,442,l),
(274,442,l),
(234,347,l)
);
},
{
closed = 1;
nodes = (
(343,601,l),
(418,58,ls),
(424,14,o),
(448,-6,o),
(486,0,cs),
(519,5,o),
(535,31,o),
(529,72,cs),
(425,735,l)
);
}
);
vertWidth = 0;
width = 594;
}
);
},
{
glyphname = B.ss01;
kernLeft = H_left;
layers = (
{
layerId = m01;
shapes = (
{
closed = 1;
nodes = (
(346,-7,o),
(522,76,o),
(537,215,cs),
(547,309,o),
(493,376,o),
(387,409,c),
(506,446,o),
(529,508,o),
(537,574,cs),
(554,711,o),
(412,792,o),
(151,779,cs),
(127,778,o),
(112,767,o),
(110,741,cs),
(37,38,ls),
(35,14,o),
(50,-7,o),
(72,-7,cs)
);
},
{
closed = 1;
nodes = (
(340,52,o),
(467,122,o),
(477,224,cs),
(489,331,o),
(359,395,o),
(139,380,cs),
(135,380,o),
(132,378,o),
(131,373,cs),
(97,55,ls),
(96,50,o),
(100,47,o),
(105,47,cs)
);
},
{
closed = 1;
nodes = (
(146,366,l),
(358,378,o),
(473,320,o),
(463,226,cs),
(453,134,o),
(338,69,o),
(113,63,c)
);
},
{
closed = 1;
nodes = (
(59,8,o),
(49,19,o),
(51,36,cs),
(124,739,ls),
(127,758,o),
(134,764,o),
(151,765,cs),
(407,776,o),
(538,702,o),
(523,576,cs),
(514,509,o),
(492,452,o),
(364,418,cs),
(359,417,o),
(357,414,o),
(357,408,cs),
(357,404,o),
(360,401,o),
(364,400,cs),
(477,371,o),
(532,309,o),
(523,217,cs),
(508,87,o),
(341,8,o),
(72,8,cs)
);
},
{
closed = 1;
nodes = (
(249,418,o),
(459,430,o),
(477,579,cs),
(488,662,o),
(391,732,o),
(176,727,cs),
(171,726,o),
(167,724,o),
(167,719,cs),
(137,425,ls),
(136,420,o),
(138,418,o),
(143,418,cs)
);
},
{
closed = 1;
nodes = (
(182,712,l),
(386,716,o),
(472,653,o),
(463,581,cs),
(454,510,o),
(373,432,o),
(152,433,c)
);
}
);
vertWidth = 0;
width = 589;
},
{
layerId = m002;
shapes = (
{
closed = 1;
nodes = (
(398.8,-7.6,o),
(582.8,76,o),
(599.6,215.2,cs),
(608.4,298.4,o),
(564.4,362,o),
(477.2,399.2,c),
(569.6,439.6,o),
(590,501.6,o),
(600.4,574,cs),
(620.4,712.4,o),
(467.6,791.6,o),
(192,779.6,cs),
(149.6,779.6,o),
(125,769,o),
(119.6,715.6,cs),
(49.6,64,ls),
(45,24,o),
(72.8,-7.6,o),
(113.2,-7.6,cs)
);
},
{
closed = 1;
nodes = (
(367.6,115.2,o),
(467.6,162.8,o),
(476.4,231.2,cs),
(486.4,304.8,o),
(380.8,348.4,o),
(201.6,344.4,cs),
(196.8,344.4,o),
(194,342,o),
(193.6,337.6,cs),
(170.4,116.4,ls),
(170,111,o),
(172.8,108.4,o),
(178,108.8,cs)
);
},
{
closed = 1;
nodes = (
(207.6,329.6,l),
(380,332.4,o),
(469.6,292.8,o),
(461.6,232.8,cs),
(454,174.8,o),
(366,132,o),
(186.4,124,c)
);
},
{
closed = 1;
nodes = (
(80.4,7.6,o),
(61,30,o),
(64.4,62,cs),
(134.4,714.4,ls),
(139,758,o),
(153.6,764.4,o),
(192,764.4,cs),
(463.2,776.4,o),
(604,702.8,o),
(585.6,576,cs),
(574.4,499.2,o),
(554,441.2,o),
(446.8,403.2,cs),
(444,402,o),
(442,401,o),
(442,399,cs),
(442,397,o),
(443,396,o),
(446.8,394.4,cs),
(546,360.8,o),
(593.6,301.2,o),
(584.4,216.8,cs),
(569.2,87.2,o),
(394.4,7.6,o),
(113.2,7.6,cs)
);
},
{
closed = 1;
nodes = (
(433.2,434.8,o),
(472,486.8,o),
(480.4,550,cs),
(488.4,616.8,o),
(406.8,672.4,o),
(236,673.6,cs),
(230.8,673.6,o),
(228,671,o),
(227.6,666.4,cs),
(204,437.2,ls),
(203,428,o),
(209,424,o),
(214,423.6,cs)
);
},
{
closed = 1;
nodes = (
(241.6,658.4,l),
(403.6,656,o),
(472,606.8,o),
(465.6,552,cs),
(458,495,o),
(425,451,o),
(219.2,438.8,c)
);
}
);
vertWidth = 0;
width = 642;
},
{
associatedMasterId = m01;
layerId = "B07E2D77-9B76-46A5-9AD8-52245F6FEE2E";
name = background;
shapes = (
{
closed = 1;
nodes = (
(470,356,o),
(498,436,o),
(512,564,cs),
(527,704,o),
(400,772,o),
(133,772,c),
(126,718,l),
(347,718,o),
(463,671,o),
(453,567,cs),
(443,481,o),
(434,416,o),
(116,416,c),
(110,356,l)
);
},
{
closed = 1;
nodes = (
(397,0,o),
(486,37,o),
(500,171,cs),
(516,321,o),
(361,416,o),
(112,416,c),
(107,356,l),
(333,356,o),
(451,284,o),
(441,179,cs),
(430,78,o),
(305,55,o),
(56,55,c),
(51,0,l)
);
},
{
closed = 1;
nodes = (
(162,762,o),
(156,772,o),
(133,772,cs),
(113,772,o),
(102,764,o),
(100,740,cs),
(26,37,ls),
(24,17,o),
(37,0,o),
(57,0,cs),
(74,0,o),
(83,11,o),
(86,34,cs),
(159,735,ls)
);
}
);
vertWidth = 0;
width = 594;
},
{
associatedMasterId = m002;
layerId = "41C18EEF-24E8-472E-9093-D1506CBD8D1D";
name = background;
shapes = (
{
closed = 1;
nodes = (
(498,335,o),
(526,456,o),
(537,549,cs),
(548,651,o),
(495,772,o),
(135,772,c),
(122,664,l),
(451,664,o),
(429,587,o),
(424,555,cs),
(418,517,o),
(388,425,o),
(151,425,c),
(141,335,l)
);
},
{
closed = 1;
nodes = (
(413,0,o),
(524,25,o),
(541,179,cs),
(557,339,o),
(367,425,o),
(145,425,c),
(134,335,l),
(345,335,o),
(437,286,o),
(429,200,cs),
(421,118,o),
(334,114,o),
(75,114,c),
(65,0,l)
);
},
{
closed = 1;
nodes = (
(204,764,o),
(166,772,o),
(138,772,cs),
(109,772,o),
(84,763,o),
(80,723,cs),
(10,63,ls),
(6,27,o),
(34,0,o),
(70,0,cs),
(97,0,o),
(124,13,o),
(128,52,cs),
(198,712,ls)
);
}
);
vertWidth = 0;
width = 594;
}
);
},
{
glyphname = C.ss01;
kernLeft = O_left;
layers = (
{
layerId = m01;
shapes = (
{
closed = 1;
nodes = (
(368,-12,o),
(463,70,o),
(501,146,cs),
(518,177,o),
(521,200,o),
(495,214,cs),
(470,226,o),
(451,209,o),
(437,180,cs),
(407,122,o),
(346,58,o),
(253,58,cs),
(144,58,o),
(95,165,o),
(136,396,cs),
(170,577,o),
(240,706,o),
(372,706,cs),
(427,706,o),
(471,674,o),
(495,656,cs),
(509,645,o),
(535,635,o),
(555,657,cs),
(573,680,o),
(561,701,o),
(549,713,cs),
(516,743,o),
(463,779,o),
(368,779,cs),
(198,779,o),
(102,614,o),
(63,405,cs),
(12,143,o),
(84,-12,o),
(258,-12,cs)
);
},
{
closed = 1;
nodes = (
(95,3,o),
(28,146,o),
(77,403,cs),
(116,608,o),
(207,764,o),
(368,764,cs),
(459,764,o),
(506,731,o),
(539,701,cs),
(549,692,o),
(555,681,o),
(543,667,cs),
(531,653,o),
(516,659,o),
(505,668,cs),
(479,686,o),
(431,721,o),
(372,721,cs),
(231,721,o),
(156,583,o),
(122,398,cs),
(79,161,o),
(133,43,o),
(253,43,cs),
(353,43,o),
(419,113,o),
(451,174,cs),
(463,199,o),
(473,208,o),
(489,200,cs),
(504,192,o),
(503,181,o),
(487,152,cs),
(451,80,o),
(362,3,o),
(258,3,cs)
);
}
);
vertWidth = 0;
width = 581;
},
{
layerId = m002;
shapes = (
{
closed = 1;
nodes = (
(400.8,-12.4,o),
(502.4,59.6,o),
(543.6,134.4,cs),
(572.8,188.8,o),
(552.8,232,o),
(520.4,248.8,cs),
(486.4,266.8,o),
(454.8,252.8,o),
(439.2,218,cs),
(411.6,161.6,o),
(358,107.6,o),
(270,107.6,cs),
(186,107.6,o),
(152.8,194.8,o),
(177.6,392,cs),
(198.4,564,o),
(267.6,657.6,o),
(392,657.6,cs),
(436,657.6,o),
(482.8,630.8,o),
(507.6,612.8,cs),
(536.8,592.8,o),
(572,597.2,o),
(593.6,634.4,cs),
(615.6,674.4,o),
(598.8,713.2,o),
(574.4,731.2,cs),
(544.4,754,o),
(457.2,779.6,o),
(384,779.6,cs),
(194,779.6,o),
(79.2,653.2,o),
(42.4,408,cs),
(5.2,154.8,o),
(81.2,-12.4,o),
(268,-12.4,cs)
);
},
{
closed = 1;
nodes = (
(92,2.4,o),
(20.8,158,o),
(57.6,406,cs),
(93.2,645.6,o),
(201.2,764.4,o),
(384,764.4,cs),
(454.8,764.4,o),
(537.6,740,o),
(565.6,718.8,cs),
(586,704,o),
(598.8,674.4,o),
(580.4,641.6,cs),
(563.2,612,o),
(540,608.8,o),
(516.4,625.2,cs),
(491.2,643.2,o),
(440,672.4,o),
(392,672.4,cs),
(259.6,672.4,o),
(184,570.8,o),
(162.4,394,cs),
(137.2,192,o),
(174.8,92.4,o),
(270,92.4,cs),
(364.4,92.4,o),
(424,152.4,o),
(452.8,212,cs),
(465.6,240.4,o),
(486.8,249.6,o),
(513.6,235.2,cs),
(540.4,221.6,o),
(555.6,188.4,o),
(530.4,141.6,cs),
(491.2,70,o),
(395.6,2.4,o),
(268,2.4,cs)
);
}
);
vertWidth = 0;
width = 605;
},
{
associatedMasterId = m01;
layerId = "52EFED00-95E8-43A2-983B-57F1EBD9EA9F";
name = background;
shapes = (
{
closed = 1;
nodes = (
(557,695,o),
(577,690,o),
(587,710,cs),
(596,729,o),
(584,743,o),
(573,747,cs),
(536,763,o),
(498,771,o),
(394,771,cs),
(210,771,o),
(116,606,o),
(96,402,cs),
(95,378,o),
(82,259,o),
(86,204,cs),
(93,101,o),
(134,-5,o),
(284,-5,cs),
(391,-5,o),
(486,71,o),
(520,141,cs),
(538,181,o),
(542,195,o),
(522,206,cs),
(497,217,o),
(482,203,o),
(469,176,cs),
(438,116,o),
(365,50,o),
(279,50,cs),
(171,50,o),
(150,135,o),
(145,203,cs),
(140,267,o),
(153,368,o),
(159,415,cs),
(175,575,o),
(257,716,o),
(398,716,cs),
(491,716,o),
(519,709,o),
(545,700,cs)
);
}
);
vertWidth = 0;
width = 594;
},
{
associatedMasterId = m002;
layerId = "66F140A1-F38A-450F-A5C8-1AF38644720C";
name = background;
shapes = (
{
closed = 1;
nodes = (
(444,-5,o),
(549,69,o),
(580,151,cs),
(605,223,o),
(608,261,o),
(550,276,cs),
(499,287,o),
(489,254,o),
(473,209,cs),
(453,156,o),
(390,114,o),
(308,114,cs),
(235,114,o),
(208,143,o),
(203,198,cs),
(200,261,o),
(211,368,o),
(219,412,cs),
(232,536,o),
(279,653,o),
(438,653,cs),
(473,653,o),
(531,649,o),
(576,638,cs),
(596,633,o),
(631,638,o),
(643,677,cs),
(653,714,o),
(639,737,o),
(618,746,cs),
(571,766,o),
(491,772,o),
(430,772,cs),
(192,772,o),
(115,590,o),
(97,413,cs),
(93,388,o),
(81,260,o),
(84,200,cs),
(90,124,o),
(139,-5,o),
(315,-5,cs)
);
}
);
vertWidth = 0;
width = 594;
}
);
},
{
glyphname = D.ss01;
kernLeft = H_left;
kernRight = O_right;
layers = (
{
layerId = m01;
shapes = (
{
closed = 1;
nodes = (
(151,-7,ls),
(391,-7,o),
(522,148,o),
(551,403,cs),
(577,628,o),
(448,780,o),
(221,780,cs),
(154,780,ls),
(123,780,o),
(115,762,o),
(113,741,cs),
(38,33,ls),
(34,11,o),
(48,-7,o),
(75,-7,cs)
);
},
{
closed = 1;
nodes = (
(57,8,o),
(50,16,o),
(52,31,cs),
(127,739,ls),
(129,757,o),
(133,765,o),
(154,765,cs),
(221,765,ls),
(441,765,o),
(561,623,o),
(537,405,cs),
(508,155,o),
(384,8,o),
(151,8,cs),
(75,8,ls)
);
},
{
closed = 1;
nodes = (
(147,48,ls),
(358,48,o),
(466,177,o),
(493,408,cs),
(514,592,o),
(411,726,o),
(229,726,cs),
(178,726,ls),
(173,726,o),
(170,723,o),
(170,719,cs),
(100,55,ls),
(99,50,o),
(102,48,o),
(107,48,cs)
);
},
{
closed = 1;
nodes = (
(184,711,l),
(229,711,ls),
(402,711,o),
(498,587,o),
(479,410,cs),
(452,184,o),
(350,63,o),
(147,63,cs),
(115,63,l)
);
}
);
vertWidth = 0;
width = 596;
},
{
layerId = m002;
shapes = (
{
closed = 1;
nodes = (
(207.2,-7.6,ls),
(440,-7.6,o),
(593.2,148.8,o),
(619.6,398.4,cs),
(642,624.4,o),
(503.2,779.6,o),
(271.2,779.6,cs),
(186.8,779.6,ls),
(146,778.4,o),
(126,759.6,o),
(121.6,724,cs),
(51.6,58.8,ls),
(48,22,o),
(76.8,-6.4,o),
(116,-7.6,cs)
);
},
{
closed = 1;
nodes = (
(84,8.4,o),
(63.6,28.8,o),
(66.4,57.2,cs),
(136.4,722,ls),
(140,751.2,o),
(153.2,763.6,o),
(187.2,764.4,cs),
(271.2,764.4,ls),
(495.6,764.4,o),
(626.4,618.4,o),
(604.4,399.6,cs),
(578.8,156.4,o),
(432.8,7.6,o),
(207.2,7.6,cs),
(116,7.6,ls)
);
},
{
closed = 1;
nodes = (
(200,98.4,ls),
(372.8,98.4,o),
(486,201.6,o),
(504.4,402.4,cs),
(520.8,585.2,o),
(420.8,675.6,o),
(258,675.6,cs),
(243.6,675.6,ls),
(238.8,675.6,o),
(236,673.2,o),
(235.6,668.4,cs),
(176.4,106.4,ls),
(176,101.2,o),
(178.4,98.4,o),
(183.6,98.4,cs)
);
},
{
closed = 1;
nodes = (
(249.6,660.4,l),
(258,660.4,ls),
(414,660.4,o),
(505.2,578,o),
(489.6,403.6,cs),
(471.6,209.6,o),
(366,113.6,o),
(200,113.6,cs),
(192.4,113.6,l)
);
}
);
vertWidth = 0;
width = 659;
},
{
associatedMasterId = m01;
layerId = "65D45964-139F-42EA-844B-768674C9B4E8";
name = background;
shapes = (
{
closed = 1;
nodes = (
(143,0,ls),
(371,0,o),
(510,152,o),
(537,417,cs),
(560,619,o),
(412,772,o),
(188,772,cs),
(146,772,l),
(139,718,l),
(196,718,ls),
(385,718,o),
(495,581,o),
(479,416,cs),
(454,184,o),
(331,55,o),
(139,55,cs),
(74,55,l),
(67,0,l)
);
},
{
closed = 1;
nodes = (
(173,757,o),
(171,772,o),
(146,772,cs),
(120,772,o),
(114,759,o),
(112,740,cs),
(37,32,ls),
(34,14,o),
(45,0,o),
(67,0,cs),
(93,0,o),
(95,18,o),
(96,30,cs),
(171,735,ls)
);
}
);
vertWidth = 0;
width = 594;
}
);
},
{
glyphname = E.ss01;
kernLeft = H_left;
layers = (
{
layerId = m01;
shapes = (
{
closed = 1;
nodes = (
(448,-7,ls),
(476,-7,o),
(488,11,o),
(488,29,cs),
(488,47,o),
(476,63,o),
(448,63,cs),
(115,63,l),
(149,381,l),
(458,381,ls),
(486,381,o),
(502,398,o),
(502,416,cs),
(502,434,o),
(489,451,o),
(461,451,cs),
(156,451,l),
(184,711,l),
(524,711,ls),
(552,711,o),
(564,728,o),
(564,745,cs),
(564,762,o),
(552,780,o),
(524,780,cs),
(154,780,ls),
(123,780,o),
(115,762,o),
(113,741,cs),
(38,33,ls),
(34,11,o),
(48,-7,o),
(75,-7,cs)
);
},
{
closed = 1;
nodes = (
(57,8,o),
(50,16,o),
(52,31,cs),
(127,739,ls),
(129,757,o),
(133,765,o),
(154,765,cs),
(524,765,ls),
(543,765,o),
(549,757,o),
(549,745,cs),
(549,733,o),
(543,726,o),
(524,726,cs),
(178,726,ls),
(173,726,o),
(170,723,o),
(170,719,cs),
(140,443,ls),
(140,438,o),
(142,436,o),
(148,436,cs),
(461,436,ls),
(480,436,o),
(487,427,o),
(487,416,cs),
(487,405,o),
(479,396,o),
(458,396,cs),
(142,396,ls),
(138,396,o),
(135,393,o),
(134,389,cs),
(100,55,ls),
(99,50,o),
(102,48,o),
(107,48,cs),
(448,48,ls),
(467,48,o),
(473,41,o),
(473,29,cs),
(473,16,o),
(467,8,o),
(448,8,cs),
(75,8,ls)
);
}
);
vertWidth = 0;
width = 561;
},
{
layerId = m002;
shapes = (
{
closed = 1;
nodes = (
(501.2,-7.6,ls),
(542,-7.6,o),
(564.4,28,o),
(564.4,62,cs),
(564.4,94,o),
(539.2,120.4,o),
(497.2,120.4,cs),
(192.4,120.4,l),
(214.8,334.4,l),
(505.2,334.4,ls),
(547.2,334.4,o),
(572.4,360.8,o),
(572.4,393.2,cs),
(572.4,428.8,o),
(542.4,450.4,o),
(504,450.4,cs),
(227.2,450.4,l),
(248.8,651.6,l),
(571.2,651.6,ls),
(611.6,651.6,o),
(635.6,686,o),
(635.6,720,cs),
(635.6,754.4,o),
(608,779.6,o),
(567.2,779.6,cs),
(190,779.6,ls),
(150,779.6,o),
(126,764,o),
(121.6,726.8,cs),
(51.6,59.6,ls),
(48.4,23.2,o),
(65.6,-7.6,o),
(113.2,-7.6,cs)
);
},
{
closed = 1;
nodes = (
(75.2,7.6,o),
(63.6,27.6,o),
(66.4,58.4,cs),
(136.4,725.2,ls),
(140,754.8,o),
(155.2,764.4,o),
(190,764.4,cs),
(567.2,764.4,ls),
(601.2,764.4,o),
(620.4,746.8,o),
(620.4,720,cs),
(620.4,691.2,o),
(603.2,666.4,o),
(571.2,666.4,cs),
(242.4,666.4,ls),
(237.6,666.4,o),
(234.8,664,o),
(234.4,659.2,cs),
(211.6,443.6,ls),
(211.2,438.4,o),
(213.6,435.6,o),
(218.8,435.6,cs),
(504,435.6,ls),
(536.4,435.6,o),
(557.6,420,o),
(557.6,393.2,cs),
(557.6,368,o),
(539.6,349.6,o),
(505.2,349.6,cs),
(208.4,349.6,ls),
(203.6,349.6,o),
(200.8,347.2,o),
(200.4,342.4,cs),
(176.4,113.6,ls),
(176,108.4,o),
(178.4,105.6,o),
(183.6,105.6,cs),
(497.2,105.6,ls),
(531.6,105.6,o),
(549.6,86.8,o),
(549.6,62,cs),
(549.6,33.2,o),
(532.8,7.6,o),
(501.2,7.6,cs),
(113.2,7.6,ls)
);
}
);
vertWidth = 0;
width = 631;
}
);
},
{
glyphname = F.ss01;
kernLeft = H_left;
layers = (
{
layerId = m01;
shapes = (
{
closed = 1;
nodes = (
(108,-7,o),
(110,17,o),
(111,29,cs),
(149,381,l),
(450,381,ls),
(479,381,o),
(491,399,o),
(491,416,cs),
(491,433,o),
(479,451,o),
(450,451,cs),
(156,451,l),
(184,711,l),
(524,711,ls),
(552,711,o),
(564,728,o),
(564,745,cs),
(564,762,o),
(552,780,o),
(524,780,cs),
(154,780,ls),
(123,780,o),
(115,762,o),
(113,741,cs),
(38,33,ls),
(34,11,o),
(48,-7,o),
(75,-7,cs)
);
},
{
closed = 1;
nodes = (
(57,8,o),
(50,16,o),
(52,31,cs),
(127,739,ls),
(129,757,o),
(133,765,o),
(154,765,cs),
(524,765,ls),
(543,765,o),
(549,757,o),
(549,745,cs),
(549,733,o),
(543,726,o),
(524,726,cs),
(178,726,ls),
(173,726,o),
(170,723,o),
(170,719,cs),
(140,443,ls),
(140,438,o),
(142,436,o),
(148,436,cs),
(450,436,ls),
(470,436,o),
(476,428,o),
(476,416,cs),
(476,404,o),
(470,396,o),
(450,396,cs),
(142,396,ls),
(138,396,o),
(135,393,o),
(134,389,cs),
(97,31,ls),
(96,19,o),
(94,8,o),
(75,8,cs)
);
}
);
vertWidth = 0;
width = 534;
},
{
layerId = m002;
shapes = (
{
closed = 1;
nodes = (
(158.4,-7.6,o),
(182.4,21.2,o),
(185.6,60.4,cs),
(214.8,337.6,l),
(520,337.6,ls),
(562.4,337.6,o),
(582.4,363.6,o),
(582.4,396,cs),
(582.4,430.8,o),
(553.6,453.6,o),
(514,453.6,cs),
(227.2,453.6,l),
(248.8,651.6,l),
(584,651.6,ls),
(624,651.6,o),
(652.4,678.8,o),
(652.4,718,cs),
(652.4,755.6,o),
(623.6,779.6,o),
(583.2,779.6,cs),
(188,779.6,ls),
(147.6,779.6,o),
(126,762.8,o),
(121.6,726,cs),
(51.6,64.8,ls),
(48.4,29.6,o),
(66.4,-7.6,o),
(106,-7.6,cs)
);
},
{
closed = 1;
nodes = (
(76.8,7.6,o),
(63.6,33.6,o),
(66.4,63.2,cs),
(136.4,724,ls),
(140,754,o),
(153.6,764.4,o),
(188,764.4,cs),
(583.2,764.4,ls),
(617.2,764.4,o),
(637.6,747.6,o),
(637.6,718,cs),
(637.6,686,o),
(616.8,666.4,o),
(584,666.4,cs),
(242.4,666.4,ls),
(237.6,666.4,o),
(234.8,664,o),
(234.4,659.2,cs),
(211.6,446.4,ls),
(211.2,441.2,o),
(213.6,438.4,o),
(218.8,438.4,cs),
(514,438.4,ls),
(547.2,438.4,o),
(567.6,422.4,o),
(567.6,396,cs),
(567.6,369.6,o),
(554.4,352.4,o),
(520,352.4,cs),
(208.4,352.4,ls),
(203.6,352.4,o),
(200.8,350,o),
(200.4,345.2,cs),
(170.4,61.6,ls),
(167.6,28,o),
(150.4,7.6,o),
(106,7.6,cs)
);
}
);
vertWidth = 0;
width = 647;
}
);
},
{
glyphname = G.ss01;
kernLeft = O_left;
layers = (
{
layerId = m01;
shapes = (
{
closed = 1;
nodes = (
(323,-12,o),
(403,47,o),
(472,186,c),
(457,44,ls),
(454,17,o),
(459,-6,o),
(489,-7,cs),
(523,-9,o),
(528,18,o),
(531,42,cs),
(566,383,ls),
(570,408,o),
(550,424,o),
(526,424,cs),
(501,424,o),
(495,407,o),
(488,391,cs),
(404,194,o),
(341,58,o),
(240,58,cs),
(142,58,o),
(101,197,o),
(133,396,cs),
(160,557,o),
(255,708,o),
(382,708,cs),
(447,708,o),
(495,666,o),
(521,639,cs),
(536,623,o),
(558,619,o),
(574,634,cs),
(591,650,o),
(592,674,o),
(578,693,cs),
(547,734,o),
(475,780,o),
(391,780,cs),
(209,780,o),
(95,595,o),
(61,406,cs),
(16,166,o),
(83,-12,o),
(229,-12,cs)
);
},
{
closed = 1;
nodes = (
(94,3,o),
(32,169,o),
(75,404,cs),
(109,589,o),
(218,765,o),
(391,765,cs),
(470,765,o),
(537,722,o),
(566,684,cs),
(576,670,o),
(576,656,o),
(564,646,cs),
(554,636,o),
(543,638,o),
(531,649,cs),
(505,676,o),
(453,723,o),
(382,723,cs),
(246,723,o),
(146,564,o),
(119,398,cs),
(85,195,o),
(129,43,o),
(240,43,cs),
(351,43,o),
(418,188,o),
(502,385,cs),
(509,401,o),
(511,409,o),
(526,409,cs),
(544,409,o),
(554,401,o),
(552,385,cs),
(517,44,ls),
(514,20,o),
(511,7,o),
(489,7,cs),
(472,8,o),
(470,19,o),
(471,42,cs),
(491,223,ls),
(491,228,o),
(489,231,o),
(485,232,cs),
(484,232,ls),
(479,233,o),
(476,232,o),
(474,227,cs),
(404,67,o),
(325,2,o),
(229,3,cs)
);
}
);
vertWidth = 0;
width = 628;
},
{
layerId = m002;
shapes = (
{
closed = 1;
nodes = (
(299.6,-12.4,o),
(364,58,o),
(417.2,144.8,c),
(408.4,58.8,ls),
(404,16.8,o),
(433.2,-7.6,o),
(478,-7.6,cs),
(524,-7.6,o),
(538,18,o),
(542.4,49.2,cs),
(577.6,379.2,ls),
(582,420.8,o),
(552.8,447.6,o),
(512,447.6,cs),
(462,447.6,o),
(455.2,432.4,o),
(393.6,325.6,cs),
(357.6,261.6,o),
(266.8,108.4,o),
(225.2,108.4,cs),
(171.2,108.4,o),
(152.4,203.2,o),
(175.6,390,cs),
(194.4,547.2,o),
(231.2,656.4,o),
(361.2,656.4,cs),
(417.2,656.4,o),
(448,639.6,o),
(459.2,612,cs),
(475.6,572.8,o),
(505.2,556.8,o),
(548,568.8,cs),
(586,578,o),
(594.8,617.2,o),
(586.4,648.8,cs),
(563.2,738,o),
(471.2,779.6,o),
(361.2,779.6,cs),
(166,779.6,o),
(74,634.4,o),
(40.4,407.2,cs),
(4.4,164,o),
(39.2,-12.4,o),
(217.2,-12.4,cs)
);
},
{
closed = 1;
nodes = (
(52,2.4,o),
(19.6,165.2,o),
(55.6,404.8,cs),
(88,628.4,o),
(175.2,764.4,o),
(361.2,764.4,cs),
(467.2,764.4,o),
(550.8,726.8,o),
(571.6,645.2,cs),
(579.2,618,o),
(572.8,590.4,o),
(544,583.2,cs),
(508,573.2,o),
(486.8,584.4,o),
(472.8,618,cs),
(459.6,650.8,o),
(421.6,671.6,o),
(361.2,671.6,cs),
(220.4,671.6,o),
(179.6,551.2,o),
(160.4,392,cs),
(137.2,202.4,o),
(156.8,93.6,o),
(225.2,93.6,cs),
(277.2,93.6,o),
(370.8,254.8,o),
(406.4,318.4,cs),
(468.8,425.6,o),
(472,432.4,o),
(512,432.4,cs),
(546,432.4,o),
(566,414,o),
(562.4,380.8,cs),
(527.6,50.8,ls),
(523.6,23.6,o),
(514.8,7.6,o),
(478,7.6,cs),
(439.6,7.6,o),
(420,24,o),
(423.6,57.2,cs),
(434.8,170.4,ls),
(435.2,174.8,o),
(433.6,178,o),
(429.2,179.2,cs),
(428,179.6,ls),
(423.6,180.8,o),
(420.4,179.6,o),
(418,175.6,cs),
(362.8,80,o),
(299.6,2.4,o),
(217.2,2.4,cs)
);
}
);
vertWidth = 0;
width = 636;
},
{
associatedMasterId = m002;
layerId = "38D35BBD-0824-4139-A76A-CF2BFBC65422";
name = background;
shapes = (
{
closed = 1;
nodes = (
(491,440,o),
(485,429,o),
(423,322,cs),
(386,258,o),
(293,101,o),
(247,101,cs),
(214,101,o),
(207,135,o),
(203,184,cs),
(198,254,o),
(210,361,o),
(216,421,cs),
(228,529,o),
(247,665,o),
(443,665,cs),
(470,665,o),
(497,637,o),
(501,617,cs),
(511,579,o),
(554,570,o),
(582,577,cs),
(614,587,o),
(623,619,o),
(614,649,cs),
(593,733,o),
(516,772,o),
(435,772,cs),
(156,772,o),
(114,579,o),
(95,405,cs),
(93,381,o),
(80,252,o),
(84,179,cs),
(90,94,o),
(126,-5,o),
(240,-5,cs),
(353,-5,o),
(457,182,o),
(532,315,c),
(536,440,l)
);
},
{
closed = 1;
nodes = (
(596,417,o),
(571,440,o),
(535,440,cs),
(488,440,o),
(475,407,o),
(473,388,cs),
(438,58,ls),
(435,21,o),
(460,0,o),
(500,0,cs),
(542,0,o),
(554,21,o),
(557,50,cs),
(593,380,ls)
);
}
);
vertWidth = 0;
width = 594;
}
);
},
{
glyphname = H.ss01;
kernLeft = H_left;
kernRight = H_right;
layers = (
{
layerId = m01;
shapes = (
{
closed = 1;
nodes = (
(108,-7,o),
(110,17,o),
(111,29,cs),
(149,381,l),
(474,381,l),
(437,33,ls),
(435,17,o),
(439,-7,o),
(474,-7,cs),
(502,-7,o),
(509,13,o),
(510,25,cs),
(586,737,ls),
(590,761,o),
(578,780,o),
(550,780,cs),
(523,780,o),
(514,761,o),
(513,747,cs),
(481,451,l),
(156,451,l),
(186,734,ls),
(189,759,o),
(180,780,o),
(154,780,cs),
(128,780,o),
(115,763,o),
(113,741,cs),
(38,33,ls),
(34,11,o),
(48,-7,o),
(75,-7,cs)
);
},
{
closed = 1;
nodes = (
(57,8,o),
(50,16,o),
(52,31,cs),
(127,739,ls),
(129,756,o),
(136,765,o),
(154,765,cs),
(169,765,o),
(173,756,o),
(172,736,cs),
(140,443,ls),
(140,438,o),
(142,436,o),
(148,436,cs),
(488,436,ls),
(492,436,o),
(495,438,o),
(496,443,cs),
(527,745,ls),
(528,756,o),
(533,765,o),
(550,765,cs),
(569,765,o),
(574,756,o),
(572,739,cs),
(496,27,ls),
(495,17,o),
(491,8,o),
(474,8,cs),
(452,8,o),
(451,18,o),
(451,31,cs),
(490,388,ls),
(490,393,o),
(488,396,o),
(482,396,cs),
(142,396,ls),
(138,396,o),
(135,393,o),
(134,389,cs),
(97,31,ls),
(96,19,o),
(94,8,o),
(75,8,cs)
);
}
);
vertWidth = 0;
width = 629;
},
{
layerId = m002;
shapes = (
{
closed = 1;
nodes = (
(163.6,-7.6,o),
(183.2,20.4,o),
(185.6,47.2,cs),
(215.6,339.6,l),
(478.8,339.6,l),
(449.6,58.8,ls),
(446,20.4,o),
(470.4,-7.6,o),
(514,-7.6,cs),
(552.4,-7.6,o),
(580,15.6,o),
(582.4,43.2,cs),
(652.4,711.2,ls),
(656.8,754,o),
(628,779.6,o),
(587.2,779.6,cs),
(550.8,779.6,o),
(523.2,758.8,o),
(519.6,728.8,cs),
(490.4,449.6,l),
(227.2,449.6,l),
(253.6,708,ls),
(259.2,754.8,o),
(233.2,779.6,o),
(195.2,779.6,cs),
(160.4,779.6,o),
(125.2,762.8,o),
(120.4,724,cs),
(51.6,58.8,ls),
(48,21.2,o),
(76.8,-7.6,o),
(119.2,-7.6,cs)
);
},
{
closed = 1;
nodes = (
(84,7.6,o),
(63.6,28,o),
(66.4,57.2,cs),
(135.6,722,ls),
(138.8,752,o),
(164.8,764.4,o),
(195.2,764.4,cs),
(226,764.4,o),
(243.2,748,o),
(238.4,710,cs),
(211.6,442.4,ls),
(211.2,437.2,o),
(213.6,434.4,o),
(218.8,434.4,cs),
(496.4,434.4,ls),
(501.2,434.4,o),
(504,436.8,o),
(504.4,441.6,cs),
(534.4,727.2,ls),
(537.2,750,o),
(556.4,764.4,o),
(587.2,764.4,cs),
(621.2,764.4,o),
(641.2,746.8,o),
(637.6,712.8,cs),
(567.6,44.8,ls),
(565.6,23.6,o),
(546.4,7.6,o),
(514,7.6,cs),
(478.4,7.6,o),
(461.6,26.4,o),
(464.4,57.2,cs),
(494.4,346.4,ls),
(494.8,351.6,o),
(492.4,354.4,o),
(487.2,354.4,cs),
(209.6,354.4,ls),
(204.8,354.4,o),
(202,352,o),
(201.6,347.2,cs),
(170.4,48.8,ls),
(168.8,26.8,o),
(155.2,7.6,o),
(119.2,7.6,cs)
);
}
);
vertWidth = 0;
width = 707;
}
);
},
{
glyphname = I.ss01;
layers = (
{
layerId = m01;
shapes = (
{
closed = 1;
nodes = (
(130,-7,o),
(134,17,o),
(135,29,cs),
(210,734,ls),
(213,758,o),
(209,780,o),
(178,780,cs),
(149,780,o),
(139,762,o),
(136,741,cs),
(62,33,l),
(58,11,o),
(72,-7,o),
(98,-7,cs)
);
},
{
closed = 1;
nodes = (
(81,8,o),
(74,16,o),
(76,31,cs),
(150,739,ls),
(153,756,o),
(158,765,o),
(178,765,cs),
(196,765,o),
(197,757,o),
(196,736,cs),
(121,31,ls),
(120,19,o),
(118,8,o),
(98,8,cs)
);
}
);
vertWidth = 0;
width = 276;
},
{
layerId = m002;
shapes = (
{
closed = 1;
nodes = (
(175.6,-7.6,o),
(203.2,16.4,o),
(205.6,45.2,cs),
(275.6,708.4,ls),
(281.2,764.4,o),
(246.4,779.6,o),
(214,779.6,cs),
(176,779.6,o),
(146.8,762.4,o),
(143.6,723.6,cs),
(73.6,58.8,ls),
(69.2,22,o),
(91.2,-7.6,o),
(132,-7.6,cs)
);
},
{
closed = 1;
nodes = (
(99.6,7.6,o),
(84.8,27.2,o),
(88.4,57.2,cs),
(158.4,722.4,ls),
(161.2,752.4,o),
(181.2,764.4,o),
(214,764.4,cs),
(242.4,764.4,o),
(264.8,754.4,o),
(260.4,709.6,cs),
(190.4,46.8,ls),
(188.8,24.8,o),
(169.2,7.6,o),
(132,7.6,cs)
);
}
);
vertWidth = 0;
width = 355;
}
);
},
{
glyphname = J.ss01;
kernRight = H_right;
layers = (
{
layerId = m01;
shapes = (
{
closed = 1;
nodes = (
(273,-7,o),
(335,64,o),
(352,243,cs),
(403,739,ls),
(407,764,o),
(400,785,o),
(370,785,cs),
(342,785,o),
(332,767,o),
(330,746,cs),
(279,245,ls),
(265,108,o),
(224,63,o),
(149,63,cs),
(102,63,o),
(76,89,o),
(52,119,cs),
(37,139,o),
(13,144,o),
(-3,127,cs),
(-21,110,o),
(-17,88,o),
(-4,72,cs),
(32,27,o),
(82,-7,o),
(149,-7,cs)
);
},
{
closed = 1;
nodes = (
(87,8,o),
(42,39,o),
(8,82,cs),
(-2,94,o),
(-4,105,o),
(7,117,cs),
(17,127,o),
(29,124,o),
(40,109,cs),
(64,79,o),
(96,48,o),
(149,48,cs),
(231,48,o),
(279,101,o),
(293,243,cs),
(344,744,ls),
(346,762,o),
(351,770,o),
(370,770,cs),
(389,770,o),
(391,761,o),
(389,741,cs),
(338,245,ls),
(321,71,o),
(266,8,o),
(149,8,cs)
);
}
);
vertWidth = 0;
width = 447;
},
{
layerId = m002;
shapes = (
{
closed = 1;
nodes = (
(292.4,-12.4,o),
(384,59.2,o),
(401.6,228.4,cs),
(453.6,708.4,ls),
(458,764.4,o),
(424.4,779.6,o),
(392,779.6,cs),
(355.2,779.6,o),
(326,762.4,o),
(321.6,724,cs),
(272.4,258.8,ls),
(260,131.2,o),
(229.6,108.4,o),
(169.2,108.4,cs),
(135.6,108.4,o),
(105.6,145.2,o),
(87.2,163.2,cs),
(61.2,189.6,o),
(9.6,184.8,o),
(-11.2,156.4,cs),
(-31.2,128.4,o),
(-25.6,90,o),
(-6.4,70,cs),
(14.4,47.2,o),
(63.6,-12.4,o),
(173.2,-12.4,cs)
);
},
{
closed = 1;
nodes = (
(70.4,2.4,o),
(25.6,56.8,o),
(4.4,80,cs),
(-10.8,96.4,o),
(-15.2,125.2,o),
(1.2,147.6,cs),
(17.2,170,o),
(56,173.2,o),
(76.8,152.8,cs),
(94.4,134.8,o),
(128.4,93.6,o),
(169.2,93.6,cs),
(235.6,93.6,o),
(274,121.6,o),
(287.6,257.2,cs),
(336.4,722,ls),
(340,752.4,o),
(360,764.4,o),
(392,764.4,cs),
(420.4,764.4,o),
(442,754.4,o),
(438.4,709.6,cs),
(386.4,229.6,ls),
(370,68,o),
(286.4,2.4,o),
(173.2,2.4,cs)
);
}
);
vertWidth = 0;
width = 495;
},
{
associatedMasterId = m01;
layerId = "9959F246-042E-4193-B1B9-CF1C12FB95A6";
name = background;
shapes = (
{
closed = 1;
nodes = (
(340,244,ls),
(334,187,o),
(323,125,o),
(287,90,cs),
(266,68,o),
(232,55,o),
(191,55,cs),
(160,55,o),
(132,76,o),
(109,105,cs),
(94,125,o),
(69,134,o),
(56,122,cs),
(38,107,o),
(44,91,o),
(67,65,cs),
(96,31,o),
(139,0,o),
(195,0,cs),
(255,0,o),
(298,15,o),
(328,44,cs),
(372,86,o),
(390,156,o),
(399,244,cs),
(450,740,ls),
(453,762,o),
(448,777,o),
(424,777,cs),
(400,777,o),
(393,764,o),
(391,745,cs)
);
}
);
vertWidth = 0;
width = 594;
},
{
associatedMasterId = m002;
layerId = "134A83CF-652C-4B20-B6C4-B0C20135E8F6";
name = background;
shapes = (
{
closed = 1;
nodes = (
(333,328,ls),
(324,253,o),
(326,181,o),
(291,145,cs),
(271,122,o),
(233,112,o),
(208,112,cs),
(165,112,o),
(135,140,o),
(124,151,cs),
(100,173,o),
(56,175,o),
(34,141,cs),
(23,125,o),
(27,93,o),
(44,75,cs),
(65,52,o),
(112,-5,o),
(219,-5,cs),
(284,-5,o),
(343,24,o),
(386,70,cs),
(440,127,o),
(438,219,o),
(449,318,cs),
(491,709,ls),
(495,759,o),
(467,772,o),
(437,772,cs),
(403,772,o),
(378,757,o),
(374,723,cs)
);
}
);
vertWidth = 0;
width = 594;
}
);
},
{
glyphname = K.ss01;
kernLeft = H_left;
layers = (
{
layerId = m01;
shapes = (
{
closed = 1;
nodes = (
(127,-8,o),
(129,20,o),
(131,36,cs),
(169,378,l),
(453,18,ls),
(463,6,o),
(478,-8,o),
(496,-8,cs),
(511,-8,o),
(527,2,o),
(529,19,c),
(532,29,o),
(529,41,o),
(519,54,cs),
(245,412,l),
(583,708,ls),
(597,720,o),
(605,732,o),
(607,745,cs),
(608,763,o),
(595,780,o),
(575,780,cs),
(563,781,o),
(548,776,o),
(533,763,cs),
(178,461,l),
(207,734,ls),
(210,758,o),
(203,780,o),
(174,780,cs),
(146,780,o),
(135,762,o),
(133,741,cs),
(57,39,ls),
(55,18,o),
(67,-8,o),
(95,-8,cs)
);
},
{
closed = 1;
nodes = (
(78,8,o),
(71,21,o),
(73,37,cs),
(147,739,ls),
(149,756,o),
(155,764,o),
(174,764,cs),
(191,764,o),
(193,756,o),
(191,736,cs),
(158,424,l),
(159,425,o),
(160,425,o),
(161,426,cs),
(543,751,ls),
(556,762,o),
(565,765,o),
(575,764,cs),
(586,764,o),
(593,758,o),
(593,747,cs),
(593,738,o),
(585,729,o),
(573,718,cs),
(230,419,ls),
(227,416,o),
(226,412,o),
(229,408,cs),
(507,46,ls),
(515,35,o),
(516,29,o),
(515,21,cs),
(513,12,o),
(506,8,o),
(496,8,cs),
(484,8,o),
(474,16,o),
(465,28,cs),
(160,418,ls),
(159,419,o),
(159,419,o),
(158,420,c),
(117,38,ls),
(115,22,o),
(113,8,o),
(95,8,cs)
);
}
);
vertWidth = 0;
width = 673;
},
{
layerId = m002;
shapes = (
{
closed = 1;
nodes = (
(160.8,-7.6,o),
(179.2,19.6,o),
(183.6,52,cs),
(213.6,334.4,l),
(450,25.6,ls),
(465.2,4.8,o),
(490.8,-7.6,o),
(516,-7.6,cs),
(541.2,-7.6,o),
(571.6,6.4,o),
(576.4,36,cs),
(578.4,52,o),
(576.4,73.6,o),
(562,92.4,cs),
(322.4,402.8,l),
(620,662.4,ls),
(636.4,676.8,o),
(651.2,694,o),
(652.4,714.8,cs),
(653.6,746.4,o),
(628.8,779.6,o),
(589.2,779.6,cs),
(568.4,779.6,o),
(550,771.6,o),
(531.2,755.6,cs),
(230.4,489.6,l),
(253.6,708.4,ls),
(259.2,761.2,o),
(222.8,779.6,o),
(191.2,779.6,cs),
(157.2,779.6,o),
(125.2,762.4,o),
(120.4,724,cs),
(49.6,64.8,ls),
(45.2,25.2,o),
(76.8,-7.6,o),
(119.2,-7.6,cs)
);
},
{
closed = 1;
nodes = (
(84,7.6,o),
(60.8,31.6,o),
(64.4,63.2,cs),
(135.6,722,ls),
(138.8,752.4,o),
(162,764.4,o),
(191.2,764.4,cs),
(218,764.4,o),
(242.8,751.6,o),
(238.4,709.6,cs),
(213.2,466,ls),
(212.4,459.2,o),
(216.8,456.8,o),
(222,461.6,cs),
(540.8,744.4,ls),
(558,758.4,o),
(571.6,764.4,o),
(589.2,764.4,cs),
(620.4,764.4,o),
(638.4,740.4,o),
(637.6,715.2,cs),
(636.8,700,o),
(625.6,687.2,o),
(610,673.6,cs),
(307.2,410,ls),
(303.6,406.8,o),
(303.2,403.2,o),
(306,399.6,cs),
(550,83.6,ls),
(561.6,68,o),
(563.6,52,o),
(561.6,38,cs),
(558.4,17.2,o),
(537.2,7.6,o),
(516,7.6,cs),
(494.8,7.6,o),
(474.8,16.8,o),
(462,34.4,cs),
(210.4,362.8,ls),
(206.4,368.4,o),
(201.6,367.2,o),
(200.8,360.4,cs),
(168.4,54,ls),
(164.8,25.6,o),
(152,7.6,o),
(119.2,7.6,cs)
);
}
);
vertWidth = 0;
width = 627;
}
);
},
{
glyphname = L.ss01;
kernLeft = H_left;
layers = (
{
layerId = m01;
shapes = (
{
closed = 1;
nodes = (
(432,-7,ls),
(459,-7,o),
(471,12,o),
(471,31,cs),
(471,52,o),
(456,67,o),
(431,67,cs),
(115,67,l),
(186,734,ls),
(189,758,o),
(185,780,o),
(154,780,cs),
(125,780,o),
(115,762,o),
(113,741,cs),
(38,33,ls),
(34,11,o),
(48,-7,o),
(75,-7,cs)
);
},
{
closed = 1;
nodes = (
(57,8,o),
(50,16,o),
(52,31,cs),
(127,739,ls),
(129,757,o),
(134,765,o),
(154,765,cs),
(172,765,o),
(173,757,o),
(172,736,cs),
(100,59,ls),
(99,54,o),
(102,52,o),
(107,52,cs),
(431,52,ls),
(449,52,o),
(456,45,o),
(456,31,cs),
(456,17,o),
(450,8,o),
(432,8,cs),
(75,8,ls)
);
}
);
vertWidth = 0;
width = 502;
},
{
layerId = m002;
shapes = (
{
closed = 1;
nodes = (
(484,-7.6,ls),
(523.6,-7.6,o),
(546.4,22.8,o),
(546.4,55.2,cs),
(546.4,87.2,o),
(516,115.6,o),
(476,115.6,cs),
(190.4,115.6,l),
(252.4,708.4,ls),
(256.8,764.4,o),
(222.4,779.6,o),
(190,779.6,cs),
(153.2,779.6,o),
(124,762.4,o),
(119.6,724,cs),
(49.6,58.8,ls),
(45.2,22,o),
(67.2,-7.6,o),
(108,-7.6,cs)
);
},
{
closed = 1;
nodes = (
(75.6,7.6,o),
(60.8,27.2,o),
(64.4,57.2,cs),
(134.4,722,ls),
(138,752.4,o),
(158,764.4,o),
(190,764.4,cs),
(218.4,764.4,o),
(241.2,754.4,o),
(237.6,709.6,cs),
(174.4,108.4,ls),
(174,103.2,o),
(176.4,100.4,o),
(181.6,100.4,cs),
(476,100.4,ls),
(509.2,100.4,o),
(531.6,79.6,o),
(531.6,55.2,cs),
(531.6,28.4,o),
(515.2,7.6,o),
(484,7.6,cs),
(108,7.6,ls)
);
}
);
vertWidth = 0;
width = 570;
}
);
},
{
glyphname = M.ss01;
kernLeft = H_left;
kernRight = H_right;
layers = (
{
layerId = m01;
shapes = (
{
closed = 1;
nodes = (
(129,-7,o),
(131,18,o),
(132,32,cs),
(192,591,l),
(406,20,ls),
(411,6,o),
(424,-7,o),
(445,-7,cs),
(466,-7,o),
(472,7,o),
(478,17,cs),
(816,581,l),
(759,33,ls),
(756,16,o),
(766,-7,o),
(794,-7,cs),
(826,-7,o),
(831,17,o),
(832,29,cs),
(907,734,ls),
(910,759,o),
(903,780,o),
(876,780,cs),
(853,780,o),
(846,771,o),
(838,757,cs),
(450,112,l),
(214,743,ls),
(207,766,o),
(197,780,o),
(175,780,cs),
(153,780,o),
(136,767,o),
(134,741,cs),
(59,33,ls),
(55,11,o),
(69,-7,o),
(96,-7,cs)
);
},
{
closed = 1;
nodes = (
(78,8,o),
(71,16,o),
(73,31,cs),
(148,739,ls),
(150,758,o),
(159,765,o),
(175,765,cs),
(189,765,o),
(193,759,o),
(200,739,cs),
(442,89,ls),
(445,83,o),
(449,83,o),
(453,88,cs),
(850,749,ls),
(858,762,o),
(861,765,o),
(876,765,cs),
(892,765,o),
(894,756,o),
(893,736,cs),
(818,31,ls),
(817,19,o),
(814,8,o),
(794,8,cs),
(777,8,o),
(772,19,o),
(773,31,cs),
(834,607,ls),
(834,611,o),
(833,614,o),
(828,615,cs),
(827,616,ls),
(823,617,o),
(819,616,o),
(817,612,cs),
(466,25,ls),
(458,13,o),
(456,8,o),
(445,8,cs),
(431,8,o),
(424,15,o),
(420,26,cs),
(197,619,ls),
(196,624,o),
(193,625,o),
(188,625,c),
(187,625,l),
(183,624,o),
(180,621,o),
(180,617,cs),
(118,34,ls),
(117,20,o),
(115,8,o),
(96,8,cs)
);
}
);
vertWidth = 0;
width = 1034;
},
{
layerId = m002;
shapes = (
{
closed = 1;
nodes = (
(156.8,-7.6,o),
(183.2,18.8,o),
(185.6,49.2,cs),
(229.2,469.6,l),
(384.8,52.4,ls),
(400,9.2,o),
(428.4,-7.6,o),
(474,-7.6,cs),
(521.2,-7.6,o),
(539.2,21.2,o),
(555.6,47.2,cs),
(796,460,l),
(752.4,53.6,ls),
(749.2,19.2,o),
(778,-7.6,o),
(820,-7.6,cs),
(864.4,-7.6,o),
(884.4,19.6,o),
(886.4,47.2,cs),
(955.6,708.4,ls),
(960,750,o),
(937.6,779.6,o),
(893.2,779.6,cs),
(850.4,779.6,o),
(830.8,768,o),
(810.4,732.8,cs),
(476.4,162.4,l),
(267.2,731.6,ls),
(254.8,766,o),
(227.2,779.6,o),
(189.2,779.6,cs),
(147.6,779.6,o),
(125.2,760.8,o),
(120.4,724,cs),
(51.6,58.8,ls),
(48,21.2,o),
(76,-7.6,o),
(114,-7.6,cs)
);
},
{
closed = 1;
nodes = (
(83.2,7.6,o),
(63.6,27.6,o),
(66.4,57.2,cs),
(135.6,722,ls),
(139.2,752,o),
(153.6,764.4,o),
(189.2,764.4,cs),
(223.2,764.4,o),
(242.8,754.8,o),
(252.8,726.4,cs),
(469.6,138.8,ls),
(471.6,132.8,o),
(476.4,132.4,o),
(479.6,138,cs),
(823.6,725.2,ls),
(841.6,756.4,o),
(855.2,764.4,o),
(893.2,764.4,cs),
(929.2,764.4,o),
(944.4,744.8,o),
(940.4,709.6,cs),
(871.6,48.8,ls),
(869.6,25.6,o),
(856.4,7.6,o),
(820,7.6,cs),
(784.8,7.6,o),
(764.8,26,o),
(767.6,52.4,cs),
(813.6,486.4,ls),
(814,490.8,o),
(812.4,494,o),
(808,495.2,cs),
(806.8,495.6,ls),
(802.4,496.8,o),
(799.2,495.6,o),
(797.2,491.6,cs),
(542.4,54.8,ls),
(526.8,28.8,o),
(512.8,7.6,o),
(474,7.6,cs),
(433.2,7.6,o),
(412,20,o),
(399.2,57.6,cs),
(234.4,498.4,ls),
(232.8,502.8,o),
(229.6,504.4,o),
(225.2,504,c),
(224.4,503.6,l),
(219.6,503.2,o),
(217.2,500.8,o),
(216.8,496,cs),
(170.4,50.8,ls),
(168.8,26.4,o),
(150,7.6,o),
(114,7.6,cs)
);
}
);
vertWidth = 0;
width = 1010;
}
);
},
{
glyphname = N.ss01;
kernLeft = H_left;
kernRight = H_right;
layers = (
{
layerId = m01;
shapes = (
{
closed = 1;
nodes = (
(108,-7,o),
(110,18,o),
(111,32,cs),
(176,640,l),
(517,17,ls),
(525,3,o),
(538,-7,o),
(557,-7,cs),
(584,-7,o),
(589,9,o),
(591,29,cs),
(666,734,ls),
(669,758,o),
(663,780,o),
(634,780,cs),
(605,780,o),
(595,762,o),
(593,741,cs),
(529,149,l),
(198,751,ls),
(190,767,o),
(178,780,o),
(153,780,cs),
(123,780,o),
(115,762,o),
(113,741,cs),
(38,33,ls),
(34,11,o),
(48,-7,o),
(75,-7,cs)
);
},
{
closed = 1;
nodes = (
(57,8,o),
(50,16,o),
(52,31,cs),
(127,739,ls),
(129,757,o),
(133,765,o),
(153,765,cs),
(171,765,o),
(178,758,o),
(184,745,cs),
(524,127,ls),
(527,123,o),
(530,122,o),
(534,122,cs),
(535,123,ls),
(540,124,o),
(542,126,o),
(542,130,cs),
(607,739,ls),
(609,757,o),
(614,765,o),
(634,765,cs),
(651,765,o),
(653,756,o),
(652,736,cs),
(577,31,ls),
(575,13,o),
(573,8,o),
(557,8,cs),
(544,8,o),
(537,13,o),
(531,25,cs),
(181,663,ls),
(179,667,o),
(176,668,o),
(171,667,cs),
(170,667,ls),
(166,666,o),
(163,664,o),
(163,659,cs),
(97,34,ls),
(96,20,o),
(94,8,o),
(75,8,cs)
);
}
);
vertWidth = 0;
width = 710;
},
{
layerId = m002;
shapes = (
{
closed = 1;
nodes = (
(156,-7.6,o),
(182.4,18.8,o),
(184.4,49.2,cs),
(234,520.4,l),
(505.6,29.2,ls),
(518.4,6.4,o),
(539.2,-7.6,o),
(571.2,-7.6,cs),
(617.2,-7.6,o),
(630.4,20.4,o),
(632.4,47.2,cs),
(701.6,708.4,ls),
(704.8,750,o),
(682,783.6,o),
(638,783.6,cs),
(601.6,783.6,o),
(573.2,762,o),
(568.4,724,cs),
(521.2,268.4,l),
(258.4,741.6,ls),
(243.2,769.2,o),
(218,779.6,o),
(189.2,779.6,cs),
(147.6,779.6,o),
(124,760.8,o),
(119.6,724,cs),
(50.4,58.8,ls),
(47.2,21.2,o),
(73.6,-7.6,o),
(113.2,-7.6,cs)
);
},
{
closed = 1;
nodes = (
(81.2,7.6,o),
(62.8,27.6,o),
(65.6,57.2,cs),
(134.4,722,ls),
(138,752,o),
(153.6,764.4,o),
(189.2,764.4,cs),
(214.4,764.4,o),
(232.8,757.2,o),
(245.6,734.4,cs),
(516.4,246,ls),
(518.4,242.4,o),
(521.6,240.8,o),
(526,241.6,cs),
(527.2,242,ls),
(531.6,242.8,o),
(534,245.2,o),
(534.4,249.6,cs),
(583.6,722,ls),
(587.2,752.8,o),
(607.6,768.4,o),
(638,768.4,cs),
(673.2,768.4,o),
(689.2,744.8,o),
(686.4,709.6,cs),
(617.6,48.8,ls),
(615.6,24.8,o),
(607.2,7.6,o),
(571.2,7.6,cs),
(544.4,7.6,o),
(529.6,17.2,o),
(518.4,36.8,cs),
(238.8,543.2,ls),
(236.8,546.8,o),
(233.6,548.4,o),
(229.2,547.2,cs),
(228,547.2,ls),
(223.6,546,o),
(221.2,543.6,o),
(220.8,539.2,cs),
(169.6,50.8,ls),
(167.6,26.4,o),
(148.8,7.6,o),
(113.2,7.6,cs)
);
}
);
vertWidth = 0;
width = 757;
}
);
},
{
glyphname = O.ss01;
kernLeft = O_left;
kernRight = O_right;
layers = (
{
layerId = m01;
shapes = (
{
closed = 1;
nodes = (
(413,-12,o),
(537,290,o),
(560,516,cs),
(576,654,o),
(499,780,o),
(350,780,cs),
(155,780,o),
(71,540,o),
(71,327,cs),
(71,151,o),
(109,-12,o),
(216,-12,cs)
);
},
{
closed = 1;
nodes = (
(122,3,o),
(86,154,o),
(86,327,cs),
(86,537,o),
(166,765,o),
(350,765,cs),
(490,765,o),
(560,649,o),
(546,518,cs),
(523,295,o),
(402,3,o),
(216,3,cs)
);
},
{
closed = 1;
nodes = (
(375,43,o),
(482,332,o),
(500,504,cs),
(514,633,o),
(464,726,o),
(344,726,cs),
(194,726,o),
(135,513,o),
(130,328,cs),
(125,181,o),
(154,43,o),
(211,43,cs)
);
},
{
closed = 1;
nodes = (
(168,58,o),
(141,183,o),
(144,328,cs),
(149,510,o),
(206,711,o),
(344,711,cs),
(455,711,o),
(498,628,o),
(486,506,cs),
(468,337,o),
(364,58,o),
(211,58,cs)
);
}
);
vertWidth = 0;
width = 605;
},
{
layerId = m002;
shapes = (
{
closed = 1;
nodes = (
(411.2,-12.4,o),
(580,248.4,o),
(606.4,509.2,cs),
(620.8,654,o),
(526.8,782.4,o),
(355.2,782.4,cs),
(179.2,782.4,o),
(56.4,622.4,o),
(56.4,326,cs),
(56.4,141.6,o),
(90.4,-12.4,o),
(239.2,-12.4,cs)
);
},
{
closed = 1;
nodes = (
(103.2,2.4,o),
(71.6,144,o),
(71.6,326,cs),
(71.6,616.4,o),
(187.6,767.6,o),
(355.2,767.6,cs),
(518.4,767.6,o),
(605.2,648.8,o),
(591.6,510.8,cs),
(565.6,254.4,o),
(402,2.4,o),
(239.2,2.4,cs)
);
},
{
closed = 1;
nodes = (
(337.2,94.4,o),
(469.2,331.6,o),
(486.4,506.4,cs),
(495.6,604.4,o),
(460.8,675.6,o),
(358,675.6,cs),
(241.2,675.6,o),
(175.6,522.4,o),
(175.6,328,cs),
(175.6,220.8,o),
(182,94.4,o),
(251.2,94.4,cs)
);
},
{
closed = 1;
nodes = (
(197.2,109.6,o),
(190.4,222.4,o),
(190.4,328,cs),
(190.4,518.4,o),
(252,660.4,o),
(358,660.4,cs),
(450.4,660.4,o),
(480.4,600.4,o),
(471.6,507.6,cs),
(454.8,336.4,o),
(326.8,109.6,o),
(251.2,109.6,cs)
);
}
);
vertWidth = 0;
width = 651;
},
{
associatedMasterId = m01;
layerId = "20C156BE-152D-4B18-BA16-9023BA2DA609";
name = background;
shapes = (
{
closed = 1;
nodes = (
(399,-5,o),
(522,293,o),
(545,517,cs),
(560,651,o),
(486,772,o),
(334,772,cs),
(188,772,o),
(125,662,o),
(87,486,cs),
(77,438,o),
(70,383,o),
(70,330,cs),
(67,170,o),
(105,-5,o),
(208,-5,cs)
);
},
{
closed = 1;
nodes = (
(147,50,o),
(129,211,o),
(129,318,cs),
(131,368,o),
(134,422,o),
(143,461,cs),
(176,625,o),
(226,718,o),
(329,718,cs),
(473,718,o),
(495,607,o),
(485,505,cs),
(465,312,o),
(347,50,o),
(203,50,cs)
);
}
);
vertWidth = 0;
width = 594;
},
{
associatedMasterId = m002;
layerId = "FECD28BB-41F6-409F-998E-C3EA8BC308B1";
name = background;
shapes = (
{
closed = 1;
nodes = (
(434,-5,o),
(582,287,o),
(605,510,cs),
(619,651,o),
(513,775,o),
(361,775,cs),
(209,775,o),
(125,659,o),
(87,487,cs),
(77,440,o),
(70,386,o),
(70,336,cs),
(68,178,o),
(89,-5,o),
(232,-5,cs)
);
},
{
closed = 1;
nodes = (
(194,102,o),
(188,222,o),
(189,320,cs),
(189,366,o),
(194,413,o),
(201,449,cs),
(232,600,o),
(272,668,o),
(364,668,cs),
(487,668,o),
(492,575,o),
(485,507,cs),
(466,334,o),
(335,102,o),
(244,102,cs)
);
}
);
vertWidth = 0;
width = 594;
}
);
},
{
glyphname = P.ss01;
kernLeft = H_left;
layers = (
{
layerId = m01;
shapes = (
{
closed = 1;
nodes = (
(108,-12,o),
(110,17,o),
(111,29,cs),
(145,342,l),
(360,346,o),
(533,400,o),
(548,560,cs),
(564,709,o),
(403,793,o),
(154,779,c),
(125,780,o),
(115,763,o),
(113,741,cs),
(38,33,l),
(34,12,o),
(48,-12,o),
(75,-12,cs)
);
},
{
closed = 1;
nodes = (
(57,3,o),
(50,15,o),
(52,31,cs),
(127,739,ls),
(129,757,o),
(134,765,o),
(154,765,cs),
(398,777,o),
(548,700,o),
(534,562,cs),
(519,411,o),
(354,360,o),
(138,356,cs),
(134,356,o),
(131,354,o),
(130,349,cs),
(97,31,ls),
(96,19,o),
(94,3,o),
(75,3,cs)
);
},
{
closed = 1;
nodes = (
(338,398,o),
(477,441,o),
(489,566,cs),
(500,664,o),
(384,734,o),
(178,727,cs),
(173,727,o),
(170,724,o),
(170,719,cs),
(136,403,ls),
(136,398,o),
(139,395,o),
(144,395,cs)
);
},
{
closed = 1;
nodes = (
(184,712,l),
(381,717,o),
(484,653,o),
(475,568,cs),
(463,454,o),
(339,415,o),
(152,411,c)
);
}
);
vertWidth = 0;
width = 532;
},
{
layerId = m002;
shapes = (
{
closed = 1;
nodes = (
(162,-14.4,o),
(180,16.8,o),
(183.6,45.2,cs),
(210.8,310.8,l),
(379.2,318.4,o),
(569.2,356.8,o),
(589.6,554,cs),
(608,720.8,o),
(434.4,786.4,o),
(182,782.4,cs),
(147.2,782.4,o),
(124,761.6,o),
(119.6,724,cs),
(49.6,58,ls),
(45.2,22,o),
(72.4,-14.4,o),
(116,-14.4,cs)
);
},
{
closed = 1;
nodes = (
(80.8,0.4,o),
(60.8,27.2,o),
(64.4,56,cs),
(134.4,722,ls),
(138,753.2,o),
(154,767.6,o),
(182,767.6,cs),
(430.8,771.6,o),
(592,710,o),
(574.4,556,cs),
(555.2,367.6,o),
(372.8,332.4,o),
(204.4,325.6,cs),
(199.6,325.2,o),
(196.8,322.8,o),
(196.4,318.4,cs),
(168.4,46.8,ls),
(165.6,22.4,o),
(152.8,0.4,o),
(116,0.4,cs)
);
},
{
closed = 1;
nodes = (
(334.4,426.4,o),
(458.8,460.4,o),
(470.4,560,cs),
(479.2,634.4,o),
(420.8,671.2,o),
(242,673.6,cs),
(236.8,673.6,o),
(234,671.2,o),
(233.6,666.4,cs),
(208.4,426,ls),
(208,421.2,o),
(210.8,418,o),
(216,418.4,cs)
);
},
{
closed = 1;
nodes = (
(247.6,658.4,l),
(415.2,655.6,o),
(462.8,625.2,o),
(455.6,562,cs),
(445.6,475.2,o),
(337.6,443.2,o),
(224.4,434,c)
);
}
);
vertWidth = 0;
width = 583;
},
{
associatedMasterId = m01;
layerId = "02DD8EBC-8F3A-4034-A466-F24C24D63358";
name = background;
shapes = (
{
closed = 1;
nodes = (
(329,361,o),
(512,381,o),
(531,565,cs),
(545,709,o),
(383,772,o),
(150,772,c),
(153,718,l),
(368,718,o),
(482,666,o),
(472,571,cs),
(457,436,o),
(301,416,o),
(129,416,c),
(125,361,l)
);
},
{
closed = 1;
nodes = (
(172,757,o),
(170,772,o),
(145,772,cs),
(119,772,o),
(113,759,o),
(110,740,cs),
(36,32,ls),
(33,14,o),
(44,-5,o),
(65,-5,cs),
(91,-5,o),
(94,18,o),
(95,30,cs),
(170,735,ls)
);
}
);
vertWidth = 0;
width = 594;
}
);
},
{
glyphname = Q.ss01;
kernLeft = O_left;
kernRight = O_right;
layers = (
{
layerId = m01;
shapes = (
{
closed = 1;
nodes = (
(275,-12,o),
(313,1,o),
(346,24,c),
(420,-45,ls),
(438,-63,o),
(466,-70,o),
(481,-55,cs),
(498,-40,o),
(492,-11,o),
(473,6,cs),
(403,73,l),
(500,179,o),
(565,365,o),
(580,516,cs),
(596,654,o),
(519,780,o),
(370,780,cs),
(175,780,o),
(91,540,o),
(91,327,cs),
(91,151,o),
(129,-12,o),
(236,-12,cs)
);
},
{
closed = 1;
nodes = (
(142,3,o),
(106,154,o),
(106,327,cs),
(106,537,o),
(186,765,o),
(370,765,cs),
(510,765,o),
(580,649,o),
(566,518,cs),
(549,365,o),
(484,181,o),
(386,78,cs),
(383,75,o),
(383,71,o),
(387,68,cs),
(463,-4,ls),
(478,-18,o),
(481,-35,o),
(471,-43,cs),
(462,-53,o),
(445,-49,o),
(430,-35,cs),
(353,39,ls),
(349,43,o),
(346,43,o),
(342,40,cs),
(309,16,o),
(274,2,o),
(236,3,cs)
);
},
{
closed = 1;
nodes = (
(261,42,o),
(288,51,o),
(313,65,cs),
(318,68,o),
(318,71,o),
(314,76,cs),
(269,118,ls),
(251,136,o),
(247,149,o),
(257,159,cs),
(266,170,o),
(284,165,o),
(302,149,cs),
(350,103,ls),
(354,99,o),
(357,99,o),
(360,103,cs),
(454,197,o),
(507,381,o),
(520,504,cs),
(534,633,o),
(484,726,o),
(364,726,cs),
(214,726,o),
(155,513,o),
(150,328,cs),
(145,181,o),
(174,43,o),
(231,43,cs)
);
},
{
closed = 1;
nodes = (
(188,58,o),
(161,183,o),
(164,328,cs),
(169,510,o),
(226,711,o),
(364,711,cs),
(475,711,o),
(518,628,o),
(506,506,cs),
(493,387,o),
(442,212,o),
(355,119,c),
(312,159,ls),
(291,180,o),
(261,188,o),
(245,169,cs),
(230,152,o),
(237,129,o),
(259,108,cs),
(295,73,l),
(275,63,o),
(254,58,o),
(231,58,cs)
);
}
);
vertWidth = 0;
width = 675;
},
{
layerId = m002;
shapes = (
{
closed = 1;
nodes = (
(274.4,-12.4,o),
(310.8,-0.8,o),
(344.8,18.8,c),
(408,-41.6,ls),
(438,-71,o),
(483.2,-80,o),
(508.8,-50,cs),
(532,-22,o),
(531,14,o),
(502.4,41.2,cs),
(439.2,101.6,l),
(526,201.6,o),
(590.8,356,o),
(606.4,509.2,cs),
(620.8,654.4,o),
(511.6,782.4,o),
(355.2,782.4,cs),
(179.2,782.4,o),
(56.4,622.4,o),
(56.4,326,cs),
(56.4,141.6,o),
(90.4,-12.4,o),
(239.2,-12.4,cs)
);
},
{
closed = 1;
nodes = (
(103.2,2.4,o),
(71.6,144,o),
(71.6,326,cs),
(71.6,616.4,o),
(187.6,767.6,o),
(355.2,767.6,cs),
(503.6,767.6,o),
(605.2,648.4,o),
(591.6,510.8,cs),
(575.6,356.8,o),
(510.4,204,o),
(423.2,106.4,cs),
(420,102.8,o),
(420,99,o),
(423.6,95.6,cs),
(491.6,30.8,ls),
(515,8,o),
(516.4,-17.6,o),
(497.2,-40,cs),
(478.4,-62.8,o),
(445,-56,o),
(418,-30.4,cs),
(352,32.8,ls),
(349,36,o),
(345.2,36.4,o),
(341.6,34,cs),
(307.6,13.6,o),
(273.6,2.4,o),
(239.2,2.4,cs)
);
},
{
closed = 1;
nodes = (
(238,96,o),
(244,94,o),
(251.2,94.4,cs),
(270,94,o),
(278,105,o),
(264,117.6,cs),
(257,124,ls),
(235,145,o),
(238,168,o),
(253.6,186.4,cs),
(271.6,208.4,o),
(301,207,o),
(332,182,cs),
(344.4,172,ls),
(349,169,o),
(351.6,168.8,o),
(354.8,172.8,cs),
(416.4,256.8,o),
(475.6,393.6,o),
(486.4,506.4,cs),
(495.6,604,o),
(468.8,675.6,o),
(358,675.6,cs),
(241.2,675.6,o),
(175.6,522.4,o),
(175.6,328,cs),
(176,232,o),
(181,120,o),
(232,98,cs)
);
},
{
closed = 1;
nodes = (
(196,135,o),
(190,234,o),
(190.4,328,cs),
(190.4,518.4,o),
(252,660.4,o),
(358,660.4,cs),
(458,660.4,o),
(480.4,600.8,o),
(471.6,507.6,cs),
(460.8,400.8,o),
(406.8,272.4,o),
(348,189.6,c),
(342,194,ls),
(304,222,o),
(265.2,224.4,o),
(242.4,195.6,cs),
(223,174,o),
(220,143,o),
(244,117,cs),
(250.8,109.6,l),
(247,110,o),
(243,111,o),
(239,113,cs)
);
}
);
vertWidth = 0;
width = 651;
},
{
associatedMasterId = m002;
layerId = "0DB79B60-F0F0-4AE5-8CEA-03AE86B091EC";
name = background;
shapes = (
{
closed = 1;
nodes = (
(525,-20,o),
(523,11,o),
(498,36,cs),
(340,188,l),
(307,214,o),
(270,216,o),
(249,191,cs),
(230,169,o),
(230,139,o),
(260,112,cs),
(415,-36,ls),
(443,-62,o),
(482,-71,o),
(504,-45,cs)
);
},
{
closed = 1;
nodes = (
(429,-5,o),
(577,287,o),
(600,510,cs),
(614,651,o),
(508,775,o),
(356,775,cs),
(204,775,o),
(120,659,o),
(82,487,cs),
(72,440,o),
(65,386,o),
(65,336,cs),
(63,178,o),
(84,-5,o),
(227,-5,cs)
);
},
{
closed = 1;
nodes = (
(189,102,o),
(183,222,o),
(184,320,cs),
(184,366,o),
(189,413,o),
(196,449,cs),
(227,600,o),
(267,668,o),
(359,668,cs),
(482,668,o),
(487,573,o),
(480,505,cs),
(461,331,o),
(330,102,o),
(239,102,cs)
);
}
);
vertWidth = 0;
width = 594;
}
);
},
{
glyphname = R.ss01;
kernLeft = H_left;
layers = (
{
layerId = m01;
shapes = (
{
closed = 1;
nodes = (
(125,-7,o),
(127,18,o),
(129,36,cs),
(162,346,l),
(416,18,ls),
(429,1,o),
(447,-7,o),
(459,-7,cs),
(474,-7,o),
(488,3,o),
(492,16,cs),
(495,27,o),
(492,43,o),
(477,64,cs),
(244,363,l),
(420,389,o),
(546,467,o),
(555,576,cs),
(568,726,o),
(428,792,o),
(171,779,cs),
(140,780,o),
(132,762,o),
(130,741,cs),
(56,40,ls),
(53,17,o),
(64,-7,o),
(92,-7,cs)
);
},
{
closed = 1;
nodes = (
(75,8,o),
(69,20,o),
(70,38,cs),
(144,739,ls),
(146,757,o),
(150,765,o),
(171,765,cs),
(423,776,o),
(552,715,o),
(541,578,cs),
(532,474,o),
(406,399,o),
(226,376,cs),
(220,375,o),
(219,371,o),
(222,366,cs),
(465,54,ls),
(478,37,o),
(479,27,o),
(478,20,cs),
(476,13,o),
(469,8,o),
(459,8,cs),
(451,8,o),
(439,13,o),
(428,28,cs),
(166,365,ls),
(164,368,o),
(161,370,o),
(157,370,cs),
(152,370,o),
(149,367,o),
(149,363,cs),
(115,38,ls),
(113,20,o),
(111,8,o),
(92,8,cs)
);
},
{
closed = 1;
nodes = (
(345,415,o),
(485,489,o),
(495,582,cs),
(507,680,o),
(401,736,o),
(195,726,cs),
(190,726,o),
(187,724,o),
(187,719,cs),
(155,414,ls),
(154,409,o),
(157,406,o),
(162,406,cs)
);
},
{
closed = 1;
nodes = (
(201,712,l),
(398,720,o),
(491,669,o),
(481,584,cs),
(471,501,o),
(344,432,o),
(170,422,c)
);
}
);
vertWidth = 0;
width = 622;
},
{
layerId = m002;
shapes = (
{
closed = 1;
nodes = (
(154,-7.6,o),
(178,16.8,o),
(183.6,62,cs),
(208.4,300,l),
(422,22.4,ls),
(443.2,-5.2,o),
(467.6,-7.6,o),
(484,-7.6,cs),
(508.4,-7.6,o),
(534.4,4.8,o),
(544.8,28,cs),
(552.4,44.4,o),
(556,70.8,o),
(542,88.4,cs),
(354.8,340.4,l),
(498,373.6,o),
(603.2,440,o),
(612.4,559.6,cs),
(626,745.2,o),
(463.6,793.6,o),
(190,779.6,c),
(150,779.6,o),
(124,762,o),
(119.6,724,cs),
(50.4,71.6,ls),
(47.2,30,o),
(63.2,-7.6,o),
(108,-7.6,cs)
);
},
{
closed = 1;
nodes = (
(74,7.6,o),
(62.8,33.2,o),
(65.6,70.4,cs),
(134.4,722,ls),
(138,752.8,o),
(155.2,764.4,o),
(190,764.4,c),
(461.2,778.4,o),
(610,733.6,o),
(597.6,560.4,cs),
(588.4,446,o),
(485.2,383.6,o),
(338.4,352,cs),
(332.8,350.8,o),
(331.2,346.8,o),
(334.4,342.4,cs),
(530,79.6,ls),
(540,66.8,o),
(537.6,48,o),
(531.2,34,cs),
(523.2,16.4,o),
(504.4,7.6,o),
(484,7.6,cs),
(468.4,7.6,o),
(450.8,9.2,o),
(434,31.6,cs),
(205.6,326.8,ls),
(203,329,o),
(201,330,o),
(199,329,cs),
(197,328,o),
(196,327,o),
(196,323.6,cs),
(168.4,64,ls),
(164,24.4,o),
(146.8,7.6,o),
(108,7.6,cs)
);
},
{
closed = 1;
nodes = (
(379.2,425.6,o),
(483.6,491.2,o),
(493.6,568,cs),
(502,654.8,o),
(443.6,686.4,o),
(241.6,679.6,cs),
(236.8,679.2,o),
(234,676.8,o),
(233.6,672.4,cs),
(206.4,419.2,ls),
(206,414,o),
(208.8,411.2,o),
(214,411.6,cs)
);
},
{
closed = 1;
nodes = (
(247.6,664.8,l),
(438.4,670.8,o),
(486,644.8,o),
(478.4,570,cs),
(470,502.8,o),
(377.2,442.8,o),
(222.4,427.2,c)
);
}
);
vertWidth = 0;
width = 628;
},
{
associatedMasterId = m01;
layerId = "10B39192-80BD-4D86-8859-A41096DFFBAE";
name = background;
shapes = (
{
closed = 1;
nodes = (
(342,361,o),
(535,381,o),
(554,565,cs),
(568,709,o),
(400,784,o),
(151,772,c),
(154,718,l),
(375,729,o),
(505,665,o),
(494,571,cs),
(480,437,o),
(312,416,o),
(121,416,c),
(116,361,l)
);
},
{
closed = 1;
nodes = (
(115,379,l),
(436,23,ls),
(449,7,o),
(459,0,o),
(468,0,cs),
(480,0,o),
(492,8,o),
(494,18,cs),
(497,27,o),
(499,40,o),
(491,50,cs),
(195,379,l)
);
},
{
closed = 1;
nodes = (
(173,757,o),
(171,772,o),
(146,772,cs),
(120,772,o),
(114,759,o),
(112,740,cs),
(38,39,ls),
(36,19,o),
(45,0,o),
(67,0,cs),
(93,0,o),
(95,19,o),
(97,37,cs),
(171,735,ls)
);
}
);
vertWidth = 0;
width = 594;
}
);
},
{
glyphname = S.ss01;
layers = (
{
layerId = m01;
shapes = (
{
closed = 1;
nodes = (
(331,-12,o),
(436,53,o),
(450,191,cs),
(463,310,o),
(387,390,o),
(291,445,cs),
(194,500,o),
(137,544,o),
(143,607,cs),
(150,672,o),
(211,715,o),
(322,715,cs),
(379,715,o),
(413,688,o),
(427,647,cs),
(434,628,o),
(456,619,o),
(475,625,cs),
(497,632,o),
(500,656,o),
(491,680,cs),
(471,738,o),
(415,785,o),
(319,785,cs),
(163,785,o),
(82,705,o),
(72,614,cs),
(62,515,o),
(143,443,o),
(238,389,cs),
(342,330,o),
(384,278,o),
(378,202,cs),
(368,102,o),
(290,58,o),
(209,58,cs),
(136,58,o),
(97,86,o),
(87,120,cs),
(82,144,o),
(59,153,o),
(39,147,cs),
(15,141,o),
(13,116,o),
(19,95,cs),
(35,30,o),
(105,-12,o),
(190,-12,cs)
);
},
{
closed = 1;
nodes = (
(110,3,o),
(48,41,o),
(33,99,cs),
(29,117,o),
(30,129,o),
(43,133,cs),
(58,137,o),
(69,132,o),
(73,116,cs),
(84,76,o),
(131,43,o),
(209,43,cs),
(295,43,o),
(382,92,o),
(392,200,cs),
(400,283,o),
(352,342,o),
(246,403,cs),
(152,455,o),
(78,521,o),
(86,612,cs),
(96,697,o),
(170,770,o),
(319,770,cs),
(409,770,o),
(459,729,o),
(477,674,cs),
(484,655,o),
(482,643,o),
(471,639,cs),
(457,635,o),
(446,640,o),
(441,653,cs),
(425,698,o),
(385,730,o),
(322,730,cs),
(206,730,o),
(136,681,o),
(129,609,cs),
(121,537,o),
(185,488,o),
(283,431,cs),
(377,378,o),
(447,304,o),
(436,193,cs),
(422,62,o),
(326,3,o),
(190,3,cs)
);
}
);
vertWidth = 0;
width = 516;
},
{
layerId = m002;
shapes = (
{
closed = 1;
nodes = (
(352.4,-9.6,o),
(488.8,55.6,o),
(504.4,199.2,cs),
(520,342.4,o),
(426.4,419.2,o),
(344.8,467.6,cs),
(272,510.4,o),
(192,558.8,o),
(197.6,603.2,cs),
(202.8,644,o),
(246.8,664.4,o),
(317.2,664.4,cs),
(384.4,664.4,o),
(409.2,652.4,o),
(418,628.4,cs),
(432.4,589.6,o),
(468,574.8,o),
(506.4,586.8,cs),
(539.2,598.4,o),
(552,626.4,o),
(543.2,659.2,cs),
(518,748.8,o),
(456,785.6,o),
(335.2,785.6,cs),
(168,785.6,o),
(73.2,723.2,o),
(60.4,607.6,cs),
(48,488.8,o),
(183.2,406.8,o),
(260.4,362.4,cs),
(343.2,316,o),
(382.4,267.6,o),
(376.4,204.8,cs),
(370.8,149.6,o),
(314,119.6,o),
(232,119.6,cs),
(159.6,119.6,o),
(143.6,127.6,o),
(134,150,cs),
(117.2,190,o),
(72.4,202,o),
(40.8,191.2,cs),
(12,182.4,o),
(-12.4,152.4,o),
(-2.4,118.8,cs),
(18.8,34.4,o),
(97.2,-9.6,o),
(233.2,-9.6,cs)
);
},
{
closed = 1;
nodes = (
(102,5.6,o),
(31.6,44.8,o),
(12.4,123.2,c),
(4.4,148.4,o),
(21.2,169.6,o),
(45.2,176.8,cs),
(72.4,186,o),
(106.4,176.8,o),
(120,144,cs),
(132.4,115.6,o),
(155.6,104.4,o),
(232,104.4,cs),
(318.8,104.4,o),
(384.8,139.6,o),
(391.6,203.2,cs),
(397.6,272.8,o),
(353.6,327.6,o),
(267.6,375.6,cs),
(190.8,419.6,o),
(64,496.8,o),
(75.6,606.4,cs),
(87.2,713.6,o),
(173.2,770.4,o),
(335.2,770.4,cs),
(450.8,770.4,o),
(505.6,738,o),
(528.8,654.8,cs),
(536,628.8,o),
(527.6,610,o),
(501.6,601.2,cs),
(469.2,590.8,o),
(444,601.6,o),
(432,633.6,cs),
(420.8,664,o),
(388.4,679.6,o),
(317.2,679.6,cs),
(242.4,679.6,o),
(189.2,654.8,o),
(182.4,604.8,cs),
(176,550.4,o),
(263.6,498,o),
(337.2,454.4,cs),
(417.6,406.8,o),
(504,335.6,o),
(489.6,200.8,cs),
(474.8,66,o),
(348.4,5.6,o),
(233.2,5.6,cs)
);
}
);
vertWidth = 0;
width = 557;
},
{
associatedMasterId = m002;
layerId = "978B32C5-E304-42DF-BBEA-C5F78DFF1767";
name = background;
shapes = (
{
closed = 1;
nodes = (
(204,112,o),
(184,122,o),
(177,147,cs),
(168,182,o),
(127,190,o),
(102,183,cs),
(72,176,o),
(62,150,o),
(70,121,cs),
(90,40,o),
(146,0,o),
(234,0,cs),
(397,0,o),
(524,61,o),
(541,207,cs),
(554,339,o),
(453,405,o),
(375,457,cs),
(312,500,o),
(221,548,o),
(219,581,cs),
(215,626,o),
(290,666,o),
(383,666,cs),
(435,666,o),
(455,658,o),
(461,631,cs),
(469,595,o),
(514,587,o),
(539,594,cs),
(569,604,o),
(577,628,o),
(571,657,cs),
(549,744,o),
(488,778,o),
(371,778,cs),
(207,778,o),
(96,687,o),
(103,576,cs),
(112,472,o),
(234,418,o),
(302,372,cs),
(381,316,o),
(431,270,o),
(426,219,cs),
(419,145,o),
(362,112,o),
(278,112,cs)
);
}
);
vertWidth = 0;
width = 594;
}
);
},
{
glyphname = T.ss01;
layers = (
{
layerId = m01;
shapes = (
{
closed = 1;
nodes = (
(210,-7,o),
(218,19,o),
(221,39,cs),
(291,706,l),
(458,706,ls),
(488,706,o),
(495,726,o),
(495,743,cs),
(495,760,o),
(484,780,o),
(455,780,cs),
(58,780,ls),
(28,780,o),
(21,759,o),
(21,743,cs),
(21,725,o),
(33,706,o),
(62,706,cs),
(217,706,l),
(147,45,ls),
(144,18,o),
(152,-7,o),
(180,-7,cs)
);
},
{
closed = 1;
nodes = (
(164,8,o),
(160,21,o),
(161,43,cs),
(233,713,ls),
(233,718,o),
(231,720,o),
(225,720,cs),
(62,721,ls),
(42,721,o),
(36,730,o),
(36,743,cs),
(36,756,o),
(39,765,o),
(58,765,cs),
(455,765,ls),
(475,765,o),
(480,755,o),
(480,743,cs),
(480,729,o),
(477,721,o),
(458,721,cs),
(285,720,ls),
(280,720,o),
(277,718,o),
(277,713,cs),
(207,41,ls),
(204,23,o),
(199,8,o),
(180,8,cs)
);
}
);
vertWidth = 0;
width = 453;
},
{
layerId = m002;
shapes = (
{
closed = 1;
nodes = (
(263.6,-9.6,o),
(285.2,22.8,o),
(287.6,50.4,cs),
(351.6,661.6,l),
(494,661.6,ls),
(536.4,661.6,o),
(557.6,689.6,o),
(557.6,721.2,cs),
(557.6,756.4,o),
(525.6,783.6,o),
(486,783.6,cs),
(88,783.6,ls),
(47.6,783.6,o),
(26.8,755.6,o),
(25.6,721.2,cs),
(24.4,688.8,o),
(54,661.6,o),
(96,661.6,cs),
(216.8,661.6,l),
(154.4,58.8,ls),
(150,21.6,o),
(178.8,-9.6,o),
(220,-9.6,cs)
);
},
{
closed = 1;
nodes = (
(186.4,5.6,o),
(166,27.6,o),
(169.6,57.2,cs),
(232.4,668.4,ls),
(232.8,673.6,o),
(230.4,676.4,o),
(225.2,676.4,cs),
(96,676.4,ls),
(60.8,676.4,o),
(39.6,696,o),
(40.4,720.8,cs),
(41.6,749.2,o),
(55.6,768.4,o),
(88,768.4,cs),
(486,768.4,ls),
(519.2,768.4,o),
(542.4,748.4,o),
(542.4,721.2,cs),
(542.4,695.6,o),
(528.4,676.4,o),
(494,676.4,cs),
(345.6,676.4,ls),
(340.8,676.4,o),
(338,674,o),
(337.6,669.2,cs),
(272.4,51.6,ls),
(270.8,28.4,o),
(255.2,5.6,o),
(220,5.6,cs)
);
}
);
vertWidth = 0;
width = 529;
}
);
},
{
glyphname = U.ss01;
kernLeft = H_left;
kernRight = H_right;
layers = (
{
layerId = m01;
shapes = (
{
closed = 1;
nodes = (
(260,-12,o),
(388,113,o),
(487,325,c),
(456,33,ls),
(453,5,o),
(474,-8,o),
(493,-8,cs),
(510,-8,o),
(528,3,o),
(530,25,cs),
(606,740,ls),
(609,762,o),
(596,780,o),
(569,780,cs),
(543,780,o),
(534,761,o),
(533,745,cs),
(519,621,l),
(464,277,o),
(238,58,o),
(182,58,cs),
(134,58,o),
(141,137,o),
(150,213,cs),
(209,734,ls),
(213,756,o),
(198,780,o),
(175,780,cs),
(151,780,o),
(137,760,o),
(135,738,cs),
(76,218,ls),
(58,59,o),
(101,-12,o),
(178,-12,cs)
);
},
{
closed = 1;
nodes = (
(111,3,o),
(74,64,o),
(90,216,cs),
(149,736,ls),
(151,753,o),
(160,765,o),
(175,765,cs),
(189,765,o),
(197,751,o),
(195,736,cs),
(136,215,ls),
(126,138,o),
(117,43,o),
(182,43,cs),
(247,43,o),
(478,270,o),
(533,619,c),
(547,743,ls),
(548,756,o),
(553,765,o),
(569,765,cs),
(587,765,o),
(593,757,o),
(592,742,cs),
(516,27,ls),
(514,12,o),
(505,7,o),
(493,7,cs),
(479,7,o),
(469,14,o),
(470,31,cs),
(507,364,ls),
(507,369,o),
(505,372,o),
(501,373,cs),
(500,373,ls),
(495,374,o),
(492,373,o),
(490,368,cs),
(390,137,o),
(258,2,o),
(178,3,cs)
);
}
);
vertWidth = 0;
width = 731;
},
{
layerId = m002;
shapes = (
{
closed = 1;
nodes = (
(290,-12.4,o),
(380.4,85.6,o),
(468,236.8,c),
(449.6,58.8,ls),
(446,14.4,o),
(478.8,-7.6,o),
(516,-7.6,cs),
(547.6,-7.6,o),
(578,8.4,o),
(582.4,51.2,cs),
(653.6,714,ls),
(658,751.6,o),
(631.2,779.6,o),
(587.2,779.6,cs),
(550.8,779.6,o),
(522.8,758.8,o),
(519.6,727.6,cs),
(508.4,618.8,l),
(470,383.2,o),
(261.2,109.6,o),
(216,109.6,cs),
(196,109.6,o),
(194.4,148.8,o),
(203.6,231.2,cs),
(256.4,712,ls),
(261.2,750.8,o),
(231.2,779.6,o),
(192,779.6,cs),
(148,780.8,o),
(125.6,744.4,o),
(123.6,720.8,cs),
(68.4,232.8,ls),
(50,65.2,o),
(93.6,-12.4,o),
(200,-12.4,cs)
);
},
{
closed = 1;
nodes = (
(103.2,2.4,o),
(65.6,69.6,o),
(83.6,231.2,cs),
(138.4,719.2,ls),
(140.4,738.4,o),
(157.2,765.2,o),
(192,764.4,cs),
(224,764.4,o),
(245.2,744,o),
(241.6,714,cs),
(188.4,232.8,ls),
(179.2,148.4,o),
(180.8,94.4,o),
(216,94.4,cs),
(272,94.4,o),
(484.4,378,o),
(523.6,617.2,c),
(534.4,726.4,ls),
(537.2,750,o),
(556.4,764.4,o),
(587.2,764.4,cs),
(623.6,764.4,o),
(642,745.2,o),
(638.4,716,cs),
(567.6,52.8,ls),
(564,18.8,o),
(543.2,7.6,o),
(516,7.6,cs),
(484.4,7.6,o),
(462,22.8,o),
(464.4,57.2,cs),
(485.6,264.4,ls),
(486,268.8,o),
(484.4,272,o),
(480,273.2,cs),
(478.8,273.6,ls),
(474.4,274.8,o),
(471.2,273.6,o),
(469.2,269.6,cs),
(378.4,106,o),
(287.2,2.4,o),
(200,2.4,cs)
);
}
);
vertWidth = 0;
width = 708;
},
{
associatedMasterId = m01;
layerId = "85A0CC84-4628-44F1-A8D5-F145C07A2F77";
name = background;
shapes = (
{
closed = 1;
nodes = (
(244,-5,o),
(373,140,o),
(465,336,c),
(492,388,l),
(525,618,l),
(513,618,l),
(510,605,l),
(495,555,o),
(437,417,o),
(422,380,cs),
(352,228,o),
(215,50,o),
(156,50,cs),
(100,50,o),
(108,138,o),
(116,214,cs),
(176,735,ls),
(178,753,o),
(166,772,o),
(149,772,cs),
(129,772,o),
(118,756,o),
(115,737,cs),
(57,217,ls),
(39,62,o),
(82,-5,o),
(152,-5,cs)
);
},
{
closed = 1;
nodes = (
(481,-1,o),
(494,8,o),
(497,26,cs),
(573,741,ls),
(575,759,o),
(564,772,o),
(543,772,cs),
(522,772,o),
(514,758,o),
(513,744,cs),
(437,32,ls),
(435,10,o),
(450,-1,o),
(467,-1,cs)
);
}
);
vertWidth = 0;
width = 594;
},
{
associatedMasterId = m002;
layerId = "C456C70A-B9F0-4BB4-8B22-984771EF7C04";
name = background;
shapes = (
{
closed = 1;
nodes = (
(299,-5,o),
(400,116,o),
(504,307,c),
(544,645,l),
(522,645,l),
(514,606,ls),
(495,503,o),
(461,432,o),
(441,400,cs),
(390,315,o),
(266,102,o),
(210,102,cs),
(188,102,o),
(185,149,o),
(194,220,cs),
(248,713,ls),
(252,747,o),
(226,772,o),
(191,772,cs),
(152,773,o),
(132,741,o),
(129,720,cs),
(75,232,ls),
(57,68,o),
(112,-5,o),
(198,-5,cs)
);
},
{
closed = 1;
nodes = (
(544,0,o),
(570,14,o),
(574,52,cs),
(645,715,ls),
(649,748,o),
(626,772,o),
(586,772,cs),
(552,772,o),
(529,754,o),
(526,727,cs),
(456,58,ls),
(453,19,o),
(481,0,o),
(514,0,cs)
);
}
);
vertWidth = 0;
width = 594;
}
);
},
{
glyphname = V.ss01;
kernLeft = V_left;
kernRight = V_right;
layers = (
{
layerId = m01;
shapes = (
{
closed = 1;
nodes = (
(253,-7,o),
(257,11,o),
(264,27,cs),
(546,731,ls),
(558,761,o),
(542,780,o),
(519,780,cs),
(492,780,o),
(481,768,o),
(471,746,cs),
(256,206,l),
(238,154,l),
(231,202,l),
(148,745,ls),
(146,758,o),
(140,780,o),
(108,780,cs),
(81,780,o),
(71,761,o),
(75,740,cs),
(183,32,ls),
(185,15,o),
(198,-7,o),
(224,-7,cs)
);
},
{
closed = 1;
nodes = (
(207,8,o),
(199,21,o),
(197,34,cs),
(89,742,ls),
(87,758,o),
(90,765,o),
(108,765,cs),
(128,765,o),
(132,754,o),
(134,743,cs),
(217,200,l),
(226,128,ls),
(226,123,o),
(229,121,o),
(233,120,cs),
(235,120,ls),
(239,120,o),
(242,122,o),
(243,126,cs),
(270,200,l),
(485,740,ls),
(493,759,o),
(499,765,o),
(519,765,cs),
(534,765,o),
(540,757,o),
(532,737,cs),
(250,33,ls),
(243,15,o),
(241,8,o),
(224,8,cs)
);
}
);
vertWidth = 0;
width = 548;
},
{
layerId = m002;
shapes = (
{
closed = 1;
nodes = (
(262.8,-9.6,o),
(284.4,13.6,o),
(294,37.2,cs),
(566.8,699.2,ls),
(585.2,746,o),
(554.8,779.6,o),
(512,779.6,cs),
(475.2,779.6,o),
(448.4,763.6,o),
(437.2,736.8,cs),
(280,363.6,l),
(254.4,290.4,l),
(245.6,362,l),
(186.4,726,ls),
(182,756.8,o),
(153.6,779.6,o),
(112,779.6,cs),
(73.2,779.6,o),
(46.8,756.8,o),
(53.6,716.8,cs),
(158.8,50.8,ls),
(164,19.2,o),
(184.4,-8.4,o),
(224.8,-9.6,cs)
);
},
{
closed = 1;
nodes = (
(192.8,6.4,o),
(178,26,o),
(173.2,53.2,cs),
(68.4,719.2,ls),
(63.2,750,o),
(79.6,764.4,o),
(112,764.4,cs),
(147.2,764.4,o),
(168,748,o),
(171.6,724,cs),
(230.4,360,l),
(242.8,264,ls),
(243.2,259.2,o),
(245.6,256.8,o),
(250.4,256.4,cs),
(251.2,256.4,ls),
(256,256,o),
(258.8,257.6,o),
(260.4,262,cs),
(294,358.4,l),
(450.8,731.2,ls),
(460,752.8,o),
(480,764.4,o),
(512,764.4,cs),
(546.8,764.4,o),
(567.2,741.6,o),
(553.2,704.8,cs),
(280,42.8,ls),
(271.6,22,o),
(255.6,5.6,o),
(225.2,5.6,cs)
);
}
);
vertWidth = 0;
width = 550;
}
);
},
{
glyphname = W.ss01;
kernLeft = V_left;
kernRight = V_right;
layers = (
{
layerId = m01;
shapes = (
{
closed = 1;
nodes = (
(252,-7,o),
(260,16,o),
(264,29,c),
(483,586,l),
(498,635,l),
(504,583,l),
(587,29,ls),
(589,12,o),
(601,-7,o),
(626,-7,cs),
(653,-7,o),
(660,10,o),
(667,27,cs),
(950,731,ls),
(963,762,o),
(942,780,o),
(920,780,cs),
(894,780,o),
(886,769,o),
(875,746,cs),
(669,226,l),
(638,133,l),
(629,229,l),
(552,745,ls),
(550,759,o),
(544,780,o),
(509,780,cs),
(486,780,o),
(473,761,o),
(468,747,cs),
(266,228,l),
(236,137,l),
(225,226,l),
(148,745,ls),
(146,758,o),
(140,780,o),
(108,780,cs),
(81,780,o),
(71,761,o),
(75,740,cs),
(183,32,ls),
(185,10,o),
(202,-7,o),
(223,-7,cs)
);
},
{
closed = 1;
nodes = (
(209,8,o),
(199,17,o),
(197,34,cs),
(89,742,ls),
(87,758,o),
(90,765,o),
(108,765,cs),
(128,765,o),
(132,754,o),
(134,743,cs),
(211,224,l),
(224,109,ls),
(224,104,o),
(227,102,o),
(231,101,cs),
(233,101,ls),
(237,101,o),
(240,103,o),
(241,107,cs),
(280,222,l),
(482,741,ls),
(487,754,o),
(494,765,o),
(509,765,cs),
(533,765,o),
(536,755,o),
(538,743,cs),
(615,227,l),
(626,103,ls),
(626,99,o),
(629,96,o),
(633,96,cs),
(634,96,ls),
(639,95,o),
(642,97,o),
(643,101,cs),
(683,220,l),
(889,740,l),
(898,761,o),
(901,765,o),
(920,765,cs),
(934,765,o),
(945,757,o),
(936,737,cs),
(653,33,ls),
(646,16,o),
(643,8,o),
(626,8,cs),
(610,8,o),
(603,18,o),
(601,31,cs),
(518,585,l),
(509,667,ls),
(509,672,o),
(506,674,o),
(502,675,c),
(501,675,l),
(496,675,o),
(493,673,o),
(492,669,cs),
(469,590,l),
(250,33,l),
(246,20,o),
(242,8,o),
(223,8,cs)
);
}
);
vertWidth = 0;
width = 953;
},
{
layerId = m002;
shapes = (
{
closed = 1;
nodes = (
(268.8,-7.6,o),
(298.8,11.2,o),
(314,48.4,cs),
(480,486.4,l),
(489.2,514,l),
(491.6,488,l),
(559.6,36.8,ls),
(563.2,13.2,o),
(588.4,-7.6,o),
(627.2,-7.6,cs),
(667.6,-7.6,o),
(686,8.8,o),
(696.8,36,cs),
(968.8,699.2,ls),
(982.8,733.2,o),
(961.2,779.6,o),
(911.2,779.6,cs),
(869.2,779.6,o),
(846.8,752.4,o),
(839.2,734.8,cs),
(678,330.8,l),
(652,261.2,l),
(644.4,328.8,l),
(587.6,726,ls),
(581.6,758.8,o),
(554.4,779.6,o),
(510,779.6,cs),
(468,779.6,o),
(447.6,757.6,o),
(436.8,729.6,cs),
(284,331.6,l),
(252.4,245.6,l),
(241.6,334,l),
(186.4,726,ls),
(183.2,756.8,o),
(154.4,779.6,o),
(113.2,779.6,cs),
(74.4,779.6,o),
(46.8,757.2,o),
(53.6,716.8,cs),
(154.4,50.8,ls),
(159.2,13.2,o),
(186.8,-7.6,o),
(229.2,-7.6,cs)
);
},
{
closed = 1;
nodes = (
(192.4,7.6,o),
(173.2,22,o),
(169.6,53.2,cs),
(68.4,719.2,ls),
(63.2,750,o),
(80.8,764.4,o),
(113.2,764.4,cs),
(148.4,764.4,o),
(168.8,748,o),
(171.6,724,cs),
(226.4,332,l),
(240.8,220,ls),
(241.2,215.2,o),
(243.6,212.8,o),
(248.4,212.4,cs),
(249.2,212.4,ls),
(254,212,o),
(256.8,213.6,o),
(258.4,218,cs),
(298,326.4,l),
(451.2,724.4,ls),
(460.4,748.8,o),
(475.2,764.4,o),
(510,764.4,cs),
(548.4,764.4,o),
(568,749.6,o),
(572.4,724,cs),
(629.6,327.2,l),
(639.6,234.8,ls),
(640,230.4,o),
(642.8,227.6,o),
(647.2,227.2,cs),
(648.4,227.2,ls),
(653.2,226.8,o),
(656,228.4,o),
(657.6,232.8,cs),
(692,325.2,l),
(852.8,729.2,ls),
(859.6,744,o),
(876.4,764.4,o),
(911.2,764.4,cs),
(951.2,764.4,o),
(966,730.8,o),
(955.2,704.8,cs),
(683.2,42,ls),
(673.6,18.4,o),
(661.2,7.6,o),
(627.2,7.6,cs),
(594.8,7.6,o),
(576.8,22,o),
(574.4,39.2,cs),
(506.4,490,l),
(501.2,544,ls),
(500.8,548.4,o),
(498,551.2,o),
(493.6,551.6,cs),
(492.8,551.6,ls),
(488.4,552,o),
(485.2,550.4,o),
(484,546,cs),
(466,491.6,l),
(300,53.6,ls),
(286.8,22,o),
(264,7.6,o),
(229.2,7.6,cs)
);
}
);
vertWidth = 0;
width = 952;
}
);
},
{
glyphname = X.ss01;
layers = (
{
layerId = m01;
shapes = (
{
closed = 1;
nodes = (
(457,5,o),
(469,23,o),
(458,45,cs),
(308,380,l),
(529,719,ls),
(542,740,o),
(539,762,o),
(524,772,cs),
(509,784,o),
(481,783,o),
(467,761,cs),
(271,461,l),
(141,753,ls),
(130,779,o),
(100,785,o),
(84,778,c),
(65,771,o),
(61,751,o),
(71,726,cs),
(220,394,l),
(-6,49,ls),
(-19,32,o),
(-13,11,o),
(1,1,c),
(17,-12,o),
(43,-10,o),
(57,11,cs),
(257,313,l),
(387,21,ls),
(399,-6,o),
(425,-12,o),
(445,-3,cs)
);
},
{
closed = 1;
nodes = (
(424,4,o),
(409,7,o),
(401,27,cs),
(264,335,ls),
(261,340,o),
(257,341,o),
(253,335,cs),
(45,19,ls),
(35,5,o),
(21,4,o),
(11,13,cs),
(1,20,o),
(-2,29,o),
(6,41,cs),
(234,388,ls),
(236,391,o),
(237,394,o),
(235,398,cs),
(85,732,ls),
(77,752,o),
(79,760,o),
(90,764,cs),
(101,769,o),
(120,765,o),
(127,747,cs),
(264,439,ls),
(267,433,o),
(271,433,o),
(274,438,cs),
(479,753,ls),
(489,768,o),
(505,768,o),
(516,760,cs),
(524,754,o),
(526,742,o),
(517,727,cs),
(294,386,ls),
(292,383,o),
(291,380,o),
(293,376,cs),
(444,39,ls),
(451,24,o),
(446,16,o),
(437,11,cs)
);
}
);
vertWidth = 0;
width = 534;
},
{
layerId = m002;
shapes = (
{
closed = 1;
nodes = (
(500.4,15.2,o),
(512.4,42.4,o),
(498,75.2,cs),
(359.6,383.2,l),
(562.4,682.8,ls),
(583.6,714.4,o),
(574,744,o),
(548.8,764.8,cs),
(524,786,o),
(470.4,787.6,o),
(448.8,754,cs),
(299.2,518,l),
(198.8,743.2,ls),
(181.6,780.8,o),
(134.8,784.8,o),
(106.4,776,cs),
(71.6,762.8,o),
(56.4,734,o),
(75.2,692.8,cs),
(210.4,390.8,l),
(3.6,86.4,ls),
(-15.6,58,o),
(-9.6,30.4,o),
(15.2,9.2,cs),
(41.6,-12,o),
(96.4,-18.8,o),
(116.4,15.2,cs),
(270,256.4,l),
(371.2,30,ls),
(388.4,-8.8,o),
(443.6,-15.2,o),
(473.6,0.4,cs)
);
},
{
closed = 1;
nodes = (
(441.6,0.8,o),
(398,6,o),
(384.8,36,cs),
(276.4,277.6,ls),
(274,283.2,o),
(269.6,283.6,o),
(266,278.4,cs),
(103.6,22.8,ls),
(89.2,-2,o),
(47.2,3.2,o),
(24.8,20.8,cs),
(4.8,38,o),
(1.2,55.6,o),
(16.4,77.6,cs),
(224.4,384.4,ls),
(226.4,387.6,o),
(226.8,390.8,o),
(225.2,394.4,cs),
(88.8,699.2,ls),
(73.2,732.8,o),
(83.2,751.2,o),
(111.6,762,cs),
(135.6,769.2,o),
(172,766,o),
(185.2,736.8,cs),
(292.4,496,ls),
(294.8,490.4,o),
(299.2,490,o),
(302.8,495.2,cs),
(461.2,746,ls),
(478,771.6,o),
(519.2,770.4,o),
(539.2,753.2,cs),
(560.4,735.6,o),
(566.8,716,o),
(549.6,691.2,cs),
(345.6,389.6,ls),
(343.6,386.4,o),
(343.2,383.2,o),
(344.8,379.6,cs),
(484,68.8,ls),
(496,42.8,o),
(488,25.2,o),
(466.4,13.6,cs)
);
}
);
vertWidth = 0;
width = 542;
}
);
},
{
glyphname = Y.ss01;
layers = (
{
layerId = m01;
shapes = (
{
closed = 1;
nodes = (
(126,-12,o),
(153,-12,o),
(166,10,cs),
(583,719,ls),
(597,741,o),
(590,764,o),
(568,776,cs),
(551,784,o),
(533,779,o),
(520,758,cs),
(309,398,l),
(147,751,ls),
(140,767,o),
(124,790,o),
(95,779,cs),
(70,770,o),
(68,747,o),
(77,725,cs),
(263,319,l),
(104,49,ls),
(94,32,o),
(95,11,o),
(110,1,c)
);
},
{
closed = 1;
nodes = (
(110,19,o),
(110,29,o),
(116,41,cs),
(277,313,ls),
(279,317,o),
(279,320,o),
(277,324,cs),
(91,731,ls),
(84,748,o),
(85,759,o),
(101,765,cs),
(118,772,o),
(127,759,o),
(133,745,cs),
(303,376,ls),
(305,370,o),
(310,370,o),
(313,375,cs),
(532,750,ls),
(542,766,o),
(550,768,o),
(562,762,cs),
(577,754,o),
(580,742,o),
(571,727,cs),
(154,18,ls),
(145,4,o),
(131,4,o),
(120,13,cs)
);
}
);
vertWidth = 0;
width = 595;
},
{
layerId = m002;
shapes = (
{
closed = 1;
nodes = (
(124.4,-16.4,o),
(180,-10,o),
(198.4,22.4,cs),
(593.6,683.2,ls),
(612.8,714.8,o),
(602.4,752.4,o),
(567.6,772.4,cs),
(539.6,787.2,o),
(495.6,779.6,o),
(474.4,744.8,cs),
(306,465.2,l),
(182.8,740,ls),
(169.6,770,o),
(132.4,789.6,o),
(91.6,774,c),
(49.2,761.6,o),
(44,720.8,o),
(58.4,690,cs),
(227.6,333.6,l),
(82.4,92.8,ls),
(65.6,64.8,o),
(72.4,26.4,o),
(97.2,5.2,cs)
);
},
{
closed = 1;
nodes = (
(86.8,34,o),
(82,62.4,o),
(95.6,85.2,cs),
(241.2,327.6,ls),
(243.6,330.8,o),
(243.6,334,o),
(242,337.6,cs),
(71.6,696,ls),
(59.6,722,o),
(63.6,750,o),
(96.4,760,cs),
(130.4,772.8,o),
(158.4,758.4,o),
(169.2,734,cs),
(299.6,442.8,ls),
(302,437.2,o),
(306.4,436.8,o),
(309.6,442.4,cs),
(487.6,737.2,ls),
(504.8,765.2,o),
(538,771.2,o),
(560.4,759.6,cs),
(588.4,743.2,o),
(596,716,o),
(580.4,690.8,cs),
(185.6,29.6,ls),
(171.2,4.8,o),
(128.4,0,o),
(106.8,16.8,cs)
);
}
);
vertWidth = 0;
width = 582;
},
{
associatedMasterId = m01;
layerId = "97930EFF-4ECB-41E8-9E11-FCC2E8932513";
name = background;
shapes = (
{
closed = 1;
nodes = (
(304,403,l),
(151,748,ls),
(145,763,o),
(127,778,o),
(105,770,cs),
(84,763,o),
(87,747,o),
(95,728,cs),
(270,334,l)
);
},
{
closed = 1;
nodes = (
(489,741,o),
(488,758,o),
(478,766,cs),
(465,776,o),
(438,772,o),
(430,754,cs),
(109,45,ls),
(103,31,o),
(102,15,o),
(114,7,cs),
(127,-4,o),
(152,-5,o),
(160,13,cs),
(481,723,ls)
);
}
);
vertWidth = 0;
width = 539;
}
);
},
{
glyphname = Z.ss01;
layers = (
{
layerId = m01;
shapes = (
{
closed = 1;
nodes = (
(438,-7,ls),
(468,-7,o),
(476,13,o),
(474,31,cs),
(473,47,o),
(463,67,o),
(435,67,cs),
(106,67,l),
(542,719,l),
(562,752,o),
(538,780,o),
(512,780,cs),
(114,780,ls),
(84,780,o),
(75,759,o),
(77,742,cs),
(78,725,o),
(89,706,o),
(117,706,cs),
(448,706,l),
(9,50,ls),
(-9,24,o),
(8,-7,o),
(41,-7,cs)
);
},
{
closed = 1;
nodes = (
(19,8,o),
(10,25,o),
(21,42,cs),
(470,711,ls),
(474,716,o),
(471,720,o),
(465,720,cs),
(117,721,ls),
(98,721,o),
(92,730,o),
(91,744,cs),
(91,756,o),
(95,765,o),
(114,765,cs),
(512,765,ls),
(530,765,o),
(543,749,o),
(530,727,c),
(84,61,ls),
(80,56,o),
(83,52,o),
(89,52,cs),
(435,52,ls),
(454,52,o),
(459,42,o),
(460,29,cs),
(460,16,o),
(457,8,o),
(438,8,cs),
(41,8,ls)
);
}
);
vertWidth = 0;
width = 547;
},
{
layerId = m002;
shapes = (
{
closed = 1;
nodes = (
(432,-7.6,ls),
(474.4,-7.6,o),
(495.6,19.6,o),
(495.6,51.2,cs),
(495.6,87.2,o),
(469.2,114.4,o),
(429.2,114.4,cs),
(167.2,114.4,l),
(555.2,680.8,ls),
(583.2,722,o),
(562.8,783.6,o),
(505.2,783.6,cs),
(119.2,783.6,ls),
(78.4,783.6,o),
(54.4,755.6,o),
(56.4,720.8,cs),
(57.6,688.8,o),
(85.2,661.6,o),
(127.2,661.6,cs),
(386,661.6,l),
(-5.2,87.2,ls),
(-30.4,49.6,o),
(-7.6,-7.6,o),
(51.2,-7.6,cs)
);
},
{
closed = 1;
nodes = (
(4,7.6,o),
(-12.4,49.2,o),
(7.2,78.8,cs),
(408,667.2,ls),
(411.2,672.4,o),
(409.2,676.4,o),
(402.8,676.4,cs),
(127.2,676.4,ls),
(92,676.4,o),
(72.4,696.4,o),
(71.6,721.2,cs),
(69.6,749.2,o),
(86.4,768.4,o),
(119.2,768.4,cs),
(505.2,768.4,ls),
(550.4,768.4,o),
(565.6,723.2,o),
(542.8,689.2,cs),
(145.2,108.8,ls),
(141.6,103.6,o),
(143.6,99.6,o),
(150,99.6,cs),
(429.2,99.6,ls),
(461.6,99.6,o),
(480.4,80,o),
(480.4,51.2,cs),
(480.4,25.6,o),
(466.4,7.6,o),
(432,7.6,cs),
(51.2,7.6,ls)
);
}
);
vertWidth = 0;
width = 546;
}
);
},
{
glyphname = a;
kernLeft = o_left;
kernRight = n_right;
layers = (
{
layerId = m01;
shapes = (
{
closed = 1;
nodes = (
(147,-12,o),
(189,24,o),
(226,73,c),
(224,60,o),
(223,46,o),
(222,33,cs),
(220,18,o),
(223,-7,o),
(256,-7,cs),
(295,-7,o),
(293,21,o),
(295,36,cs),
(333,383,ls),
(335,402,o),
(322,424,o),
(306,424,cs),
(181,424,ls),
(53,424,o),
(-5,253,o),
(-5,144,cs),
(-5,20,o),
(48,-12,o),
(96,-12,cs)
);
},
{
closed = 1;
nodes = (
(53,3,o),
(10,29,o),
(10,144,cs),
(10,250,o),
(64,409,o),
(181,409,cs),
(306,409,ls),
(313,409,o),
(320,397,o),
(319,385,cs),
(281,38,ls),
(279,21,o),
(280,8,o),
(256,8,cs),
(237,8,o),
(235,18,o),
(236,31,cs),
(239,52,o),
(241,73,o),
(243,95,cs),
(243,99,o),
(242,101,o),
(237,103,cs),
(233,105,o),
(228,104,o),
(226,100,cs),
(188,43,o),
(146,2,o),
(96,3,cs)
);
},
{
closed = 1;
nodes = (
(140,48,o),
(198,94,o),
(255,220,cs),
(257,223,o),
(258,225,o),
(258,229,cs),
(272,356,ls),
(273,361,o),
(270,364,o),
(264,364,cs),
(185,364,ls),
(94,364,o),
(54,221,o),
(54,150,cs),
(54,68,o),
(68,48,o),
(105,48,cs)
);
},
{
closed = 1;
nodes = (
(77,63,o),
(69,74,o),
(69,150,cs),
(69,218,o),
(106,349,o),
(185,349,cs),
(256,349,l),
(243,228,l),
(187,104,o),
(134,63,o),
(105,63,cs)
);
},
{
closed = 1;
nodes = (
(112,458,l),
(161,444,l),
(161,453,l),
(290,453,l),
(290,463,l),
(161,463,l),
(161,472,l)
);
},
{
closed = 1;
nodes = (
(295,372,o),
(300,377,o),
(300,383,cs),
(300,389,o),
(295,394,o),
(289,394,cs),
(283,394,o),
(278,389,o),
(278,383,cs),
(278,377,o),
(283,372,o),
(289,372,cs)
);
}
);
vertWidth = 0;
width = 412;
},
{
layerId = m002;
shapes = (
{
closed = 1;
nodes = (
(148,-12.4,o),
(182,6.8,o),
(208.8,30,c),
(211,23,o),
(216,16,o),
(221,10,cs),
(232,-1,o),
(249,-8,o),
(270,-7.6,cs),
(317.2,-7.6,o),
(332,23,o),
(334.4,42.8,cs),
(366.4,349.2,ls),
(371,389,o),
(345,424,o),
(310,423.6,cs),
(232,423.6,ls),
(40,424,o),
(-12.4,276,o),
(-12.4,143.2,cs),
(-12.4,53.2,o),
(41.6,-12.4,o),
(108,-12.4,cs)
);
},
{
closed = 1;
nodes = (
(49.6,2.4,o),
(2.4,59.6,o),
(2.4,143.2,cs),
(2.4,272.8,o),
(51,408,o),
(232,408.4,cs),
(310,408.4,ls),
(336,408,o),
(355,384,o),
(351.6,350.8,cs),
(319.6,45.2,ls),
(318,28,o),
(307.2,7.6,o),
(270,7.6,cs),
(253,8,o),
(241,12,o),
(233,19,cs),
(227,25,o),
(223,31,o),
(222,39.2,cs),
(221.6,43.2,o),
(220,46,o),
(214.4,48,cs),
(210.4,49.6,o),
(207.6,49.2,o),
(204.4,46,cs),
(177.6,21.6,o),
(146.4,2.4,o),
(108,2.4,cs)
);
},
{
closed = 1;
nodes = (
(165.6,91.6,o),
(197.2,115.6,o),
(231.6,163.2,cs),
(233.6,166,o),
(234,168,o),
(234.8,172,cs),
(251.6,316.4,ls),
(252,322,o),
(250,324,o),
(244.4,324.4,cs),
(236,324.4,ls),
(121,324,o),
(93.6,220.4,o),
(93.6,154,cs),
(93.6,118,o),
(103.2,91.6,o),
(131.2,91.6,cs)
);
},
{
closed = 1;
nodes = (
(114,106.4,o),
(108.4,121.2,o),
(108.4,154,cs),
(109,217,o),
(132,300,o),
(229,309,cs),
(235.6,309.6,l),
(219.6,172.8,l),
(186.8,126.8,o),
(160,106.4,o),
(131.2,106.4,cs)
);
},
{
closed = 1;
nodes = (
(115,459,l),
(164,444,l),
(164,453,l),
(293,453,l),
(293,466,l),
(164,466,l),
(164,475,l)
);
},
{
closed = 1;
nodes = (
(306,361,o),
(311,366,o),
(311,372,cs),
(311,378,o),
(306,383,o),
(300,383,cs),
(294,383,o),
(289,378,o),
(289,372,cs),
(289,366,o),
(294,361,o),
(300,361,cs)
);
}
);
vertWidth = 0;
width = 438;
}
);
unicode = 97;
},
{
glyphname = b;
kernLeft = h_left;
kernRight = o_right;
layers = (
{
layerId = m01;
shapes = (
{
closed = 1;
nodes = (
(165,-7,ls),
(293,-7,o),
(352,162,o),
(352,271,cs),
(352,395,o),
(298,427,o),
(250,427,cs),
(201,427,o),
(157,389,o),
(121,338,c),
(162,737,ls),
(165,764,o),
(149,780,o),
(130,780,cs),
(112,780,o),
(92,767,o),
(89,739,cs),
(12,27,ls),
(10,9,o),
(21,-7,o),
(40,-7,cs)
);
},
{
closed = 1;
nodes = (
(161,52,ls),
(252,52,o),
(293,194,o),
(293,265,cs),
(293,345,o),
(278,368,o),
(241,368,cs),
(206,368,o),
(148,315,o),
(92,194,cs),
(90,190,o),
(89,188,o),
(89,185,cs),
(76,59,ls),
(75,54,o),
(78,52,o),
(83,52,cs)
);
},
{
closed = 1;
nodes = (
(104,185,l),
(159,305,o),
(213,353,o),
(241,353,cs),
(269,353,o),
(278,340,o),
(278,265,cs),
(278,197,o),
(240,67,o),
(161,67,cs),
(91,67,l)
);
},
{
closed = 1;
nodes = (
(30,8,o),
(25,14,o),
(26,25,cs),
(103,737,ls),
(105,758,o),
(117,765,o),
(130,765,cs),
(142,765,o),
(150,757,o),
(148,739,cs),
(103,315,ls),
(103,311,o),
(104,308,o),
(109,307,cs),
(113,305,o),
(118,306,o),
(120,310,cs),
(157,369,o),
(201,412,o),
(250,412,cs),
(293,412,o),
(337,386,o),
(337,271,cs),
(337,165,o),
(282,8,o),
(165,8,cs),
(40,8,ls)
);
},
{
closed = 1;
nodes = (
(36,567,l),
(54,615,l),
(45,616,l),
(56,744,l),
(47,745,l),
(35,617,l),
(26,618,l)
);
},
{
closed = 1;
nodes = (
(132,731,o),
(137,736,o),
(137,742,cs),
(137,748,o),
(132,753,o),
(126,753,cs),
(120,753,o),
(115,748,o),
(115,742,cs),
(115,736,o),
(120,731,o),
(126,731,cs)
);
}
);
vertWidth = 0;
width = 423;
},
{
layerId = m002;
shapes = (
{
closed = 1;
nodes = (
(140,-7.6,ls),
(317,-8,o),
(391.6,135.2,o),
(391.6,291.2,cs),
(391.6,375.2,o),
(339.2,428.4,o),
(270,428.4,cs),
(236,428.4,o),
(197.2,407.6,o),
(165.6,381.2,c),
(201.6,711.2,ls),
(206,755,o),
(180,779.6,o),
(144,779.6,cs),
(118,779.6,o),
(80,766,o),
(75.6,722,cs),
(4.4,52.8,ls),
(1,17,o),
(27,-8,o),
(63.2,-7.6,cs)
);
},
{
closed = 1;
nodes = (
(137.2,89.6,ls),
(278,90,o),
(290,204,o),
(289.6,263.2,cs),
(289.6,298.8,o),
(275.2,324.4,o),
(248,324.4,cs),
(228,324.4,o),
(183.6,302.8,o),
(138,242,cs),
(135.6,239.2,o),
(135,237,o),
(134.4,233.2,cs),
(119.6,97.6,ls),
(119,92,o),
(122,90,o),
(126.8,89.6,cs)
);
},
{
closed = 1;
nodes = (
(149.2,232,l),
(192.8,290.4,o),
(232,309.6,o),
(248,309.6,cs),
(265.6,309.6,o),
(274.4,294,o),
(274.4,263.2,cs),
(275,204,o),
(264,104,o),
(137.2,104.4,cs),
(135.2,104.4,l)
);
},
{
closed = 1;
nodes = (
(34,8,o),
(17,24,o),
(19.6,51.2,cs),
(90.4,720,ls),
(94,754,o),
(121.2,764.4,o),
(144,764.4,cs),
(172.8,764.4,o),
(190,748,o),
(186.4,712.8,cs),
(148,357.2,ls),
(148,354,o),
(148,352,o),
(150,351,cs),
(151,350,o),
(154,350,o),
(156.8,353.2,cs),
(189.6,385.6,o),
(233.6,413.6,o),
(270,413.6,cs),
(332,413.6,o),
(376.4,368,o),
(376.4,291.2,cs),
(376.4,140,o),
(308,8,o),
(140,7.6,cs),
(63.2,7.6,ls)
);
},
{
closed = 1;
nodes = (
(15,545,l),
(35,592,l),
(26,593,l),
(40,722,l),
(27,723,l),
(13,595,l),
(5,596,l)
);
},
{
closed = 1;
nodes = (
(145,715,o),
(150,720,o),
(150,726,cs),
(150,732,o),
(145,737,o),
(139,737,cs),
(133,737,o),
(128,732,o),
(128,726,cs),
(128,720,o),
(133,715,o),
(139,715,cs)
);
}
);
vertWidth = 0;
width = 455;
}
);
unicode = 98;
},
{
glyphname = c;
kernLeft = o_left;
layers = (
{
layerId = m01;
shapes = (
{
closed = 1;
nodes = (
(160,-12,o),
(226,66,o),
(270,153,cs),
(278,170,o),
(262,189,o),
(252,195,cs),
(242,199,o),
(214,205,o),
(204,187,cs),
(169,118,o),
(119,63,o),
(93,63,cs),
(66,63,o),
(58,92,o),
(58,125,cs),
(61,214,o),
(92,349,o),
(174,349,cs),
(195,349,o),
(224,345,o),
(239,342,cs),
(255,339,o),
(279,339,o),
(290,364,cs),
(299,385,o),
(294,406,o),
(272,411,cs),
(248,416,o),
(207,424,o),
(174,424,cs),
(34,424,o),
(-15,248,o),
(-16,113,cs),
(-18,19,o),
(41,-12,o),
(93,-12,cs)
);
},
{
closed = 1;
nodes = (
(46,3,o),
(-2,28,o),
(-2,113,cs),
(-1,245,o),
(46,409,o),
(174,409,cs),
(205,409,o),
(246,402,o),
(268,397,cs),
(281,394,o),
(283,386,o),
(276,370,cs),
(269,355,o),
(255,355,o),
(241,356,cs),
(226,359,o),
(195,364,o),
(174,364,cs),
(79,364,o),
(47,217,o),
(44,125,cs),
(42,89,o),
(54,48,o),
(93,48,cs),
(126,48,o),
(181,109,o),
(218,179,cs),
(222,187,o),
(236,185,o),
(246,181,c),
(252,177,o),
(260,167,o),
(256,159,cs),
(214,75,o),
(153,3,o),
(93,3,cs)
);
},
{
closed = 1;
nodes = (
(75,450,l),
(125,440,l),
(124,449,l),
(144,452,o),
(163,453,o),
(183,453,cs),
(206,453,o),
(229,451,o),
(252,448,c),
(253,458,l),
(230,461,o),
(206,463,o),
(183,463,cs),
(163,463,o),
(144,462,o),
(124,459,c),
(123,468,l)
);
},
{
closed = 1;
nodes = (
(258,368,o),
(263,373,o),
(263,379,cs),
(263,385,o),
(258,390,o),
(252,390,cs),
(246,390,o),
(241,385,o),
(241,379,cs),
(241,373,o),
(246,368,o),
(252,368,cs)
);
}
);
vertWidth = 0;
width = 344;
},
{
layerId = m002;
shapes = (
{
closed = 1;
nodes = (
(188.8,-12.4,o),
(258.8,62.4,o),
(301.6,140.4,cs),
(310,156,o),
(309.2,193.6,o),
(273.2,210.8,cs),
(239.2,228.4,o),
(203.6,220.4,o),
(191.2,198.4,cs),
(165.6,149.2,o),
(133.2,106.4,o),
(116,106.4,cs),
(104.4,106.4,o),
(96.8,119.6,o),
(98.4,139.2,cs),
(104.4,194.4,o),
(115.6,306.4,o),
(179.2,306.4,cs),
(191.6,306.4,o),
(226.4,303.6,o),
(252,300.4,cs),
(276.4,296.4,o),
(304,296.4,o),
(318,334.4,cs),
(332.8,376,o),
(314.8,402.8,o),
(292.4,411.2,cs),
(274.8,417.2,o),
(225.6,423.6,o),
(188,423.6,cs),
(26.8,423.6,o),
(-7.2,278.4,o),
(-21.6,144,cs),
(-35.2,23.6,o),
(43.6,-12.4,o),
(105.2,-12.4,cs)
);
},
{
closed = 1;
nodes = (
(47.6,2.4,o),
(-18.8,33.6,o),
(-6.4,142,cs),
(7.6,275.6,o),
(38.8,408.4,o),
(188,408.4,cs),
(224.4,408.4,o),
(271.2,402.8,o),
(287.6,396.8,cs),
(304,390.8,o),
(315.6,372.8,o),
(304,339.6,cs),
(293.6,311.6,o),
(277.6,311.6,o),
(254,315.6,cs),
(227.6,318.4,o),
(192.4,321.6,o),
(179.2,321.6,cs),
(102,321.6,o),
(89.6,196,o),
(83.6,140.8,cs),
(81.2,115.2,o),
(94.8,91.6,o),
(116,91.6,cs),
(141.6,91.6,o),
(178,140.4,o),
(204.8,191.6,cs),
(212.8,206.4,o),
(238,212,o),
(266.8,197.2,cs),
(293.6,184.4,o),
(294.4,158.8,o),
(288.4,147.6,cs),
(246.8,71.6,o),
(181.6,2.4,o),
(105.2,2.4,cs)
);
},
{
closed = 1;
nodes = (
(80,449,l),
(131,440,l),
(130,449,l),
(151,452,o),
(170,453,o),
(191,453,cs),
(213,453,o),
(234,450,o),
(256,447,c),
(258,460,l),
(236,463,o),
(213,466,o),
(191,466,cs),
(170,466,o),
(149,465,o),
(128,462,c),
(127,471,l)
);
},
{
closed = 1;
nodes = (
(279,358,o),
(284,363,o),
(284,369,cs),
(284,375,o),
(279,380,o),
(273,380,cs),
(267,380,o),
(262,375,o),
(262,369,cs),
(262,363,o),
(267,358,o),
(273,358,cs)
);
}
);
vertWidth = 0;
width = 366;
}
);
unicode = 99;
},
{
glyphname = d;
kernLeft = o_left;
layers = (
{
layerId = m01;
shapes = (
{
closed = 1;
nodes = (
(142,-12,o),
(184,25,o),
(221,76,c),
(217,33,ls),
(214,6,o),
(234,-7,o),
(253,-7,cs),
(270,-7,o),
(288,3,o),
(290,25,cs),
(366,740,ls),
(369,764,o),
(350,780,o),
(330,780,cs),
(313,780,o),
(295,771,o),
(293,748,cs),
(258,424,l),
(176,424,ls),
(48,424,o),
(-10,253,o),
(-10,144,cs),
(-10,20,o),
(43,-12,o),
(91,-12,cs)
);
},
{
closed = 1;
nodes = (
(135,48,o),
(193,96,o),
(250,221,cs),
(252,224,o),
(253,226,o),
(253,230,cs),
(265,356,ls),
(265,361,o),
(263,364,o),
(258,364,cs),
(180,364,ls),
(89,364,o),
(49,221,o),
(49,150,cs),
(49,68,o),
(63,48,o),
(100,48,cs)
);
},
{
closed = 1;
nodes = (
(72,63,o),
(64,74,o),
(64,150,cs),
(64,218,o),
(101,349,o),
(180,349,cs),
(250,349,l),
(238,229,l),
(182,106,o),
(129,63,o),
(100,63,cs)
);
},
{
closed = 1;
nodes = (
(48,3,o),
(5,29,o),
(5,144,cs),
(5,250,o),
(59,410,o),
(176,409,cs),
(265,408,ls),
(269,408,o),
(273,411,o),
(273,415,cs),
(307,746,ls),
(308,760,o),
(318,765,o),
(330,765,cs),
(344,765,o),
(354,757,o),
(352,742,cs),
(276,27,ls),
(275,13,o),
(265,8,o),
(253,8,cs),
(239,8,o),
(229,15,o),
(231,31,cs),
(239,97,ls),
(240,102,o),
(237,105,o),
(233,106,cs),
(228,108,o),
(225,107,o),
(222,103,cs),
(183,45,o),
(141,2,o),
(91,3,cs)
);
},
{
closed = 1;
nodes = (
(69,445,l),
(120,438,l),
(118,447,l),
(138,451,o),
(157,453,o),
(177,454,cs),
(200,455,o),
(223,454,o),
(246,453,c),
(247,463,l),
(224,464,o),
(199,465,o),
(176,464,cs),
(156,463,o),
(138,461,o),
(118,457,c),
(116,466,l)
);
},
{
closed = 1;
nodes = (
(252,374,o),
(257,379,o),
(257,385,c),
(257,391,o),
(252,396,o),
(246,396,cs),
(240,396,o),
(235,391,o),
(235,385,cs),
(235,379,o),
(240,374,o),
(246,374,cs)
);
}
);
vertWidth = 0;
width = 416;
},
{
layerId = m002;
shapes = (
{
closed = 1;
nodes = (
(151,-12,o),
(196,17,o),
(210,31,c),
(211,28,l),
(218,1,o),
(243,-8,o),
(266,-7.6,cs),
(294.8,-7.6,o),
(330,13,o),
(333.6,51.2,cs),
(403.6,711.2,ls),
(408,754,o),
(376.8,779.6,o),
(340,779.6,cs),
(312,779.6,o),
(280,766,o),
(276.4,727.6,cs),
(245.2,423.6,l),
(229.2,423.6,ls),
(38,424,o),
(-17.6,262,o),
(-17.6,124,cs),
(-17.6,19.6,o),
(50.4,-12.4,o),
(109.2,-12.4,cs)
);
},
{
closed = 1;
nodes = (
(152,91.6,o),
(186.4,106.8,o),
(232,170,cs),
(234.4,173.2,o),
(235,176,o),
(235.6,179.2,cs),
(249.6,311.6,ls),
(250,317,o),
(248,320,o),
(242.4,319.6,cs),
(234,319.6,ls),
(108,320,o),
(89.6,208.8,o),
(89.6,145.2,cs),
(89.6,117.6,o),
(101.6,91.6,o),
(128,91.6,cs)
);
},
{
closed = 1;
nodes = (
(111.6,106.4,o),
(104.4,121.6,o),
(104.4,145.2,cs),
(104,206,o),
(120,296,o),
(228,304,cs),
(233.6,304.4,l),
(220.8,179.6,l),
(177.6,119.6,o),
(148,106.4,o),
(128,106.4,cs)
);
},
{
closed = 1;
nodes = (
(54.8,2.4,o),
(-2.4,29.6,o),
(-2.4,124,cs),
(-2.4,258.8,o),
(49,408,o),
(229.2,408.4,cs),
(251.6,408.4,ls),
(256,408,o),
(259,411,o),
(259.6,415.6,cs),
(291.6,726.4,ls),
(295,755,o),
(315.6,764.4,o),
(340,764.4,cs),
(370.4,764.4,o),
(392,747,o),
(388.4,712.8,cs),
(318.4,52.8,ls),
(315,22,o),
(290,7.6,o),
(266,7.6,cs),
(246.8,7.6,o),
(229.6,16,o),
(224.4,37.2,c),
(224,42,ls),
(224,45,o),
(222,47.6,o),
(216.4,49.6,cs),
(212.4,50.8,o),
(209.6,50.4,o),
(206.4,47.6,cs),
(176.8,21.2,o),
(142.4,2.4,o),
(109.2,2.4,cs)
);
},
{
closed = 1;
nodes = (
(58,440,l),
(110,436,l),
(108,445,l),
(128,450,o),
(147,453,o),
(168,455,cs),
(190,458,o),
(211,457,o),
(233,456,c),
(234,469,l),
(212,470,o),
(189,471,o),
(167,468,cs),
(146,466,o),
(125,463,o),
(104,458,c),
(102,467,l)
);
},
{
closed = 1;
nodes = (
(245,362,o),
(250,367,o),
(250,373,c),
(250,379,o),
(245,384,o),
(239,384,cs),
(233,384,o),
(228,379,o),
(228,373,cs),
(228,367,o),
(233,362,o),
(239,362,cs)
);
}
);
vertWidth = 0;
width = 446;
},
{
associatedMasterId = m002;
layerId = "E9F6C407-A369-43B4-BB67-C7ADEE762928";
name = background;
shapes = (
{
closed = 0;
nodes = (
(20,143,l)
);
},
{
closed = 1;
nodes = (
(320,0,o),
(349,18,o),
(353,52,cs),
(423,712,ls),
(426,750,o),
(400,772,o),
(367,772,cs),
(341,772,o),
(315,760,o),
(311,727,cs),
(240,59,ls),
(235,18,o),
(266,0,o),
(293,0,cs)
);
},
{
closed = 1;
nodes = (
(7,25,o),
(81,-5,o),
(149,-5,cs),
(184,-5,o),
(229,20,o),
(266,56,c),
(283,232,l),
(225,133,o),
(182,99,o),
(156,99,cs),
(134,99,o),
(122,120,o),
(126,154,cs),
(132,208,o),
(127,312,o),
(261,312,c),
(293,312,l),
(304,416,l),
(257,416,l),
(71,416,o),
(38,310,o),
(20,143,c)
);
}
);
vertWidth = 0;
width = 594;
}
);
unicode = 100;
},
{
glyphname = e;
kernLeft = o_left;
layers = (
{
layerId = m01;
shapes = (
{
closed = 1;
nodes = (
(167,-12,o),
(230,41,o),
(253,79,cs),
(278,116,o),
(281,140,o),
(263,152,cs),
(247,164,o),
(224,162,o),
(206,138,cs),
(188,114,o),
(145,63,o),
(105,63,cs),
(87,63,o),
(74,84,o),
(74,116,cs),
(75,133,o),
(76,149,o),
(78,166,c),
(185,179,o),
(308,265,o),
(316,340,cs),
(322,395,o),
(266,424,o),
(202,424,cs),
(58,424,o),
(5,269,o),
(0,127,cs),
(-5,18,o),
(53,-12,o),
(101,-12,cs)
);
},
{
closed = 1;
nodes = (
(58,3,o),
(11,27,o),
(14,127,cs),
(19,266,o),
(69,409,o),
(202,409,cs),
(261,409,o),
(306,386,o),
(302,342,cs),
(294,273,o),
(175,191,o),
(71,181,cs),
(67,180,o),
(64,178,o),
(64,173,cs),
(61,154,o),
(61,135,o),
(60,116,cs),
(58,79,o),
(78,48,o),
(105,48,cs),
(153,48,o),
(200,104,o),
(218,130,cs),
(231,147,o),
(244,148,o),
(255,140,cs),
(264,133,o),
(263,121,o),
(241,87,cs),
(218,51,o),
(161,3,o),
(101,3,cs)
);
},
{
closed = 1;
nodes = (
(156,236,o),
(253,313,o),
(256,336,cs),
(258,350,o),
(240,364,o),
(213,364,cs),
(133,364,o),
(93,304,o),
(74,232,cs),
(73,227,o),
(76,223,o),
(81,224,cs)
);
},
{
closed = 1;
nodes = (
(111,304,o),
(146,349,o),
(213,349,cs),
(232,349,o),
(242,343,o),
(242,338,cs),
(239,324,o),
(161,260,o),
(93,242,c)
);
},
{
closed = 1;
nodes = (
(261,211,l),
(211,201,l),
(215,193,l),
(198,183,o),
(181,174,o),
(162,166,cs),
(141,157,o),
(119,150,o),
(97,144,c),
(100,134,l),
(122,141,o),
(145,148,o),
(166,157,cs),
(185,165,o),
(202,173,o),
(219,184,c),
(224,176,l)
);
},
{
closed = 1;
nodes = (
(80,193,o),
(85,198,o),
(85,204,cs),
(85,210,o),
(80,215,o),
(74,215,cs),
(68,215,o),
(63,210,o),
(63,204,cs),
(63,198,o),
(68,193,o),
(74,193,cs)
);
}
);
vertWidth = 0;
width = 368;
},
{
layerId = m002;
shapes = (
{
closed = 1;
nodes = (
(213.6,-12.4,o),
(272,38,o),
(295,69,cs),
(325,110,o),
(312,135,o),
(291,144,cs),
(259,158,o),
(217,139,o),
(199,118,cs),
(190,107,o),
(162,98,o),
(135,98,cs),
(111,98,o),
(108.4,120.8,o),
(109.6,140,cs),
(109.6,145.6,o),
(110,151.2,o),
(110.8,157.2,c),
(214,177,o),
(302.4,219.6,o),
(334,295.2,cs),
(360.8,362,o),
(320.4,423.6,o),
(215.2,424.4,cs),
(55.6,425.6,o),
(-5.6,295.6,o),
(-7.6,139.2,cs),
(-8.4,17.6,o),
(50.4,-12.4,o),
(105.2,-12.4,cs)
);
},
{
closed = 1;
nodes = (
(54.8,2.4,o),
(6.4,27.6,o),
(7.6,138.8,cs),
(9.6,291.2,o),
(65.6,410.4,o),
(214.8,409.6,cs),
(310.8,408.4,o),
(343.6,359.2,o),
(320,300.8,cs),
(290.4,229.6,o),
(206,189,o),
(104,171.6,cs),
(100,171,o),
(96.8,168.8,o),
(96.4,164,cs),
(95.2,156.4,o),
(94.4,148.4,o),
(94.4,140,cs),
(93.2,116.8,o),
(98,82,o),
(135,82,cs),
(168,82,o),
(199,97,o),
(211,109,cs),
(227,126,o),
(258,141,o),
(282,132,cs),
(300,125,o),
(307,111,o),
(283,78,cs),
(260,47,o),
(206.4,2.4,o),
(105.2,2.4,cs)
);
},
{
closed = 1;
nodes = (
(168.8,254,o),
(227.2,281.6,o),
(237.2,318.8,cs),
(242,333.6,o),
(223.6,341.6,o),
(200,341.6,cs),
(157.6,341.6,o),
(130.4,298.4,o),
(115.2,248.8,cs),
(113.2,242.8,o),
(116.4,239.6,o),
(122.4,241.2,cs)
);
},
{
closed = 1;
nodes = (
(149.6,299.2,o),
(170.4,326.4,o),
(200,326.4,cs),
(215.2,326.4,o),
(223.2,324.4,o),
(222.8,323.2,cs),
(215.6,296.4,o),
(175.2,274,o),
(134.8,260.4,c)
);
},
{
closed = 1;
nodes = (
(296,200,l),
(245,190,l),
(250,182,l),
(231,172,o),
(214,164,o),
(194,157,cs),
(174,149,o),
(153,144,o),
(131,139,c),
(134,126,l),
(156,131,o),
(178,137,o),
(199,145,cs),
(218,152,o),
(238,161,o),
(256,171,c),
(260,163,l)
);
},
{
closed = 1;
nodes = (
(119,190,o),
(124,195,o),
(124,201,cs),
(124,207,o),
(119,212,o),
(113,212,cs),
(107,212,o),
(102,207,o),
(102,201,cs),
(102,195,o),
(107,190,o),
(113,190,cs)
);
}
);
vertWidth = 0;
width = 387;
}
);
unicode = 101;
},
{
glyphname = f;
layers = (
{
layerId = m01;
shapes = (
{
closed = 1;
nodes = (
(104,-7,o),
(111,16,o),
(113,31,cs),
(148,355,l),
(234,355,ls),
(264,355,o),
(271,373,o),
(271,390,cs),
(271,408,o),
(259,424,o),
(231,424,cs),
(155,424,l),
(175,614,ls),
(182,683,o),
(206,706,o),
(243,706,cs),
(256,706,o),
(268,705,o),
(279,701,cs),
(289,699,o),
(316,695,o),
(327,723,cs),
(337,750,o),
(318,765,o),
(306,770,cs),
(286,776,o),
(263,780,o),
(239,780,cs),
(177,780,o),
(114,737,o),
(102,627,cs),
(80,424,l),
(-1,424,ls),
(-30,424,o),
(-38,407,o),
(-38,390,cs),
(-38,371,o),
(-26,355,o),
(3,355,cs),
(73,355,l),
(40,34,ls),
(38,16,o),
(51,-7,o),
(77,-7,cs)
);
},
{
closed = 1;
nodes = (
(60,8,o),
(53,21,o),
(54,32,cs),
(89,362,ls),
(90,367,o),
(87,370,o),
(81,370,cs),
(3,370,ls),
(-17,370,o),
(-23,378,o),
(-23,390,cs),
(-23,402,o),
(-20,409,o),
(-1,409,cs),
(87,408,ls),
(91,408,o),
(95,411,o),
(95,415,cs),
(116,625,ls),
(126,728,o),
(182,765,o),
(239,765,cs),
(261,765,o),
(282,762,o),
(302,756,cs),
(310,752,o),
(319,745,o),
(313,729,cs),
(306,711,o),
(291,713,o),
(283,715,cs),
(270,719,o),
(256,721,o),
(243,721,cs),
(199,721,o),
(169,692,o),
(161,616,cs),
(139,416,ls),
(138,411,o),
(141,408,o),
(147,408,cs),
(231,409,ls),
(250,409,o),
(256,402,o),
(256,390,cs),
(256,376,o),
(253,370,o),
(234,370,cs),
(141,370,ls),
(137,370,o),
(133,367,o),
(133,363,cs),
(99,33,ls),
(98,20,o),
(93,8,o),
(77,8,cs)
);
},
{
closed = 1;
nodes = (
(115,805,l),
(166,798,l),
(164,807,l),
(184,811,o),
(203,813,o),
(223,814,cs),
(246,815,o),
(269,814,o),
(292,810,c),
(293,820,l),
(270,824,o),
(245,825,o),
(222,824,cs),
(202,823,o),
(184,821,o),
(164,817,c),
(162,826,l)
);
},
{
closed = 1;
nodes = (
(288,728,o),
(293,733,o),
(293,739,cs),
(293,745,o),
(288,750,o),
(282,750,cs),
(276,750,o),
(271,745,o),
(271,739,cs),
(271,733,o),
(276,728,o),
(282,728,cs)
);
}
);
vertWidth = 0;
width = 286;
},
{
layerId = m002;
shapes = (
{
closed = 1;
nodes = (
(119.6,-9.6,o),
(150,16,o),
(153.6,49.2,cs),
(180.8,307.6,l),
(240,307.6,ls),
(280,308,o),
(304.8,329.6,o),
(303.6,365.6,cs),
(300,397.2,o),
(276,424,o),
(234,423.6,cs),
(193.2,423.6,l),
(211.6,595.2,ls),
(216,640,o),
(232.4,657.6,o),
(253.2,657.6,cs),
(271.2,657.6,o),
(287.6,654,o),
(296.4,650,cs),
(315.6,643.2,o),
(344.8,645.2,o),
(362.8,683.6,cs),
(380.4,718,o),
(374.4,745.6,o),
(346.4,759.6,cs),
(313.2,777.2,o),
(285.2,779.6,o),
(236,779.6,cs),
(173.2,779.6,o),
(98,734,o),
(85.6,618,cs),
(64.4,423.6,l),
(17.2,423.6,ls),
(-24,424,o),
(-47.6,396.4,o),
(-45.6,364.8,cs),
(-44.4,331.6,o),
(-18,308,o),
(23.2,307.6,cs),
(52.8,307.6,l),
(25.6,58.8,ls),
(22,29,o),
(38,-9.6,o),
(84,-9.6,cs)
);
},
{
closed = 1;
nodes = (
(49.2,5.6,o),
(38,32,o),
(40.4,57.2,cs),
(68.4,314.4,ls),
(69,320,o),
(66,322,o),
(61.2,322.4,cs),
(23.2,322.4,ls),
(-11,322,o),
(-29.6,339.6,o),
(-30.4,365.2,cs),
(-32.4,390.4,o),
(-16,408,o),
(17.2,408.4,cs),
(70.4,408.4,ls),
(75.2,408.4,o),
(78,411,o),
(78.4,415.6,cs),
(100.4,616,ls),
(112,724,o),
(178,764.4,o),
(236,764.4,cs),
(284.8,764.4,o),
(308.8,762.8,o),
(339.6,746.4,cs),
(360.4,736,o),
(364,719.2,o),
(349.2,690.4,cs),
(335.2,660,o),
(316.8,658.8,o),
(301.6,664,cs),
(292.4,668,o),
(272.8,672.4,o),
(253.2,672.4,cs),
(224.8,672.4,o),
(202,647,o),
(196.4,596.8,cs),
(177.6,416.4,ls),
(177,411,o),
(180,408,o),
(184.8,408.4,cs),
(234,408.4,ls),
(269,408,o),
(286,389.6,o),
(288.4,364.4,cs),
(289.2,337.2,o),
(273,322,o),
(240,322.4,cs),
(174.4,322.4,ls),
(170,322,o),
(167,320,o),
(166.4,315.2,cs),
(138.4,50.8,ls),
(136,25,o),
(113.2,5.6,o),
(84,5.6,cs)
);
},
{
closed = 1;
nodes = (
(151,803,l),
(201,794,l),
(200,803,l),
(221,807,o),
(240,808,o),
(261,809,cs),
(283,809,o),
(304,807,o),
(326,799,c),
(327,812,l),
(306,820,o),
(283,822,o),
(261,822,cs),
(240,821,o),
(219,820,o),
(198,816,c),
(197,825,l)
);
},
{
closed = 1;
nodes = (
(328,709,o),
(333,714,o),
(333,720,cs),
(333,726,o),
(328,731,o),
(322,731,cs),
(316,731,o),
(311,726,o),
(311,720,cs),
(311,714,o),
(316,709,o),
(322,709,cs)
);
}
);
vertWidth = 0;
width = 321;
}
);
unicode = 102;
},
{
glyphname = g;
kernLeft = o_left;
layers = (
{
layerId = m01;
shapes = (
{
closed = 1;
nodes = (
(133,-363,o),
(179,-348,o),
(210,-317,cs),
(256,-275,o),
(272,-202,o),
(282,-114,cs),
(335,386,ls),
(339,411,o),
(321,424,o),
(298,424,cs),
(182,424,ls),
(54,424,o),
(-4,253,o),
(-4,144,cs),
(-4,20,o),
(49,-12,o),
(97,-12,cs),
(148,-12,o),
(193,31,o),
(229,85,c),
(209,-112,ls),
(203,-169,o),
(193,-228,o),
(159,-261,cs),
(139,-282,o),
(106,-289,o),
(67,-289,cs),
(46,-289,o),
(20,-278,o),
(2,-270,cs),
(-7,-265,o),
(-29,-263,o),
(-44,-280,cs),
(-58,-298,o),
(-54,-320,o),
(-37,-332,cs),
(-14,-348,o),
(28,-363,o),
(72,-363,cs)
);
},
{
closed = 1;
nodes = (
(30,-348,o),
(-8,-334,o),
(-29,-320,cs),
(-39,-312,o),
(-41,-301,o),
(-32,-290,cs),
(-23,-279,o),
(-11,-280,o),
(-4,-284,cs),
(14,-292,o),
(42,-304,o),
(67,-304,cs),
(108,-304,o),
(147,-296,o),
(169,-271,c),
(207,-236,o),
(217,-171,o),
(223,-114,cs),
(247,108,ls),
(247,112,o),
(245,115,o),
(240,117,cs),
(235,118,o),
(232,117,o),
(230,113,cs),
(192,52,o),
(147,2,o),
(97,3,cs),
(54,3,o),
(11,29,o),
(11,144,cs),
(11,250,o),
(65,409,o),
(182,409,cs),
(298,409,ls),
(316,409,o),
(323,403,o),
(321,388,cs),
(268,-112,ls),
(258,-200,o),
(242,-267,o),
(200,-307,cs),
(171,-334,o),
(131,-348,o),
(72,-348,cs)
);
},
{
closed = 1;
nodes = (
(142,48,o),
(201,111,o),
(258,238,cs),
(260,241,o),
(260,243,o),
(261,247,cs),
(273,356,ls),
(273,361,o),
(271,364,o),
(265,364,cs),
(186,364,ls),
(95,364,o),
(55,221,o),
(55,150,cs),
(55,68,o),
(69,48,o),
(106,48,cs)
);
},
{
closed = 1;
nodes = (
(78,63,o),
(70,74,o),
(70,150,cs),
(70,218,o),
(107,349,o),
(186,349,cs),
(257,349,l),
(246,246,l),
(189,121,o),
(135,63,o),
(106,63,cs)
);
},
{
closed = 1;
nodes = (
(114,458,l),
(163,444,l),
(163,453,l),
(292,453,l),
(292,463,l),
(163,463,l),
(163,472,l)
);
},
{
closed = 1;
nodes = (
(297,372,o),
(302,377,o),
(302,383,cs),
(302,389,o),
(297,394,o),
(291,394,cs),
(285,394,o),
(280,389,o),
(280,383,cs),
(280,377,o),
(285,372,o),
(291,372,cs)
);
}
);
vertWidth = 0;
width = 416;
},
{
layerId = m002;
shapes = (
{
closed = 1;
nodes = (
(166.4,-363.6,o),
(214.8,-334,o),
(259.6,-287.2,cs),
(314.4,-228,o),
(315.6,-133.6,o),
(325.6,-33.6,cs),
(369.6,361.2,ls),
(372.8,403.2,o),
(333.6,423.6,o),
(299.2,423.6,cs),
(233.2,423.6,ls),
(42.4,423.6,o),
(2.8,312,o),
(-15.6,144,cs),
(-29.2,19.6,o),
(55.2,-12.4,o),
(110,-12.4,cs),
(143.6,-12.4,o),
(176.4,6,o),
(204.8,28.4,c),
(199.6,-23.2,ls),
(190.4,-98.4,o),
(186.8,-167.6,o),
(153.6,-201.6,cs),
(133.6,-222.8,o),
(111.6,-232.4,o),
(88,-232.4,cs),
(72.8,-232.4,o),
(53.2,-228.8,o),
(46,-226,cs),
(16.8,-212.4,o),
(-23.6,-206.4,o),
(-48.4,-247.2,cs),
(-73.2,-290,o),
(-50,-323.2,o),
(-29.2,-336.4,cs),
(-11.2,-348,o),
(40.8,-363.6,o),
(99.2,-363.6,cs)
);
},
{
closed = 1;
nodes = (
(43.2,-348.4,o),
(-4.8,-334,o),
(-20.8,-323.6,cs),
(-38.8,-312.4,o),
(-55.2,-288.8,o),
(-35.6,-254.8,cs),
(-16,-223.2,o),
(12.8,-227.2,o),
(40,-240,cs),
(48.8,-243.2,o),
(71.2,-247.6,o),
(88,-247.6,cs),
(114.8,-247.6,o),
(142.4,-235.6,o),
(164.4,-212.4,cs),
(201.2,-174.4,o),
(205.6,-99.6,o),
(214.4,-24.8,cs),
(222,50.8,ls),
(222,55,o),
(221,57,o),
(219,57,cs),
(217,58,o),
(215,57,o),
(213.2,55.2,cs),
(181.6,27.2,o),
(146.4,2.4,o),
(110,2.4,cs),
(58.4,2.4,o),
(-12.8,30,o),
(-0.4,142,cs),
(17.2,308.4,o),
(53.2,408.4,o),
(233.2,408.4,cs),
(299.2,408.4,ls),
(329.2,408.4,o),
(357.2,393.6,o),
(354.4,362.8,cs),
(310.4,-32.4,ls),
(300.4,-132.4,o),
(299.6,-222,o),
(248.4,-276.8,cs),
(205.2,-322,o),
(162,-348.4,o),
(99.2,-348.4,cs)
);
},
{
closed = 1;
nodes = (
(154.4,91.6,o),
(189.6,103.2,o),
(231.2,159.2,cs),
(233.6,162,o),
(234.4,164.4,o),
(234.8,168,cs),
(249.6,311.6,ls),
(250,316.8,o),
(247.6,319.6,o),
(242.4,319.6,cs),
(238,319.6,ls),
(95.6,319.6,o),
(95.6,208.4,o),
(89.6,154.8,cs),
(86,116.8,o),
(105.2,91.6,o),
(132,91.6,cs)
);
},
{
closed = 1;
nodes = (
(113.6,106.4,o),
(101.6,122.4,o),
(104.4,153.2,cs),
(110,207,o),
(110,300,o),
(230,304,c),
(233.6,304.4,l),
(219.6,168.8,l),
(180.8,116,o),
(151.6,106.4,o),
(132,106.4,cs)
);
},
{
closed = 1;
nodes = (
(115,459,l),
(164,444,l),
(164,453,l),
(293,453,l),
(293,466,l),
(164,466,l),
(164,475,l)
);
},
{
closed = 1;
nodes = (
(306,361,o),
(311,366,o),
(311,372,cs),
(311,378,o),
(306,383,o),
(300,383,cs),
(294,383,o),
(289,378,o),
(289,372,cs),
(289,366,o),
(294,361,o),
(300,361,cs)
);
}
);
vertWidth = 0;
width = 442;
}
);
unicode = 103;
},
{
glyphname = h;
kernLeft = h_left;
kernRight = n_right;
layers = (
{
layerId = m01;
shapes = (
{
closed = 1;
nodes = (
(65,-7,o),
(84,2,o),
(86,26,cs),
(103,182,l),
(165,316,o),
(206,355,o),
(249,355,cs),
(271,355,o),
(283,322,o),
(279,279,cs),
(253,38,ls),
(249,17,o),
(253,-7,o),
(286,-7,cs),
(325,-7,o),
(325,21,o),
(325,36,cs),
(352,277,ls),
(360,348,o),
(327,429,o),
(253,429,cs),
(200,429,o),
(159,396,o),
(121,343,c),
(162,739,ls),
(166,766,o),
(150,780,o),
(130,780,cs),
(112,780,o),
(91,767,o),
(89,741,cs),
(13,28,l),
(9,5,o),
(29,-7,o),
(47,-7,cs)
);
},
{
closed = 1;
nodes = (
(34,8,o),
(25,14,o),
(27,26,cs),
(103,739,ls),
(105,757,o),
(117,765,o),
(130,765,cs),
(143,765,o),
(150,759,o),
(148,741,cs),
(103,321,ls),
(103,317,o),
(105,314,o),
(109,313,c),
(114,311,o),
(117,312,o),
(120,316,cs),
(161,378,o),
(201,414,o),
(253,414,cs),
(316,414,o),
(344,345,o),
(338,279,cs),
(311,38,ls),
(309,21,o),
(310,8,o),
(286,8,cs),
(266,8,o),
(265,18,o),
(267,36,cs),
(293,277,ls),
(299,325,o),
(282,370,o),
(249,370,cs),
(200,370,o),
(154,326,o),
(91,190,cs),
(89,187,o),
(88,185,o),
(88,181,cs),
(72,28,ls),
(70,13,o),
(60,8,o),
(47,8,cs)
);
},
{
closed = 1;
nodes = (
(36,567,l),
(54,615,l),
(45,616,l),
(56,744,l),
(47,745,l),
(35,617,l),
(26,618,l)
);
},
{
closed = 1;
nodes = (
(132,731,o),
(137,736,o),
(137,742,cs),
(137,748,o),
(132,753,o),
(126,753,cs),
(120,753,o),
(115,748,o),
(115,742,cs),
(115,736,o),
(120,731,o),
(126,731,cs)
);
}
);
vertWidth = 0;
width = 438;
},
{
layerId = m002;
shapes = (
{
closed = 1;
nodes = (
(98.8,-9.6,o),
(128,7.6,o),
(132.4,43.2,cs),
(152.4,235.2,l),
(190,289.6,o),
(223.2,308.4,o),
(253.2,308.4,cs),
(278.8,308.4,o),
(284.4,283.6,o),
(281.6,254.8,cs),
(259.6,55.6,ls),
(256,23.2,o),
(277.2,-7.6,o),
(320,-7.6,cs),
(366.4,-7.6,o),
(385.2,17.2,o),
(387.6,44.4,cs),
(409.6,244.4,ls),
(420.8,361.2,o),
(366.4,428.4,o),
(280,428.4,cs),
(238,428.4,o),
(198.4,410,o),
(168.4,386.4,c),
(202.4,713.2,ls),
(206,755.6,o),
(179.2,783.6,o),
(143.2,783.6,cs),
(110.8,783.6,o),
(79.2,762,o),
(74.4,724,cs),
(4.4,54,ls),
(0,15.6,o),
(32.4,-9.6,o),
(68,-9.6,cs)
);
},
{
closed = 1;
nodes = (
(38.4,5.6,o),
(16,23.2,o),
(19.6,52,cs),
(89.6,722,ls),
(93.2,752.8,o),
(116.4,768.4,o),
(143.2,768.4,cs),
(171.6,768.4,o),
(190.4,749.2,o),
(187.6,714.8,cs),
(152.4,375.2,ls),
(152,370.8,o),
(153.6,368,o),
(157.6,366,cs),
(162.4,363.6,o),
(166,364,o),
(169.2,367.2,cs),
(198,393.2,o),
(237.2,413.6,o),
(280,413.6,cs),
(358.4,413.6,o),
(405.2,355.6,o),
(394.4,245.6,cs),
(372.4,45.6,ls),
(370.8,24,o),
(358.4,7.6,o),
(320,7.6,cs),
(286,7.6,o),
(271.6,28,o),
(274.4,54.4,cs),
(296.4,253.2,ls),
(299.6,285.2,o),
(291.6,323.6,o),
(253.2,323.6,cs),
(219.2,323.6,o),
(180.4,301.6,o),
(140.4,244.8,cs),
(138.4,242,o),
(137.6,239.6,o),
(137.2,236,cs),
(117.6,44.8,ls),
(114,17.6,o),
(94,5.6,o),
(68,5.6,cs)
);
},
{
closed = 1;
nodes = (
(15,545,l),
(35,592,l),
(26,593,l),
(40,722,l),
(27,723,l),
(13,595,l),
(5,596,l)
);
},
{
closed = 1;
nodes = (
(145,715,o),
(150,720,o),
(150,726,cs),
(150,732,o),
(145,737,o),
(139,737,cs),
(133,737,o),
(128,732,o),
(128,726,cs),
(128,720,o),
(133,715,o),
(139,715,cs)
);
}
);
vertWidth = 0;
width = 488;
}
);
unicode = 104;
},
